<svg xmlns="http://www.w3.org/2000/svg" fill="none" viewBox="0 0 155 50">
  <path fill="#000" d="m51.62 49.89-.05-24.95L51.52 0h1.51v50l-.7-.06-.71-.05Zm38.23-38.45c.48-.88.9-1.27 1.76-1.63a5.94 5.94 0 0 1 3.27-.1l.73.2-.12.83c-.06.45-.16.9-.21.98-.06.08-.56.1-1.12.05-.91-.1-1.06-.05-1.5.37-.37.35-.49.66-.49 1.22v.74h2.47l-.06.96-.06.96-1.17.05-1.17.06-.05 3.88-.05 3.88h-2.64v-5.86c0-5.64.02-5.88.4-6.59Zm-5.55 11.4c-.16-.45-.36-11.96-.24-13 .01-.08.56-.14 1.22-.14.93 0 1.23.07 1.32.3.06.15.11 2.81.11 5.9 0 5.85.03 6.07.8 6.07.27 0 .33.15.33.9 0 .5-.08.96-.18 1.02-.1.06-.6.12-1.09.13-1.18.03-2.03-.41-2.28-1.18Zm30.49-5.88a69 69 0 0 1 .04-5.36c.08-.2.4-.25 1.38-.21l1.27.05.06 1.33.05 1.33h2.43v2.01h-2.44v2.65c0 2.62 0 2.65.46 2.95.34.21.67.26 1.21.17.75-.12.75-.12.97.61.3.96.18 1.2-.72 1.46-1.84.53-3.67.03-4.29-1.18-.33-.64-.37-1.22-.42-5.8Zm-8.09 2.22c-1.67-1.52-1.18-3.95 1-4.92a6.13 6.13 0 0 1 4.37.1c.55.25.99.56.99.7 0 .25-.89 1.6-1.05 1.6-.06 0-.29-.1-.51-.21-1.11-.58-2.78-.49-3.04.17-.18.43.43.87 1.74 1.23 2.12.6 3.05 1.52 3.05 3.02-.01 1.8-1.43 3.07-3.65 3.25-1.38.1-3.05-.3-3.78-.92l-.48-.4.4-.79c.22-.42.5-.77.64-.77.13 0 .61.16 1.06.36 1.07.47 2.25.48 2.82.01.68-.53.3-.9-1.53-1.5a7.82 7.82 0 0 1-2.03-.93Zm45.5 14.14c-.05-3.64-.05-6.66-.01-6.7a3 3 0 0 1 .87-.07c.76 0 .8.02.9.68.07.38.12 3.22.12 6.32v5.63l.48.22c.4.17.47.32.43.77-.05.52-.12.57-.84.62-.6.04-.9-.05-1.31-.4l-.54-.45-.1-6.62Zm-78.64-5.9c.12-.23.32-.48.43-.56.12-.07.5-.11.86-.09.5.04.73.18.94.55.26.45.26.56 0 1-.4.7-.81.9-1.44.69-.7-.25-1.1-1.03-.79-1.6Zm74.91 1.49c-.63-.34-.78-1.3-.29-1.84.5-.54 1.57-.4 1.94.24.62 1.08-.54 2.2-1.65 1.6Zm-85.61 4.81c.15-3.76 1.3-5.57 4.1-6.47a9.33 9.33 0 0 1 4.4.39c.94.44.97.5.64 1.18-.25.55-.58.58-1.58.18a4.31 4.31 0 0 0-3.79.4c-1.95 1.5-2.5 5.37-1.17 8.06.82 1.65 2.78 2.29 4.99 1.61 1.04-.31 1.08-.31 1.33.02.47.63.3 1-.64 1.42-.71.31-1.26.4-2.68.4-1.63 0-1.88-.04-2.79-.53a5.1 5.1 0 0 1-2.51-3.28c-.33-1.05-.38-1.58-.3-3.38Zm34.39-.94C97.58 30 98.96 28 101 27.37c1.31-.41 3.71-.26 4.75.3.86.47.97.86.41 1.47-.26.28-.34.28-1.14-.07a3.89 3.89 0 0 0-2.03-.3c-2.42.16-3.65 1.7-3.81 4.8-.24 4.45 2.03 6.61 5.74 5.48 1-.3 1.04-.3 1.3.03.47.64.31 1-.6 1.4-1.87.8-4.65.62-6.1-.4-1.8-1.27-2.65-4.02-2.27-7.3Zm-19.53 1.09c-.06-4.96-.03-5.41.27-5.63.36-.25.8-.3 1.27-.12.24.09.3.4.3 1.37v1.27h1.02c1.41 0 1.62.1 1.62.84v.62h-2.64v3.22c0 1.76.08 3.36.19 3.54.24.45.87.58 1.78.38.83-.18 1.04-.04 1.04.7 0 .82-2.1 1.24-3.47.69-1.25-.51-1.32-.83-1.38-6.88Zm53.34-2.51c.26-.17.87-.4 1.35-.53 1.72-.44 3.43.15 4.2 1.46.43.73.44.89.44 4.6v3.84h-1.69l-.1-3.72-.09-3.72-.53-.45c-.4-.34-.74-.44-1.47-.44-1.04 0-2.11.4-2.36.89-.08.17-.2 1.91-.25 3.87l-.1 3.57-.89.06-.89.05v-9.86l.42-.07c.77-.13 1.27.03 1.27.4 0 .44.07.44.69.05Zm8.14 2.05a4.32 4.32 0 0 1 3.25-2.64 6.08 6.08 0 0 1 3.89.68c.34.22.4.38.31.75-.22.88-.52 1.01-1.34.61-1.61-.79-2.84-.65-3.8.4-1.21 1.35-1.2 4.06.04 5.37.77.82 2 1 3.51.5.96-.3 1-.3 1.25.02.47.62.3.99-.65 1.41-1.32.6-3.6.57-4.7-.04-1.52-.85-2.17-2.18-2.18-4.5a5.1 5.1 0 0 1 .41-2.56Zm-65.48-2.3.43-.16c.23-.1.54-.14.68-.1.13.05.37.09.52.09.23 0 .26.74.22 4.9l-.05 4.9h-1.7l-.05-4.82-.05-4.8Z"/>
  <path fill="#000" d="M82.95 31.03c0-.03.2-.1.42-.14.5-.09 1.3.04 1.52.23.2.17 2.49 6.16 2.67 6.98.13.55.24.32 1.24-2.5 1.82-5.1 1.58-4.66 2.54-4.66.6 0 .83.07.83.27 0 .31-3.86 10.74-4.26 11.49a6 6 0 0 1-2.02 2.1c-.8.4-2.84.41-3.25.01-.23-.22-.26-.4-.12-.81.17-.5.23-.52 1.21-.46.9.05 1.11 0 1.64-.43.61-.5 1.34-1.68 1.34-2.17 0-.14-.84-2.42-1.88-5.05a273.83 273.83 0 0 1-1.88-4.86Zm35.23 3.92c-.06-3.7-.04-3.99.28-4.07.19-.04.45-.05.6-.01.13.04.36.07.5.07.23 0 .27.55.28 3.16 0 3.49.15 4.33.87 4.89 1 .75 3.09.28 3.63-.82.19-.39.3-1.52.35-3.88.1-3.63.09-3.61 1.24-3.4l.5.1v9.86l-.8-.06c-.68-.05-.82-.12-.87-.48-.06-.4-.08-.41-.41-.12a4.6 4.6 0 0 1-2.71.8 3.54 3.54 0 0 1-2.93-1.38c-.46-.67-.48-.76-.53-4.66Zm30.07.95c0-4.55.03-4.94.33-5.02.18-.04.44-.05.58-.01.14.04.37.07.52.07.22 0 .26.8.26 4.94v4.94h-1.69V35.9Z"/>
  <path fill="#000" fill-rule="evenodd" d="M111.05 30.76c-2.38.47-3.63 2.26-3.63 5.21 0 2.32.72 3.79 2.27 4.6.97.51 3.4.47 4.44-.07 1.4-.72 2.26-2.17 2.44-4.13.23-2.35-.69-4.5-2.22-5.2-1-.46-2.25-.61-3.3-.4Zm-1.71 5.58c-.13-2 .46-3.32 1.73-3.86 2.35-1 4.16 1.3 3.5 4.43a2.91 2.91 0 0 1-.95 1.76c-.6.6-.82.69-1.56.69-1.8 0-2.58-.86-2.72-3.02ZM97.52 14.17c-.9.38-1.9 1.51-2.28 2.55a7.84 7.84 0 0 0-.34 2.6c0 1.5.06 1.78.57 2.74.47.91.72 1.16 1.57 1.6 1.3.65 2.46.67 3.65.06.83-.43.86-.43.95-.08.09.32.24.35 1.29.3.65-.02 1.17-.11 1.14-.19-.02-.07-.04-2.28-.04-4.9V14.1h-1.23c-.96 0-1.22.06-1.22.27 0 .35-.05.35-.9-.1a4.35 4.35 0 0 0-3.16-.1Zm1.24 7.57c-1.55-.78-1.5-4.7.07-5.37.64-.28 1.29-.2 1.95.21.4.26.42.4.42 2.44 0 1.88-.04 2.2-.35 2.47a2.2 2.2 0 0 1-2.1.25ZM76.6 14.16c-1.7.6-2.85 2.32-3.02 4.51-.25 3.51 1.9 5.68 5.42 5.44 1.47-.1 3.03-.54 3.37-.94.14-.16.14-.41 0-.85-.36-1.03-.53-1.11-1.5-.78a7.4 7.4 0 0 1-1.9.31c-1.25.03-1.97-.37-2.36-1.31l-.25-.59h6.45l-.09-1.5c-.12-2.21-.97-3.58-2.63-4.25a6.43 6.43 0 0 0-3.5-.04Zm.11 3.05c.2-.35.55-.74.8-.87.57-.28.96-.29 1.56-.02.44.2 1.2 1.36 1 1.55-.04.05-.9.06-1.9.03l-1.81-.05.35-.64Zm-13.48.19c-.02-3.58 0-6.6.05-6.74.11-.29 4.17-.31 5.54-.03 1.91.4 3.03 1.59 3.03 3.23 0 1.11-.18 1.54-.97 2.35l-.55.57.7.44c1.2.77 1.48 1.3 1.48 2.8 0 1.76-.53 2.6-2.11 3.35-1.06.5-1.18.52-4.1.52h-3.02l-.05-6.5Zm2.97 2.58v1.86l1.16-.1c1.86-.17 2.68-1.1 2.2-2.49-.25-.75-1.06-1.13-2.41-1.13h-.95v1.86Zm0-4.05v-3.35l.97.11c1.82.21 2.47 1.57 1.3 2.7-.44.44-.7.54-1.4.54h-.87ZM5.78 11.47A20.42 20.42 0 0 1 17.96 5.3c.6-.09 2.2-.13 3.55-.1a20.22 20.22 0 0 1 13.95 5.9c6.9 6.78 8.14 16.9 3.04 24.92a26.7 26.7 0 0 1-5.95 6.06 22.07 22.07 0 0 1-12.84 3.43c-7.7-.44-14.05-4.5-17.5-11.2a18 18 0 0 1-2.19-8.05 19.33 19.33 0 0 1 5.76-14.8Zm9.15 29.34c-.7.75.07 1.53 1.83 1.87.8.15 1.15.16 1.3.01.15-.14.1-.17-.17-.1-.64.16-1.91-.28-2.25-.78-.41-.61-.16-1.04.71-1.19.6-.1.59-.12-.23-.14-.63-.02-.95.07-1.19.33Zm3.33.53a5.6 5.6 0 0 0-.7-.5l-.38-.23.37.13.71.22c.18.05.33.22.33.37 0 .25-.04.25-.33 0Zm1.31.14c-.6.41-.54 1.1.14 1.44.3.16.8.27 1.08.26.4-.01.43-.04.15-.1-.58-.14-1.03-.62-1.03-1.08 0-.24.14-.5.33-.61.26-.15.27-.19.04-.2-.16 0-.48.13-.7.29Zm2.88.08c-.16-.13-.56-.3-.9-.37l-.6-.14.6-.02c.35-.01.92.1 1.28.24.79.32.9 1.02.23 1.47-.49.33-.88.38-.56.06.32-.3.29-.97-.05-1.24Zm2.07-.78c-.12.03-.2.05-.24.1-.06.09.01.26.22.76l.03.09c.35.84.65.98 1.65.75.93-.2 1.12-.39.27-.25-.55.08-.71.02-.97-.33-.17-.23-.3-.61-.3-.84 0-.43-.03-.44-.62-.3l-.02.01h-.02Zm2.87-.65c-.39-.1-.4-.1-.04-.24.55-.2.77-.19.78.06 0 .13.06.49.13.8.1.44.04.63-.28.9-.4.36-.41.36-.17-.02.33-.52.1-1.37-.42-1.5ZM31.98 37c-.42.33-.42.36-.07.36.2 0 .5.2.67.44l.3.44-.98.11c-2 .24-2.31.31-2.77.68-.32.25-.36.34-.14.27.36-.11 1.1.57 1.27 1.17.09.33.1.33.54-.02.42-.33.42-.35.05-.35-.39 0-1.03-.68-.87-.92.05-.08.75-.2 1.56-.27 1.92-.16 2.02-.23 1.46-1.02a3.98 3.98 0 0 1-.51-.94c-.06-.27-.11-.26-.51.05Zm1.46-1.07c.04 1.46 2.17.69 2.6-.94.06-.26.15-.37.19-.25.2.58-1.28 2.44-2.14 2.7-.78.22-1.24-.7-.82-1.64.14-.33.16-.31.17.13Zm1.12-1.75-.45.46.57-.23c.77-.32.92-.47.6-.59-.16-.05-.47.1-.72.36Zm.82-1.23c-.17.02-.14-.16.1-.63.17-.37.35-.58.39-.47.1.3 1.51.97 1.74.83.1-.06.04.17-.13.52l-.3.62-.44-.43c-.41-.4-.77-.51-1.36-.44Zm3.37-3.89c-.01.32-.1.8-.2 1.05-.17.42-.23.44-.8.27-.35-.1-.76-.26-.93-.34-.24-.13-.34-.03-.5.48-.16.5-.15.6.04.44.28-.23 1.4.07 1.73.47.16.2.28-.01.53-.92a5.2 5.2 0 0 0 .24-1.6c-.07-.34-.09-.31-.1.15Zm-28.33 10.3c.3-.34.22-1.5-.16-1.96-.31-.38.1-.24.7.24.32.24.48.45.37.45-.12 0-.17.23-.12.55.07.46.17.55.63.55.37 0 .54-.1.54-.3 0-.25.05-.26.29-.06.36.3.05.53-.7.54-.57 0-1 .42-.84.82.08.2-.06.16-.45-.12-.5-.37-.53-.43-.26-.72Zm-3.37-5.37c-.07.07.06.22.28.33.22.1.5.35.6.53.18.27.12.41-.33.8-.32.26-.69.42-.9.36-.32-.08-.32-.05.04.44.48.66.75.83.75.47 0-.28.93-1.03 1.28-1.03.1 0 .36.27.58.6.21.32.39.48.4.35a17 17 0 0 0-2.45-2.92c-.06-.03-.18 0-.25.07Zm-2.21-.76c.2.12 1.52-.6 1.52-.83 0-.31.17-.17.46.36.27.52.27.53-.28.63-.3.06-.73.28-.95.5-.21.21-.42.36-.45.32a4.21 4.21 0 0 1-.48-.97c0-.06.08-.07.18-.01Zm-1.27-4.8c-.35.34-.26 1.71.17 2.61.22.46.48.87.57.93.26.15.2-.05-.21-.7-.42-.66-.5-1.78-.15-2.12.3-.28.95-.28 1.26.01.2.2.21.16.04-.18-.37-.7-1.24-.99-1.68-.56Zm2.05 3.25c-.08 0-.1-.22-.06-.48.08-.4.13-.43.27-.18.17.3.06.66-.21.66ZM18.4 13.65c-.67.14-2.01.63-2.98 1.1a11.9 11.9 0 0 0-5 17.23 13.1 13.1 0 0 0 5.05 4.45 10.94 10.94 0 0 0 6.13 1.24 11.7 11.7 0 0 0 5.97-1.64c1.18-.68 3.35-2.7 3.89-3.62.35-.6.35-.6-.05-.47-.4.12-.56-.15-.21-.36a.4.4 0 0 0 .19-.3c0-.13-.1-.12-.28.02-.35.28-.85.12-.85-.27 0-.23.07-.25.36-.1.24.13.4.13.48 0 .07-.1-.05-.17-.25-.17a.55.55 0 0 1-.5-.38c-.2-.6-.57-.3-.51.4.05.55.03.58-.21.3-.4-.49-1.48-.4-2.95.22-.7.3-1.5.55-1.76.55a8.4 8.4 0 0 1-1.88-.55 8.4 8.4 0 0 0-1.88-.54c-.26 0-1.18.25-2.04.56-1.81.65-2.25.62-3.48-.24-1.03-.72-2.02-.79-2.85-.2l-.56.4-.09-.44c-.12-.64.06-1.38.37-1.5.36-.13.58.12.26.3-.3.19-.11.57.27.57.16 0 .22-.11.16-.28-.06-.16 0-.27.14-.27.19 0 .2-.05.02-.22-.37-.36-.26-.52.3-.48.66.05.95-.13 1.18-.72.14-.35.1-.58-.12-.92-.23-.34-.24-.43-.05-.37.14.05.38.32.53.61.16.3.41.64.57.76.24.2.23.23-.1.26l-.6.03c-.25-.01-.33.35-.13.54.16.16 1.44-.4 1.7-.75.23-.28.24-.28.25 0 0 .43 1.74 1.46 2.66 1.58.93.12.62.37-.56.45-.6.04-.78.13-.78.37 0 .4.06.4 1.4-.06a3.92 3.92 0 0 1 3.38.24c.6.29.76.31.9.11.24-.37.19-.52-.18-.52-.42 0-1.35-.4-1.36-.6 0-.07.28-.13.61-.13.34 0 .98-.2 1.44-.46.86-.48 1.87-.59 2.5-.26.34.18.36.15.25-.41-.15-.78.19-1.7.57-1.55.55.2.27-.17-.38-.51a3.2 3.2 0 0 1-1.44-1.75c-.12-.52.85-.33 1.1.2.11.27.67.8 1.25 1.19 1 .69 1.64 1.43 1.62 1.93 0 .14-.18.02-.39-.26-.48-.63-1.05-.64-1.33-.04-.18.4-.15.55.2 1 .28.38.33.55.16.55-.37 0-.7-.38-.7-.81 0-.2-.1-.5-.2-.65-.16-.2-.18-.1-.1.43.05.4.25.88.43 1.09.19.2.24.31.1.24-.12-.07-.23-.05-.23.06s-.33-.02-.74-.28c-.61-.4-.84-.45-1.27-.3-.68.2-1.17 1.01-.9 1.44.3.46 1.02.67 1.15.34.15-.38-.08-.87-.33-.72-.15.09-.15.16.02.26.16.1.13.17-.08.25-.35.13-.59-.28-.42-.7.19-.47.86-.33 1.1.22l.26.56c.01.02.4-.12.85-.32.46-.2 1.02-.37 1.24-.37.23 0 .71-.28 1.08-.62.57-.52.68-.74.68-1.4 0-.8-.48-2.01-.8-2.01-.09 0-.12-.16-.06-.35.09-.26-.11-.54-.79-1.1-.88-.73-1.76-.98-2.02-.56-.07.1-.33.18-.6.18-.63 0-1.57.93-1.57 1.56 0 .36-.07.46-.28.39-.16-.06-.28-.03-.28.07s-.1.18-.21.18c-.13 0-.18-.2-.12-.46.07-.36.03-.42-.15-.27-.18.14-.26.11-.3-.12-.07-.3-.1-.3-.37-.02-.18.16-.56.28-.9.26-.32-.02-.58.04-.57.14.01.24-.55.44-1.3.45-.34 0-.87.14-1.18.3-.31.16-.73.23-.93.17-.44-.14-.45-.08-.1.73.18.43.57.8 1.27 1.18 1 .56 1.6.72 1.38.38-.07-.1-.3-.18-.5-.18-.28 0-.36-.09-.28-.29.08-.2-.11-.38-.69-.62-.65-.29-.71-.35-.33-.36.44-.01.44-.02.09-.28-.36-.27-.36-.27.04-.28.22 0 .45-.13.51-.28a.47.47 0 0 1 .4-.27c.28 0 .28.04.01.4-.43.6-.39.94.08.66.3-.18.5-.16 1.04.09.37.17.95.31 1.29.31.34 0 .71.1.84.22.33.33 1.16-.5 1.16-1.16 0-.29.1-.52.22-.52.27 0 .1 1.37-.22 1.74-.32.38-2.8 1.55-3.27 1.55-.5 0-3.61-1.51-3.9-1.88-.06-.09-.32-.1-.58-.04-.61.15-1.09-.53-1.09-1.55 0-.53-.1-.78-.32-.87-.17-.06-.35-.02-.39.1-.12.35-.75 1.05-.86.95-.05-.05 0-.4.12-.77.16-.48.36-.71.7-.8.25-.06.66-.28.9-.5.33-.3.41-.32.41-.1 0 .16-.12.4-.27.51-.24.2-.22.3.12.74.26.35.35.67.28.97a1 1 0 0 0 .13.76c.21.29.3.3.65.08.32-.2.41-.42.41-1.03 0-.43.09-.78.19-.78s.19.22.19.5c0 .46.01.47.26.14.23-.3.22-.38-.03-.56-.16-.11-.23-.3-.16-.41.09-.14.03-.17-.16-.1-.22.08-.29-.02-.29-.46 0-.57-.4-.94-1.05-.94-.17 0-.52-.2-.76-.46-.36-.39-.5-.43-.82-.27-.2.1-.38.36-.38.56 0 .28.14.36.61.37l.61.01-.52.23c-.28.12-.46.28-.39.35.21.2-.68.15-1.1-.07-.45-.24-.75.06-.57.55.09.23.04.23-.29-.05-.38-.32-.4-.32-.6.04-.1.2-.2.86-.2 1.46 0 .98-.06 1.17-.65 1.86-.48.55-.67.95-.68 1.43l-.01.67-.2-.55a3.3 3.3 0 0 0-.38-.76c-.12-.15.06-.37.59-.7.87-.57 1.05-.94.77-1.63-.29-.76-.23-1.3.21-1.84.27-.32.53-.46.76-.4.19.04.36-.01.37-.13.09-.98.35-1.58.68-1.58.24 0 .24.06-.03.47-.18.25-.28.56-.24.68.05.12.23-.1.4-.49.28-.63.29-.78.05-1.37a2.7 2.7 0 0 0-.85-1.05c-.32-.22-.53-.44-.47-.5.06-.06 0-.24-.12-.4-.17-.2-.2-.61-.1-1.5.16-1.49.26-1.7.56-1.16.16.3.17.6.03 1.1-.14.54-.13.78.06 1 .35.42.62.35.38-.1-.25-.45-.11-.66.24-.38.19.15.4.13.78-.06.7-.35 1.36-.34 1.5.02.18.44.14 1-.06 1-.32 0-.44-.41-.18-.58.18-.1.07-.16-.35-.16-.64 0-.76.15-.4.5.17.16.17.28 0 .49-.21.24-.16.25.34.11.74-.2.74-.1 0 .28-.48.24-.56.38-.51.87.05.53.12.6.8.68.6.07.81.2 1.01.6.14.3.54.65.9.79.4.16.64.39.64.6 0 .2.13.4.28.45.2.08.28-.02.28-.34 0-.5.28-.61.45-.18.08.2.4.27 1.24.27h1.13l-.5-1c-.5-1-.81-1.27-.81-.73 0 .2-.22.27-.86.27-.47 0-.81-.07-.75-.16.05-.1-.05-.28-.23-.41-.29-.23-.3-.22-.09.04.28.35.06.5-.65.45-.5-.04-1.4-1.04-1.04-1.16.32-.1.29-.41-.08-.8-.5-.54-.17-.58.46-.07l.58.47.06-.6c.05-.55.11-.6.8-.66.42-.03.82-.15.89-.26.07-.12.6-.18 1.3-.15l1.17.04-.12-.54c-.1-.49-.06-.54.3-.46.3.07.25-.01-.2-.3-.54-.33-.63-.48-.56-.93.07-.44.02-.53-.23-.45-.18.05-.46-.06-.65-.27-.2-.2-.5-.37-.7-.37-.19 0-.34-.1-.34-.2 0-.13.22-.18.57-.13.67.1.66-.2-.02-.54l-.46-.22h.5c.66-.01 1.5 1.02 1.08 1.3-.21.15-.2.17.05.1.16-.06.38-.03.47.06.09.08.53.19.98.23.6.06.84 0 .92-.2.09-.21.15-.17.3.17l.18.44.12-.46c.15-.55.31-.34.47.61.08.53.05.69-.13.62l-.11-.05c-.44-.17-.63-.25-.7-.19-.07.05-.05.2-.02.46l.01.08c.05.37 0 .67-.09.67-.1 0-.17.12-.17.27 0 .15.17.27.38.27.2 0 .37.08.37.18 0 .09.28.2.61.22.5.05.63.15.68.52.04.25.2.6.35.77.16.17.22.4.14.53-.08.13.16-.01.54-.3.43-.34.7-.7.7-.95 0-.23.08-.42.18-.42.35 0 .2.9-.22 1.28-.26.23-.32.37-.16.37.19 0 .17.09-.07.34-.43.47-.54 1.13-.19 1.13.15 0 .32-.12.38-.26.05-.14.34-.3.63-.36.52-.1 1.14-.55 1.14-.84 0-.08-.21-.2-.47-.27-.26-.06-.47-.2-.47-.29 0-.1.19-.1.5.01.48.18.8.02.81-.4 0-.17-.64-.37-.94-.3a.29.29 0 0 1-.32-.18c-.05-.13.07-.23.3-.23.2 0 .43-.08.5-.18.06-.1-.16-.18-.56-.18-.37 0-.67-.08-.67-.19 0-.3 1.15-.27 1.74.03.27.14.3.25.14.53-.17.3-.14.36.17.36.43 0 .68-.29.4-.45-.1-.07-.02-.27.2-.47.2-.2.36-.49.36-.65 0-.15.09-.23.19-.17.24.14.24 1.03 0 1.64-.1.25-.1.47-.02.47.2 0 .39-.66.4-1.4 0-.43-.17-.72-.66-1.14-.64-.55-.83-1-.5-1.2.09-.05.25.1.37.35.12.25.33.46.48.46.14 0 .4.21.59.48.42.63.31 2.4-.16 2.66-.18.1-.28.24-.23.32.06.09-.1.35-.32.6-.38.4-.48.8-.33 1.34.02.1.04.24.02.32 0 .07.07.14.17.14s.19.12.19.27c0 .15.13.27.28.27.34 0 .38-.74.06-1.05-.31-.31-.03-.51.31-.23.16.13.29.46.29.74 0 .63.4.96 1 .81.32-.08.49-.02.57.18.13.34-.08.38-.4.07-.17-.17-.23-.17-.23 0 0 .11.21.26.47.32.26.07.47.24.47.4 0 .17-.1.23-.3.16a1.76 1.76 0 0 0-.46-.11c-.09 0-.32-.16-.5-.34-.4-.4-1-.64-1-.4 0 .1.13.19.29.19.17 0 .28.17.28.45 0 .3.1.46.3.46.2 0 .25.1.17.35-.06.2-.02.4.1.48.1.06.14.28.08.47-.06.2-.02.35.1.35.14 0 .15.1 0 .37-.11.2-.16.44-.1.52.05.09-.15.4-.45.68l-.54.53.53.22c.32.12.56.39.6.64.07.36.16.26.56-.58.73-1.54 1-2.84.99-4.85 0-3.5-1.1-6.03-3.65-8.52a10.08 10.08 0 0 0-3.2-2.33 13.1 13.1 0 0 0-8.29-1.04ZM21.93 15c-.18-.1-.33-.27-.33-.36 0-.3.47-.2.9.2.5.44.54 1.2.1 1.67-.35.38-.78.42-1.45.13-.56-.26-.63-1.18-.1-1.45.49-.26.63-.22.36.1-.19.22-.18.27.03.27.14 0 .38-.09.54-.19.24-.16.24-.2-.05-.37Zm-8.78 3.57c-.24.14-.3-1.03-.07-1.26.08-.07.17.03.2.24.05.3.25.4 1.09.5.69.08 1.02.2 1.02.37 0 .18-.14.23-.45.15a1.45 1.45 0 0 0-.87.1c-.33.18-.45.17-.56 0a.27.27 0 0 0-.36-.1Zm14.74-.16c.11-.14.33-.29.49-.34l.33-.11c.03-.01.03.12 0 .3-.07.42-.79.78-1.57.78-.43 0-.65.1-.71.32-.06.2-.09.14-.07-.13.03-.36.16-.46.69-.51.35-.04.74-.18.84-.31Zm1.34.74c-.32.31-.6.24-.4-.1a.6.6 0 0 1 .42-.2c.24 0 .24.05-.02.3ZM10.2 22.03a6.49 6.49 0 0 1-.28-.72c0-.12.27-.08.5.07.76.5.82 1.89.12 3.28l-.51 1.01.44.35c.5.4.1.49-.45.1-.26-.2-.32-.4-.23-.81.06-.31.04-.82-.05-1.13-.1-.34-.1-.56 0-.56s.18-.27.19-.6c0-.45.04-.53.18-.32.24.36.24 1.1 0 1.1-.1 0-.18.18-.18.41 0 .4.01.4.28.06.36-.46.35-1.4 0-2.24Zm22.09 1.82c.24.19.26.16.17-.2-.08-.28-.04-.4.1-.35.13.04.25.25.29.47.06.38-.26.5-1.05.4-.13 0-.24.06-.24.17 0 .1-.08.2-.18.2-.1 0-.2-.21-.2-.47 0-.25.1-.45.2-.45s.18.1.18.22c0 .16.06.16.23 0 .17-.17.28-.16.5 0Zm.97.85c0 .34-.38.4-.8.12-.41-.29-.41-.29.2-.29.33 0 .6.08.6.17Zm-20.32 1.4c-.1-.06-.18-.2-.18-.29 0-.1.08-.17.18-.17.1 0 .2.13.2.29 0 .15-.1.23-.2.17Zm9.77 1.77c-.2.04-.26-.16-.26-.82 0-.68.06-.86.28-.81.3.06.3.27.08 1.05-.14.45-.14.45.27.1.51-.44.66-.3.4.37-.15.36-.25.45-.36.29a.43.43 0 0 0-.4-.18Zm-9.77-.78c-.1-.15-.07-.35.06-.51.18-.22.24-.12.29.53.04.6-.03.86-.28 1.04-.3.22-.3.24 0 .24.27 0 .28.05.08.36s-.25.32-.34.08c-.09-.24-.15-.23-.45.1-.2.2-.46.37-.6.37-.35 0-.53.37-.28.6.11.11.2.49.2.83 0 .54-.05.61-.38.53-.32-.08-.35-.05-.17.16.3.34 1.01.33 1.3-.01.49-.56 2.11-.2 3.23.72.88.72 1.68.77 3.36.22 1.82-.6 2.54-.6 3.97-.02 1.9.78 2.49.77 4.2-.09 1.43-.71 2.45-.91 3.2-.63.59.22.29.36-.74.36-1 0-1.2.1-1.48.72-.05.1-.17.06-.28-.09-.16-.23-.3-.21-1.05.14-1.1.52-2.11.67-2.96.44-.37-.1-.96-.12-1.3-.05-.6.12-.61.14-.26.35.36.21.35.22-.1.17-.36-.04-.46-.14-.42-.46.04-.33-.05-.41-.42-.41-.26 0-.47-.08-.47-.18 0-.1.14-.19.31-.19.17 0 .27-.04.2-.1-.05-.06-.46-.01-.9.1-.58.16-.73.27-.58.42.16.15.27.15.43 0 .17-.17.33-.1.66.28.5.56.58 1.13.16 1.13a.28.28 0 0 1-.28-.27c0-.15-.17-.28-.38-.28-.2 0-.38-.07-.38-.16 0-.31-1.05-.56-2.26-.54-1.18.02-2.24-.3-2.54-.76-.07-.11-.26-.02-.47.23-.3.35-.36.36-.36.1 0-.19-.21-.37-.48-.44-.26-.06-.47-.23-.47-.38s-.07-.24-.14-.2l-.65.3c-.63.32-1.68.14-2.13-.35-.32-.33-.32-.38-.03-.7.17-.18.31-.53.31-.78 0-.5.48-1.26.81-1.26.3-.01 1.16-.75 1.3-1.12a.67.67 0 0 0-.04-.54Zm8.43.75c-.23 0-.17-1 .08-1.25.4-.39.48-.24.27.51-.1.4-.26.74-.35.74Zm-8.82 4.47c.1.06.23.03.3-.08.15-.24.2-.23.86.1.63.32.67.42.24.72-.28.2-.27.23.1.32.22.06.4.03.4-.06 0-.32.33-.16.43.2.14.52-.12.6-.79.23-.43-.23-.58-.45-.58-.82 0-.54-.17-.64-.51-.3-.23.22-.62.07-.62-.23 0-.1.08-.13.17-.08Zm15.96.96c-.08-.2.01-.45.25-.68.43-.42.9-.47 1.05-.1.06.16.23.22.42.15.26-.1.27-.07.07.18-.34.4-.98.54-.98.22 0-.14-.09-.26-.2-.26-.1 0-.14.2-.07.45.18.68-.64.83-1.3.23-.72-.64-.62-.78.19-.3.58.35.67.37.57.1ZM8.27 21.76a13.5 13.5 0 0 1 9.45-8.78c2.03-.53 5.5-.4 7.55.28a13.5 13.5 0 0 1 8.46 8.18c.42 1.2.55 1.98.62 3.58.12 2.6-.24 4.24-1.4 6.53a10.37 10.37 0 0 1-2.49 3.25 10.34 10.34 0 0 1-3.4 2.43 12.26 12.26 0 0 1-6.59 1.35 13.17 13.17 0 0 1-8.93-3.88 12.55 12.55 0 0 1-3.25-5.13c-.44-1.3-.5-1.75-.5-3.94 0-2.17.06-2.65.48-3.88Zm9.57-8.57a13.18 13.18 0 0 0-9.54 9.14c-.54 1.9-.45 5.17.19 7.05a13.25 13.25 0 0 0 18.55 7.57 9.97 9.97 0 0 0 3.22-2.32c.9-.87 1.89-2.04 2.21-2.6 2.19-3.78 2.3-8.27.3-12.26a9.57 9.57 0 0 0-2.42-3.21 13 13 0 0 0-9.4-3.73c-1.06 0-2.24.14-3.11.36ZM2.59 25.24c0 .28.69.76 1.09.76.4 0 .98-.44.98-.75 0-.1-.46-.17-1.03-.17-.57 0-1.04.07-1.04.16Zm1.36-10.6c3.3-4.87 8.6-8.05 14.64-8.77 4.2-.5 9.23.6 12.95 2.85a26.24 26.24 0 0 1 6.15 5.9 20.19 20.19 0 0 1 3.25 9.04l.1 1.42h-.95c-.8 0-1 .07-1.25.46a.95.95 0 0 1-.87.46.95.95 0 0 1-.86-.46c-.25-.37-.46-.46-1.12-.46h-.82l-.12-.87c-.24-1.74-.67-3.1-1.53-4.8a9.92 9.92 0 0 0-2.58-3.4 13.25 13.25 0 0 0-6.1-3.54c-6.67-1.8-13.74 1.4-16.58 7.51a11.24 11.24 0 0 0-1.12 3.89l-.12 1.12-1.04.05c-.98.05-1.05.02-1.35-.5-.24-.42-.46-.56-.85-.56-.64 0-.87.15-1.17.7-.2.36-.35.41-1.11.36L.62 25l.06-1.28c.15-2.84 1.4-6.33 3.27-9.07ZM18.4 7.13c-1.2.1-1.21.1-.61.32.61.22.61.22.61 1.5 0 1.03-.06 1.32-.33 1.47-.25.14-.05.18.8.17 1.14 0 2.54-.28 1.67-.32a.81.81 0 0 1-.79-.97c.05-.33.2-.43.69-.48.34-.03.82.07 1.07.23.52.33.72.14.54-.54-.09-.36-.2-.44-.43-.34-.16.07-.67.17-1.12.21-.8.08-.8.07-.75-.44.06-.5.12-.53 1.07-.58.75-.04 1.1.02 1.36.25.32.28.36.28.47.02.06-.16.06-.38 0-.48-.14-.2-2.08-.21-4.25-.02Zm7.72 2.05c-.88.42-1.9.81-2.26.88l-.66.13 1.1.49c1.3.57 1.72.62 1.06.12-.4-.3-.42-.39-.18-.54.4-.26.61-.24 1.73.19 1.05.4 1.27.6 1.27 1.14 0 .25-.09.3-.37.22-.83-.26-.3.14.87.65s2.03.73 1.35.35c-.18-.1-.62-1.09-1.03-2.29-.5-1.47-.8-2.1-1-2.1-.15 0-1 .35-1.88.76Zm-14.63.16c-1.27.57-1.52.83-.62.64.53-.12.57-.08 1.13 1.13.51 1.1.55 1.27.3 1.45-.67.47-.21.38 1.16-.22 2.7-1.2 3-1.36 3.21-1.81.28-.6-.05-.78-.43-.22-.27.41-1.9 1.4-2.3 1.4-.1 0-.45-.55-.78-1.23-.54-1.14-.56-1.25-.27-1.46.56-.4-.14-.25-1.4.32Zm-4.82 3.93c-1.65 1.77-2.03 2.37-1.15 1.8.48-.3.5-.29 1.41.6.69.65.9.98.82 1.23-.19.57.15.3 1.6-1.25 1.49-1.58 1.82-2.1 1.65-2.55-.17-.43-.5-.34-.5.14 0 .42-.79 1.64-1.35 2.09-.22.17-.36.16-.69-.06-.22-.15-.4-.38-.4-.5 0-.34.99-1.22 1.37-1.22.44 0 .4-.3-.1-.63-.55-.38-.71-.36-.71.06 0 .2-.23.61-.5.93-.47.54-.51.55-.85.26-.19-.17-.35-.4-.35-.52 0-.33 1.4-1.57 1.77-1.57.39 0 .3-.43-.1-.5-.16-.04-1 .72-1.92 1.7Zm25.88-1.15c-.35.35-.27.65.54 2.09.42.74.71 1.43.65 1.53-.22.35-.62.19-1.3-.55-.54-.58-.68-.88-.68-1.46 0-.82-.28-.96-.6-.28-.17.38-.12.56.45 1.32 1.14 1.55 2.53 2.15 3 1.31.18-.33.1-.61-.57-1.86-.79-1.47-.82-2.03-.09-1.59.6.37 1.05 1.1 1.15 1.85.1.73.34.84.68.32.13-.21-.02-.54-.6-1.31-1.04-1.36-2.08-1.9-2.63-1.37Zm4.42 4.66c-.22.22-.14.4.23.52.4.12 1.05 1.67.76 1.84-.1.05-.66.26-1.25.46l-1.09.37-.33-.4c-.44-.53-.43-.14.05 1.23.58 1.65.61 1.7.74.99.1-.6.2-.67 1.29-1.05l1.18-.41.22.5c.11.27.21.88.21 1.36 0 .77.03.84.34.68.2-.1.35-.23.35-.28 0-.28-1.77-5.5-1.93-5.7-.2-.25-.57-.3-.77-.1ZM3.75 18.04c-.34.42-1.73 4.11-1.72 4.57 0 .1.16-.01.35-.25l.35-.44 1.25.4c.96.32 1.25.5 1.25.76 0 .79.33.26.88-1.43.78-2.34.87-2.82.63-3.4-.26-.7-.7-.8-1.22-.32l-.45.41-.2-.38c-.29-.51-.66-.49-1.12.08Zm33.4 6.28c-.55.6-.38.76.82.76 1.22 0 1.44-.22.79-.8-.46-.4-1.22-.38-1.6.04Zm-16.5 4.42c0 .1.14.18.3.18.15 0 .27.09.27.19s.22.18.47.18c.52 0 .6-.17.25-.51-.27-.27-1.28-.3-1.28-.04Zm-5.07 1.1c-.2 0-.16-.12.16-.37.24-.2.52-.36.6-.36.45 0 1.14.48 1.24.86.24.91-1.16 1.47-1.94.76-.4-.37-.4-.41-.1-.64.26-.2.27-.24.04-.25Zm.5.12c-.07.07-.12.3-.12.5 0 .35.02.36.2.07.24-.41.55-.42.55-.01 0 .29.02.3.3.02.17-.17.25-.39.18-.5-.14-.22-.9-.27-1.11-.08Zm-1.9-.2c-.36.26-.36.26.05.26.24 0 .4-.11.4-.27 0-.33 0-.33-.45 0Zm.18 1.91c.14.23-.1.23-.48 0-.24-.15-.23-.18.04-.18.18 0 .37.08.44.18Zm7.7 1.01c.38.29.6.24.4-.08-.07-.1-.27-.2-.45-.2-.28.01-.27.05.05.28Zm7.44-7.87a3.7 3.7 0 0 1-.75-.87c0-.08.13-.14.3-.14.16 0 .23.09.17.2-.07.1.14.43.46.73s.58.6.58.66c0 .07-.34-.2-.76-.58Zm.95.96a2 2 0 0 0 .39.6l.38.45-.3-.6c-.28-.56-.48-.75-.47-.45Zm-1.65-2.41c-.04-.04.02-.25.13-.46.3-.54.42-.48.16.08-.11.25-.25.42-.29.38ZM23.45 21c-.35.4-1.85 3.25-1.85 3.52 0 .33 1.69.24 1.82-.1.06-.15.03-.36-.08-.46-.12-.12-.1-.6.08-1.4.44-2.06.66-1.85.6.56-.07 2.1-.06 2.15.27 1.74.19-.23.55-.6.81-.83.26-.23.39-.41.29-.41-.1 0-.31.12-.47.27-.15.15-.35.28-.44.28-.08 0-.15-.77-.15-1.7 0-1.38-.05-1.7-.3-1.74-.16-.03-.42.09-.58.27Zm1.48 2.55c-.07.07-.13-.14-.13-.46 0-.33.07-.55.16-.5.18.11.16.78-.03.96Zm-4.87 2.39c.14.05.3.04.36-.02s-.05-.1-.25-.1c-.22.02-.26.06-.11.12Zm.46 2.2a.75.75 0 0 1-.47 0c-.13-.06-.03-.1.23-.1s.37.04.24.1Zm.42 1.52c.07.1.16.18.2.18.05 0 .08-.08.08-.18 0-.1-.09-.19-.2-.19-.1 0-.14.09-.08.19Zm-.28-7.2c.25-.06.32-.2.25-.47-.08-.3-.02-.39.27-.39.3 0 .35.1.28.46-.05.25-.17.46-.26.46s-.16.12-.16.27c0 .35-.5.36-.63.02-.06-.15.04-.3.25-.35Zm.19 1.08c0 .14.17.26.37.26.21 0 .38-.07.38-.16 0-.1-.17-.2-.38-.26-.24-.06-.37 0-.37.16Zm.75-.34c0-.06-.05-.23-.11-.4-.09-.2 0-.28.28-.28.46 0 .51.23.11.55-.15.12-.28.18-.28.13Zm.38-1.33c0 .38.32.5.45.17.16-.4.15-.44-.17-.44a.27.27 0 0 0-.28.27Zm.75-.54c-.1.06-.19-.02-.19-.17 0-.16.09-.29.19-.29s.19.08.19.17c0 .1-.09.23-.2.29Zm-1.22-.46c-.08.12-.06.3.05.4.12.12.23.1.32-.03a.33.33 0 0 0-.05-.4c-.12-.12-.23-.11-.32.03Zm-1.08.4a.33.33 0 0 1-.05-.4c.09-.14.2-.15.32-.03.1.1.13.28.05.4-.09.14-.2.15-.32.03Zm-.52.5c0 .1.08.23.18.29.1.06.2-.02.2-.17 0-.16-.1-.29-.2-.29s-.18.08-.18.17Zm-1.8.48c-.05-.04-.02-.18.04-.48l.01-.06.1-.52.25.43c.2.38.2.46-.08.55l-.03.02c-.16.05-.25.09-.29.06Zm-4.93-1.84c-.3.33-.3.46 0 .46.13 0 .34-.16.47-.37.2-.29.2-.36 0-.36-.13 0-.34.13-.47.27Zm8.34-2.06c-.27-.2-.48-.46-.48-.57 0-.41.68-.19.99.33.39.64.4 1 .07 1.27-.21.17-.24.13-.17-.22.06-.31-.06-.54-.4-.8Zm-.02-2.3c.05.14 0 .24-.13.24-.11 0-.16.05-.1.11.13.13.9-.25.9-.44 0-.08-.18-.14-.39-.14-.23 0-.34.1-.28.24Zm3.32 15.3c-.25.25-.6 0-.46-.33.08-.21.16-.23.38-.06.17.14.2.28.08.4Zm-7.2-.1c.13.05.3.04.35-.02.07-.06-.04-.1-.24-.1-.22.02-.27.06-.12.12ZM3.73 20.83c-.65-.07-.75-.8-.2-1.48.76-.95 1.29-.54.93.72-.21.73-.3.81-.73.76Zm1.62-1.64c-.17.18-.44.67-.6 1.1-.27.77-.27.78.2.95.72.27.77.24 1.1-.56.36-.87.38-1.3.07-1.6-.3-.3-.41-.28-.77.1ZM26.3 9.7c0-.07.19-.22.42-.33.23-.11.48-.2.54-.21.14-.02.62 1.06.52 1.16-.11.1-1.48-.47-1.48-.62Z" clip-rule="evenodd"/>
</svg>
