<svg xmlns="http://www.w3.org/2000/svg" fill="none" viewBox="0 0 250 46">
  <path fill="#000" d="M24.23 14.66c.05.01.2.02.27-.03s.14-.24.14-.24l3.48-12.57s.1-.22 0-.44c-.07-.12-.22-.16-.32-.18l-.26-.06c-1.57-.35-4-.9-7.79-.5a.48.48 0 0 0-.28.18c-.09.13-.07.38-.07.38l1.7 13s0 .1.07.19c.1.1.2.07.24.06h.11a7.18 7.18 0 0 1 2.56.17c.05 0 .1.02.16.04Zm4.23 2.28c-.09 0-.2-.07-.25-.11l-.11-.12a7.28 7.28 0 0 0-2.13-1.44l-.08-.04h-.02a.23.23 0 0 1-.16-.18c-.03-.12.03-.2.03-.2L30.7 2.73s.1-.22.25-.3a.4.4 0 0 1 .32 0c3.5 1.56 5.32 3.26 6.5 4.36l.2.18c.07.07.18.18.18.31-.01.25-.2.39-.2.39L28.7 16.8s-.15.13-.24.14Zm2 3.68c.02.05.08.18.16.22.08.03.28 0 .28 0l12.55-3.25s.24-.02.36-.22c.08-.12.03-.27 0-.37l-.07-.24v-.01c-.48-1.55-1.22-3.94-3.47-7.05a.43.43 0 0 0-.29-.16c-.16-.01-.36.13-.36.13l-10.33 8s-.08.03-.11.14c-.04.14.03.22.06.24v.01l.05.07c.2.3.35.49.69 1.15.34.76.37.9.44 1.16l.04.18Zm.14 4.7c-.04-.07-.03-.22-.02-.27l.05-.16a8.68 8.68 0 0 0 .17-2.58l-.01-.1c-.01-.04-.04-.14.06-.24.09-.08.18-.07.18-.07l12.9-1.71s.25-.03.38.07c.12.08.16.2.17.28.41 3.82-.13 6.26-.49 7.84l-.03.13-.03.14c-.02.1-.06.25-.18.31-.2.12-.43.02-.43.02l-12.47-3.51s-.2-.08-.24-.15Zm-2.1 3.58c-.04.05-.11.17-.1.26 0 .08.13.24.13.24l9.06 9.33s.14.2.38.2c.14 0 .25-.1.32-.18l.18-.2a21.78 21.78 0 0 0 4.32-6.54.4.4 0 0 0 0-.33c-.08-.15-.3-.25-.3-.25L30.45 26.4s-.07-.05-.19-.03a.22.22 0 0 0-.17.18l-.04.08c-.15.33-.25.55-.64 1.18-.48.67-.58.77-.78.96l-.13.13Zm-3.92 2.5c.03-.08.16-.15.22-.16l.17-.05c.27-.07.4-.1 1.16-.45.65-.34.85-.48 1.14-.7l.07-.04c.03-.03.1-.1.24-.07.11.04.15.13.15.13l7.92 10.4s.15.21.13.37a.44.44 0 0 1-.16.3c-3.09 2.27-5.46 3-6.99 3.49l-.25.07c-.09.03-.24.08-.36 0a.5.5 0 0 1-.22-.36l-3.22-12.65s-.03-.2 0-.28Zm-4.5-.03c.07-.05.22-.04.27-.03l.16.05a8.62 8.62 0 0 0 2.56.17l.09-.01c.04-.01.15-.04.24.06.08.1.07.18.07.18l1.7 13s.02.26-.07.4a.42.42 0 0 1-.28.16 21.5 21.5 0 0 1-7.78-.5l-.16-.03-.1-.02c-.1-.02-.25-.06-.32-.18-.1-.21 0-.44 0-.44l3.48-12.57s.07-.2.14-.24Zm-3.78-2.25c.09 0 .2.07.25.11l.12.13c.2.2.29.3.96.8.62.4.84.5 1.16.64l.08.04c.04 0 .15.03.18.18a.23.23 0 0 1-.03.18l-4.97 12.13s-.1.23-.25.3a.4.4 0 0 1-.33 0 21.6 21.6 0 0 1-6.69-4.53c-.07-.07-.19-.19-.18-.32 0-.25.2-.39.2-.39l9.26-9.13s.15-.13.24-.14Zm-2.2-3.82c-.02-.06-.09-.19-.16-.22-.08-.04-.28 0-.28 0L1.1 28.31s-.24.02-.36.23c-.08.11-.03.27 0 .37l.07.24c.48 1.55 1.22 3.94 3.47 7.05.05.06.15.15.29.16.16.02.36-.13.36-.13l10.32-8s.09-.02.13-.13a.23.23 0 0 0-.06-.25l-.06-.07c-.2-.3-.35-.5-.68-1.16-.35-.76-.38-.9-.45-1.16l-.04-.17Zm-.08-4.5c.05.08.04.22.02.28l-.04.16c-.08.27-.12.4-.19 1.24-.04.74-.01.98.02 1.34l.01.09c.01.04.04.15-.06.25-.1.07-.18.06-.18.06L.7 25.94s-.25.02-.39-.07a.43.43 0 0 1-.16-.28 21.8 21.8 0 0 1 .49-7.84l.06-.27c.02-.1.06-.25.18-.32.2-.11.43-.01.43-.01l12.47 3.51s.2.08.24.15Zm2.05-3.59c.04-.04.11-.16.1-.24 0-.1-.13-.25-.13-.25L6.98 7.4s-.14-.2-.38-.2c-.14 0-.25.1-.32.18l-.17.19a21.17 21.17 0 0 0-4.32 6.55.4.4 0 0 0 0 .32c.07.15.3.26.3.26l12.01 5s.07.06.19.03c.14-.03.17-.15.18-.18l.03-.08a7.37 7.37 0 0 1 1.56-2.27Zm3.99-2.54c-.03.07-.14.12-.2.13l-.05.02a7.37 7.37 0 0 0-2.44 1.2l-.06.04c-.03.03-.11.11-.25.07-.11-.04-.14-.12-.14-.12L8.99 5.6s-.15-.2-.14-.37c.02-.14.1-.24.16-.29 3.1-2.27 5.46-3.01 7-3.5l.24-.07c.1-.03.25-.07.37 0 .2.13.22.37.22.37l3.23 12.65s.03.2 0 .28ZM56.5 27.33a5.1 5.1 0 0 0-3.17-1.04 5.53 5.53 0 0 0 0 11.05c1.13 0 2.25-.4 3.16-1.05V34.8a4.6 4.6 0 0 1-3.2 1.42A4.42 4.42 0 0 1 49 31.8a4.4 4.4 0 0 1 4.28-4.42c1.22 0 2.38.54 3.23 1.42v-1.48Z"/>
  <path fill="#000" fill-rule="evenodd" d="M64.52 30.5h-1.13v.94h-.02a2.85 2.85 0 0 0-2.27-1.13c-1.98 0-3.17 1.63-3.17 3.52 0 1.85 1.22 3.5 3.16 3.5.93 0 1.7-.36 2.28-1.1h.02v.92h1.13v-6.66Zm-3.29.86c1.4 0 2.22 1.07 2.22 2.4 0 1.35-.76 2.53-2.2 2.53-1.41 0-2.17-1.24-2.17-2.54 0-1.25.84-2.4 2.15-2.4Z" clip-rule="evenodd"/>
  <path fill="#000" d="M67.72 30.5H66.6v6.65h1.12v-3.16c0-1.2.1-2.64 1.65-2.64 1.3 0 1.4.97 1.4 2.04v3.76h1.11v-3.96c0-1.55-.42-2.89-2.24-2.89-.82 0-1.42.36-1.89 1h-.03v-.8Z"/>
  <path fill="#000" fill-rule="evenodd" d="M76.9 37.33a3.46 3.46 0 0 0 3.47-3.5 3.48 3.48 0 0 0-3.47-3.52 3.48 3.48 0 0 0-3.47 3.52c0 1.96 1.54 3.5 3.47 3.5Zm0-5.97c1.4 0 2.35 1.12 2.35 2.46 0 1.36-.96 2.47-2.35 2.47-1.4 0-2.35-1.1-2.35-2.47 0-1.35.96-2.46 2.35-2.46Z" clip-rule="evenodd"/>
  <path fill="#000" d="M83.01 25.47H81.9v11.68h1.12V25.47Zm3.32 6.07H88v-1.05h-1.67v-2.25c0-1.18 0-1.83.91-1.83.28 0 .5.07.76.16v-1.15a2.71 2.71 0 0 0-.8-.14c-.68 0-1.34.24-1.7.84-.3.48-.3 1.17-.3 1.72v2.65h-.61v1.05h.62v5.6h1.12v-5.6Z"/>
  <path fill="#000" fill-rule="evenodd" d="M94.97 30.5h-1.11v.94h-.03a2.85 2.85 0 0 0-2.26-1.13c-1.98 0-3.18 1.63-3.18 3.52 0 1.85 1.22 3.5 3.16 3.5.93 0 1.7-.36 2.28-1.1h.02v.92h1.13v-6.66Zm-3.28.86c1.4 0 2.22 1.07 2.22 2.4 0 1.35-.75 2.53-2.2 2.53-1.41 0-2.17-1.24-2.17-2.54 0-1.25.85-2.4 2.15-2.4Z" clip-rule="evenodd"/>
  <path fill="#000" d="M98.18 30.5h-1.11v6.65h1.12v-3.16c0-1.2.1-2.64 1.64-2.64 1.3 0 1.4.97 1.4 2.04v3.76h1.11v-3.96c0-1.55-.42-2.89-2.24-2.89-.82 0-1.42.36-1.89 1h-.03v-.8Zm12.57 6.03-2.14 4.36h1.28l4.88-10.4h-1.28l-2.14 4.78-2.33-4.77h-1.3l3.03 6.03Z"/>
  <path fill="#000" fill-rule="evenodd" d="M120.14 37.15h1.96c1.66 0 2.92-.22 4.2-1.35a5.17 5.17 0 0 0 1.72-3.98c0-1.59-.55-3.02-1.75-4.06-1.25-1.08-2.55-1.3-4.14-1.3h-2v10.69Zm1.17-1.1v-8.48h.86c1.25 0 2.32.17 3.3 1.04.9.8 1.37 1.98 1.37 3.2 0 1.2-.45 2.3-1.32 3.13-.97.92-2.05 1.1-3.35 1.1h-.86Zm14.09-1.99c.12-1.98-1-3.75-3.13-3.75-2.06 0-3.2 1.63-3.2 3.6 0 1.9 1.27 3.42 3.23 3.42 1.35 0 2.41-.68 3.05-1.86l-.96-.56c-.44.8-1.05 1.38-2 1.38-1.28 0-2.16-1-2.17-2.23h5.19Zm-5.12-.96a2.1 2.1 0 0 1 2-1.75c.99 0 1.79.78 1.95 1.75h-3.95Z" clip-rule="evenodd"/>
  <path fill="#000" d="M141.86 30.97a3.5 3.5 0 0 0-5.56 2.85 3.43 3.43 0 0 0 3.5 3.51c.8 0 1.45-.24 2.1-.68v-1.51h-.03c-.55.72-1.2 1.15-2.15 1.15-1.38 0-2.28-1.15-2.28-2.47 0-1.33.97-2.46 2.34-2.46.88 0 1.53.45 2.05 1.12h.03v-1.5Zm1.79-5.5v11.68h1.12v-3.16c0-1.2.1-2.64 1.64-2.64 1.3 0 1.4.97 1.4 2.04v3.76h1.12v-3.96c0-1.55-.42-2.89-2.25-2.89a2.2 2.2 0 0 0-1.88 1l-.03-.03v-5.8h-1.13Zm8.54 5.03h-1.13v6.65h1.13v-3.16c0-1.2.1-2.64 1.64-2.64 1.3 0 1.4.97 1.4 2.04v3.76h1.11v-3.96c0-1.55-.41-2.89-2.24-2.89a2.2 2.2 0 0 0-1.88 1h-.03v-.8Z"/>
  <path fill="#000" fill-rule="evenodd" d="M161.36 37.33a3.46 3.46 0 0 0 3.47-3.5 3.48 3.48 0 0 0-3.47-3.52 3.48 3.48 0 0 0-3.47 3.52c0 1.96 1.55 3.5 3.47 3.5Zm0-5.97c1.4 0 2.35 1.12 2.35 2.46 0 1.36-.96 2.47-2.35 2.47-1.4 0-2.35-1.1-2.35-2.47 0-1.35.96-2.46 2.35-2.46Z" clip-rule="evenodd"/>
  <path fill="#000" d="M167.47 25.47h-1.12v11.68h1.12V25.47Z"/>
  <path fill="#000" fill-rule="evenodd" d="M175.32 34.06c.1-1.98-1.02-3.75-3.14-3.75-2.06 0-3.2 1.63-3.2 3.6 0 1.9 1.26 3.42 3.23 3.42 1.35 0 2.41-.68 3.05-1.86l-.96-.56c-.44.8-1.05 1.38-2 1.38-1.29 0-2.16-1-2.17-2.23h5.19Zm-5.13-.96a2.1 2.1 0 0 1 2-1.75c.99 0 1.79.78 1.94 1.75h-3.94Zm11.51-2.6v.94h-.03a2.75 2.75 0 0 0-2.25-1.13c-1.95 0-3.19 1.67-3.19 3.54 0 1.85 1.22 3.48 3.15 3.48.88 0 1.75-.41 2.29-1.1h.02v.79c0 1.5-.38 2.8-2.12 2.8-1.2 0-2.1-.79-2.1-2.02h-1.13c.04 1.89 1.4 3.06 3.25 3.06a3.2 3.2 0 0 0 2.56-1.17c.67-.88.67-1.8.67-2.87V30.5h-1.12Zm-2.17.86c1.4 0 2.22 1.07 2.22 2.4 0 1.35-.75 2.53-2.2 2.53-1.41 0-2.17-1.24-2.17-2.54 0-1.25.84-2.4 2.15-2.4Zm15.92 2.76 1.25 3.03h1.31l-4.76-11.19-4.9 11.19h1.3l1.28-3.04h4.52Zm-.46-1.1h-3.59l1.82-4.28 1.77 4.27Z" clip-rule="evenodd"/>
  <path fill="#000" d="M200.28 30.5h-1.11v6.65h1.12V33.7c0-1 .14-2.35 1.46-2.35 1.08 0 1.18 1.2 1.18 2.01v3.79h1.12v-3.53c0-1 .15-2.26 1.44-2.26 1.15 0 1.2 1.06 1.2 1.92v3.87h1.13V33.1c0-1.4-.42-2.8-2.11-2.8-.8 0-1.6.38-1.99 1.11a2.02 2.02 0 0 0-1.82-1.1c-.68 0-1.24.35-1.6.9h-.02v-.72Z"/>
  <path fill="#000" fill-rule="evenodd" d="M214.8 30.5v.94h-.04a2.75 2.75 0 0 0-2.25-1.13c-1.95 0-3.19 1.67-3.19 3.54 0 1.85 1.22 3.48 3.15 3.48.88 0 1.75-.41 2.29-1.1h.03v.79c0 1.5-.38 2.8-2.12 2.8-1.21 0-2.1-.79-2.11-2.02h-1.12c.04 1.89 1.4 3.06 3.24 3.06a3.2 3.2 0 0 0 2.56-1.17c.68-.88.68-1.8.68-2.87V30.5h-1.13Zm-2.18.86c1.4 0 2.22 1.07 2.22 2.4 0 1.35-.75 2.53-2.2 2.53-1.41 0-2.17-1.24-2.17-2.54 0-1.25.85-2.4 2.15-2.4Zm11.23 2.7c.11-1.98-1.01-3.75-3.13-3.75-2.07 0-3.2 1.63-3.2 3.6 0 1.9 1.26 3.42 3.22 3.42 1.35 0 2.42-.68 3.05-1.86l-.95-.56c-.44.8-1.06 1.38-2.01 1.38-1.28 0-2.16-1-2.17-2.23h5.2Zm-5.13-.96a2.1 2.1 0 0 1 2.01-1.75c.98 0 1.78.78 1.94 1.75h-3.95Z" clip-rule="evenodd"/>
  <path fill="#000" d="M226.51 30.5h-1.11v6.65h1.12v-3.16c0-1.2.1-2.64 1.64-2.64 1.31 0 1.4.97 1.4 2.04v3.76h1.11v-3.96c0-1.55-.42-2.89-2.24-2.89-.82 0-1.42.36-1.89 1h-.03v-.8ZM53.33 9.29a5.1 5.1 0 0 1 3.16 1.04v1.48a4.52 4.52 0 0 0-3.22-1.42 4.4 4.4 0 0 0-4.28 4.42 4.42 4.42 0 0 0 4.3 4.42 4.6 4.6 0 0 0 3.2-1.42v1.48a5.44 5.44 0 0 1-3.16 1.04 5.53 5.53 0 0 1 0-11.04Z"/>
  <path fill="#000" fill-rule="evenodd" d="M61.1 13.3c2.12 0 3.25 1.78 3.13 3.76h-5.18c.01 1.24.89 2.23 2.16 2.23.96 0 1.57-.58 2.01-1.38l.96.56a3.34 3.34 0 0 1-3.05 1.86c-1.97 0-3.23-1.51-3.23-3.43 0-1.96 1.14-3.6 3.2-3.6Zm.01 1.06a2.1 2.1 0 0 0-2 1.74h3.94a2.02 2.02 0 0 0-1.94-1.74Z" clip-rule="evenodd"/>
  <path fill="#000" d="M65.78 13.5h1.12v.8h.03a2.21 2.21 0 0 1 1.89-1c1.82 0 2.24 1.33 2.24 2.89v3.95h-1.12V16.4c0-1.07-.08-2.04-1.4-2.04-1.54 0-1.64 1.45-1.64 2.64v3.16h-1.12V13.5Zm9.78 1.04h-1.18v5.61h-1.12v-5.61h-.69v-1.05h.69v-2.4h1.12v2.4h1.18v1.05Zm.96-1.04h1.12v.7h.03c.39-.51.73-.9 1.46-.9a2 2 0 0 1 1.01.31l-.53 1.04a7.3 7.3 0 0 1-.08-.06c-.19-.13-.34-.24-.6-.24-1.23 0-1.3 1.6-1.3 2.47v3.33h-1.11v-6.66Z"/>
  <path fill="#000" fill-rule="evenodd" d="M83.9 13.3c2.11 0 3.24 1.78 3.13 3.76h-5.2c.02 1.24.9 2.23 2.17 2.23.96 0 1.57-.58 2.01-1.38l.96.56a3.33 3.33 0 0 1-3.05 1.86c-1.97 0-3.23-1.51-3.23-3.43 0-1.96 1.14-3.6 3.2-3.6Zm0 1.06a2.1 2.1 0 0 0-2 1.74h3.95a2.02 2.02 0 0 0-1.94-1.74Z" clip-rule="evenodd"/>
  <path fill="#000" d="M95.8 14.54h-1.68v5.61H93v-5.61h-.62v-1.05H93v-2.65c0-.55 0-1.24.3-1.72.36-.6 1.02-.84 1.7-.84.26 0 .52.06.8.14v1.15a2.2 2.2 0 0 0-.76-.16c-.92 0-.92.65-.92 1.83v2.25h1.67v1.05Z"/>
  <path fill="#000" fill-rule="evenodd" d="M103.1 16.83a3.47 3.47 0 1 1-6.94 0 3.48 3.48 0 1 1 6.94 0Zm-1.12 0c0-1.35-.96-2.47-2.35-2.47-1.39 0-2.34 1.12-2.34 2.46 0 1.36.95 2.47 2.34 2.47 1.4 0 2.35-1.1 2.35-2.47Z" clip-rule="evenodd"/>
  <path fill="#000" d="M104.6 13.5h1.12v.7h.02c.4-.51.74-.9 1.47-.9a2 2 0 0 1 1.01.31l-.53 1.04a5.25 5.25 0 0 1-.08-.06c-.19-.13-.34-.24-.6-.24-1.23 0-1.3 1.6-1.3 2.47v3.33h-1.11v-6.66Z"/>
  <path fill="#000" fill-rule="evenodd" d="m121.05 20.15-1.25-3.03h-4.52L114 20.15h-1.3l4.9-11.19 4.76 11.2h-1.31Zm-5.3-4.14h3.58l-1.77-4.27-1.81 4.27Z" clip-rule="evenodd"/>
  <path fill="#000" d="M123.48 8.47h1.12v11.68h-1.12V8.47Zm5.58 6.07h-1.18v5.61h-1.13v-5.61h-.68v-1.05h.69v-2.4h1.12v2.4h1.18v1.05Z"/>
  <path fill="#000" fill-rule="evenodd" d="M132.68 13.3c2.12 0 3.25 1.78 3.13 3.76h-5.18c.01 1.24.89 2.23 2.16 2.23.96 0 1.57-.58 2.01-1.38l.96.56a3.34 3.34 0 0 1-3.05 1.86c-1.97 0-3.23-1.51-3.23-3.43 0-1.96 1.14-3.6 3.2-3.6Zm.01 1.06a2.1 2.1 0 0 0-2 1.74h3.94a2.03 2.03 0 0 0-1.94-1.74Z" clip-rule="evenodd"/>
  <path fill="#000" d="M137.3 13.5h1.12v.7h.04c.39-.51.73-.9 1.46-.9a2 2 0 0 1 1.01.31l-.53 1.04-.08-.06c-.19-.13-.34-.24-.6-.24-1.23 0-1.3 1.6-1.3 2.47v3.33h-1.11v-6.66Zm4.88 0h1.13v.8h.02a2.21 2.21 0 0 1 1.89-1c1.82 0 2.24 1.33 2.24 2.89v3.95h-1.12V16.4c0-1.07-.09-2.04-1.4-2.04-1.54 0-1.64 1.45-1.64 2.64v3.16h-1.12V13.5Z"/>
  <path fill="#000" fill-rule="evenodd" d="M154.5 13.5h1.13v6.65h-1.13v-.92h-.03a2.77 2.77 0 0 1-2.27 1.1c-1.94 0-3.16-1.65-3.16-3.5 0-1.9 1.19-3.52 3.17-3.52.9 0 1.72.42 2.26 1.13h.03v-.95Zm.06 3.26c0-1.33-.83-2.4-2.22-2.4-1.31 0-2.15 1.14-2.15 2.4 0 1.3.76 2.53 2.16 2.53 1.45 0 2.21-1.18 2.21-2.53Z" clip-rule="evenodd"/>
  <path fill="#000" d="M160.07 14.54h-1.19v5.61h-1.12v-5.61h-.68v-1.05h.68v-2.4h1.13v2.4h1.18v1.05Zm1.23-1.04h1.11v6.65h-1.12v-6.66Zm-.25-2.51c0-.44.36-.8.8-.8a.8.8 0 1 1-.8.8Zm2.65 2.51h1.28l1.97 4.47 1.97-4.48h1.26l-3.23 7.1-3.24-7.1Z"/>
  <path fill="#000" fill-rule="evenodd" d="M173.88 13.3c2.12 0 3.25 1.78 3.13 3.76h-5.18c.01 1.24.88 2.23 2.16 2.23.96 0 1.57-.58 2.01-1.38l.96.56a3.34 3.34 0 0 1-3.06 1.86c-1.96 0-3.22-1.51-3.22-3.43 0-1.96 1.13-3.6 3.2-3.6Zm.01 1.06a2.1 2.1 0 0 0-2 1.74h3.94a2.02 2.02 0 0 0-1.94-1.74Z" clip-rule="evenodd"/>
  <path fill="#000" d="M188.28 10.57h-2.58v9.58h-1.18v-9.58h-2.56v-1.1h6.32v1.1Z"/>
  <path fill="#000" fill-rule="evenodd" d="M190.7 13.3c2.12 0 3.25 1.78 3.13 3.76h-5.18c.01 1.24.88 2.23 2.16 2.23.96 0 1.57-.58 2.01-1.38l.96.56a3.34 3.34 0 0 1-3.05 1.86c-1.97 0-3.23-1.51-3.23-3.43 0-1.96 1.13-3.6 3.2-3.6Zm.01 1.06a2.1 2.1 0 0 0-2 1.74h3.94a2.03 2.03 0 0 0-1.94-1.74Z" clip-rule="evenodd"/>
  <path fill="#000" d="M198.24 13.3c.72 0 1.45.25 2.04.67v1.5h-.03c-.52-.66-1.16-1.11-2.05-1.11-1.36 0-2.33 1.13-2.33 2.46 0 1.32.9 2.47 2.28 2.47.94 0 1.6-.43 2.15-1.15h.03v1.51a3.6 3.6 0 0 1-2.1.68c-2 0-3.5-1.5-3.5-3.5a3.5 3.5 0 0 1 3.51-3.52Zm3.83 6.85V8.47h1.12v5.8l.03.03a2.21 2.21 0 0 1 1.88-1c1.83 0 2.25 1.34 2.25 2.9v3.95h-1.12v-3.76c0-1.07-.09-2.03-1.4-2.03-1.54 0-1.64 1.44-1.64 2.63v3.16h-1.12Zm7.42-6.65h1.13v.8h.02a2.21 2.21 0 0 1 1.88-1c1.83 0 2.25 1.33 2.25 2.89v3.95h-1.12V16.4c0-1.07-.09-2.04-1.4-2.04-1.54 0-1.64 1.45-1.64 2.64v3.16h-1.12V13.5Z"/>
  <path fill="#000" fill-rule="evenodd" d="M223.26 16.83a3.47 3.47 0 1 1-6.94 0 3.48 3.48 0 0 1 3.47-3.52 3.48 3.48 0 0 1 3.47 3.52Zm-1.13 0c0-1.35-.95-2.47-2.34-2.47-1.4 0-2.35 1.12-2.35 2.46 0 1.36.96 2.47 2.35 2.47 1.39 0 2.34-1.1 2.34-2.47Z" clip-rule="evenodd"/>
  <path fill="#000" d="M224.78 8.47h1.12v11.68h-1.12V8.47Z"/>
  <path fill="#000" fill-rule="evenodd" d="M234.35 16.83a3.46 3.46 0 1 1-6.94 0 3.48 3.48 0 1 1 6.94 0Zm-1.13 0c0-1.35-.95-2.47-2.34-2.47-1.4 0-2.35 1.12-2.35 2.46 0 1.36.95 2.47 2.35 2.47 1.39 0 2.34-1.1 2.34-2.47Zm7.51-3.33h1.12v6.32c0 1.07 0 1.99-.67 2.87a3.2 3.2 0 0 1-2.56 1.17c-1.84 0-3.2-1.17-3.25-3.06h1.13c0 1.23.9 2.01 2.1 2.01 1.74 0 2.12-1.29 2.12-2.79v-.8h-.02a2.9 2.9 0 0 1-2.3 1.11c-1.92 0-3.14-1.63-3.14-3.48 0-1.87 1.24-3.54 3.2-3.54.91 0 1.71.4 2.24 1.13h.03v-.95Zm.06 3.26c0-1.33-.83-2.4-2.23-2.4-1.3 0-2.15 1.14-2.15 2.4 0 1.3.76 2.53 2.17 2.53 1.45 0 2.2-1.18 2.2-2.53Z" clip-rule="evenodd"/>
  <path fill="#000" d="m243.85 23.89 2.13-4.36-3.03-6.03h1.3l2.34 4.77 2.13-4.77H250l-4.87 10.39h-1.28Z"/>
</svg>
