<svg xmlns="http://www.w3.org/2000/svg" fill="none" viewBox="0 0 99 28">
  <path fill="#000" fill-rule="evenodd" d="m20.28.04-.58 2.63c-2.13 9.82-3.39 16.12-3.85 19.27a4.51 4.51 0 0 0 .23 2.52c.73 1.91 2.74 3.26 5.08 3.41.46.03 1.48 0 1.53-.05l-.13-1.56-.15-1.55-.12.01c-.43.05-1.16.02-1.43-.05-.99-.25-1.73-.95-1.8-1.7-.07-.8 1.6-9.23 4-20.26L23.5.63c0-.04-.53-.15-1.47-.33l-1.6-.3c-.08 0-.14 0-.15.04Zm41.48 6-.57 2.7-.52 2.5h-2l-.22 1.11-.25 1.24-.02.12h.98a4 4 0 0 1 .98.05l-.37 1.91a80.15 80.15 0 0 0-1.2 6.94 4.3 4.3 0 0 0 .52 2.35 5.73 5.73 0 0 0 4.27 2.85c.45.07 1.73.1 1.92.04.07-.02.09-.05.07-.14l-.14-1.45a38.9 38.9 0 0 0-.14-1.43c-.02-.1-.03-.1-.38-.08a3.18 3.18 0 0 1-1.93-.46c-.56-.36-.86-.81-.9-1.35-.03-.5.52-3.6 1.47-8.32l.18-.89h1.34l1.35-.02.03-.1a81.82 81.82 0 0 0 .47-2.3c.03-.07-.06-.08-1.32-.08-.74 0-1.35-.01-1.35-.03a304.17 304.17 0 0 1 1-4.78l-3.19-.59c-.01 0-.05.1-.08.21Zm-54.05 4.7a8.48 8.48 0 0 0-5.96 4.09C.9 16.33.5 17.83.5 19.66c0 1.63.3 2.96.98 4.25a7.16 7.16 0 0 0 5.16 3.86c.63.12 1.71.1 2.38-.02a8.4 8.4 0 0 0 4.5-2.48l.2-.22-1.22-1.04-1.21-1.04-.4.35c-.51.47-.94.76-1.51 1.02-.62.28-1 .37-1.6.37a3.4 3.4 0 0 1-2.44-1c-.37-.35-.65-.7-.9-1.17a6.66 6.66 0 0 1 .04-5.89 5.86 5.86 0 0 1 1.84-2.06 4.56 4.56 0 0 1 2.08-.75c.6 0 1.32.3 1.72.72.3.32.46.62.56 1.11l.08.39h.17c.26 0 2.89-.14 3-.16.09-.02.1-.03.06-.36a5.55 5.55 0 0 0-1.03-2.66 6.1 6.1 0 0 0-1.36-1.26 6.17 6.17 0 0 0-3.89-.87Zm43.73.23a5.6 5.6 0 0 0-3.63 1.98c-.5.6-.86.83-1.55.97-.32.06-.95.06-1.3-.02l-.12-.02.02-.45c.05-.73-.16-1.28-.62-1.67a3.16 3.16 0 0 0-2.38-.52 2.32 2.32 0 0 0-1.85 2.6c.09.55.23.87.57 1.32.12.15.22.3.22.32 0 .17-2.83 5.95-2.83 5.79l-.65-3.65c-.5-2.76-.67-3.66-.76-3.84a1.7 1.7 0 0 0-.77-.73c-.22-.1-.32-.11-.72-.11-.44 0-.48 0-.76.15-.16.08-.36.22-.44.31-.08.1-1.22 1.9-2.53 4-1.31 2.11-2.4 3.82-2.4 3.8a721.29 721.29 0 0 1-.73-8.67l-1.6.3c-1.57.28-1.6.29-1.61.4-.02.16 1.1 13.37 1.14 13.52.12.4.51.83.92 1 .63.26 1.41.1 1.87-.39.09-.1 1.3-2.02 2.71-4.27 1.4-2.26 2.56-4.1 2.58-4.07.01.01.33 1.74.7 3.83.75 4.16.73 4.08 1.11 4.45.11.1.31.24.46.3.22.1.3.12.7.12.4 0 .46-.01.74-.14.19-.1.38-.22.48-.33.2-.23.82-1.35 2.38-4.33a99.16 99.16 0 0 0 3-6.05l.4.08c.78.16 2.06.18 2.73.04.19-.04.2-.04.24.1.15.4.56 1.03.95 1.45.44.47.83.77 1.9 1.45.55.36 1.16.76 1.34.9.7.55 1.21 1.28 1.32 1.86.17.9-.6 1.87-1.66 2.07-1.1.22-2.25-.51-2.95-1.9a1.16 1.16 0 0 0-.17-.27l-1.49.64c-1.35.59-1.45.64-1.44.74a6.61 6.61 0 0 0 4.26 3.8 5.64 5.64 0 0 0 5.24-1.35c.74-.7 1.24-1.6 1.43-2.54.1-.48.1-1.39 0-1.86a5.65 5.65 0 0 0-1.69-2.94c-.62-.61-1.05-.94-2.25-1.7-1.37-.85-1.73-1.23-1.78-1.83-.01-.2 0-.3.09-.46.15-.3.51-.65.82-.81 1.03-.52 2.18-.25 3.12.73l.32.34 1.28-.92c.7-.51 1.3-.94 1.3-.96a6.33 6.33 0 0 0-3.85-2.5 7.51 7.51 0 0 0-1.8-.06Zm42.78.07c-.65.08-1.44.3-1.96.55-.67.33-1.11.65-1.89 1.41-.46.45-.64.6-.88.7-.54.25-1.1.32-1.77.23l-.34-.05.04-.35c.08-.65-.13-1.3-.55-1.7a2.9 2.9 0 0 0-1.88-.64c-1.1 0-1.98.57-2.32 1.54-.15.4-.16 1.14-.02 1.51.12.36.32.7.53.97l.2.23-.12.28a61.85 61.85 0 0 1-2.73 5.47c-.02-.03-.31-1.66-.66-3.6-.7-3.97-.7-3.9-1.12-4.28-.36-.3-.67-.4-1.18-.39-.5.03-.83.17-1.12.48-.11.12-1.26 1.93-2.56 4.02l-2.37 3.8-.03-.2c-.02-.11-.18-2.05-.37-4.3a121 121 0 0 0-.37-4.13c-.03-.03-3.2.52-3.22.56l.56 6.76c.4 4.82.6 6.8.64 6.94.16.4.46.72.9.9.17.08.31.1.64.1.38 0 .45-.01.73-.14.19-.1.38-.22.48-.34.1-.1 1.33-2.04 2.73-4.3 1.4-2.25 2.55-4.08 2.56-4.07.01 0 .33 1.74.7 3.85.54 2.95.72 3.88.8 4.04.15.28.46.57.78.71.23.1.32.12.7.12.4 0 .47-.01.7-.12.42-.2.61-.42 1.08-1.26.67-1.22 2.76-5.18 3.3-6.28a113 113 0 0 0 1.47-3.13c.03-.06.06-.06.3-.01.48.1.95.16 1.49.16.28 0 .52.01.52.02l-.37 1.68c-.77 3.52-1.9 8.93-1.9 9.1 0 .08.1.08 1.66.08h1.67l.03-.18c.13-.78 1.7-8.15 2.27-10.62.28-1.27.56-1.81 1.2-2.36a2.64 2.64 0 0 1 2.3-.58c.62.12 1.53.53 2.12.96.17.12.26.15.27.12.06-.17.66-3.25.64-3.29a8.59 8.59 0 0 0-1.44-.62 6.68 6.68 0 0 0-2.05-.36h-.79Z" clip-rule="evenodd"/>
</svg>
