<svg xmlns="http://www.w3.org/2000/svg" fill="none" viewBox="0 0 205 48">
  <path fill="#000" fill-rule="evenodd" d="M41.65.98C35.88 2.94 31.06 6.77 27.39 12.3a50 50 0 0 0-4.24 8.2c-.48 1.3-1.07 2.23-1.4 2.23-.08 0 .1-.66.4-1.47 1.07-2.94 1.67-7.24 1-7.24a4.6 4.6 0 0 0-1.9.97c-.2.23-2.45 6.48-3.65 10.11-.66 1.98-.71 3.86-.14 4.97.78 1.53 1.95 1.84 5.4 1.45 2.5-.29 3.94-.58 6.32-1.3l1.55-.48-.12-1.02a4.36 4.36 0 0 0-1.53-3 5.5 5.5 0 0 0-2.8-1.13c-.25 0-.4-.09-.33-.19.15-.24 1.32-.24 2.5.01.87.2 1 .17 2.12-.38a4.54 4.54 0 0 1 2.47-.6c.76 0 1.57.12 2.02.3l.75.31.76-.72a6.16 6.16 0 0 1 6.22-1.38l1.04.35.31-1.12c.18-.62.52-1.47.77-1.9a5.88 5.88 0 0 1 4.72-2.66c.51 0 .93-.04.93-.1a4 4 0 0 0-.5-.65c-.77-.85-1.36-2.03-1.36-2.73 0-1.17.97-2.36 2.33-2.84.35-.13.65-.3.65-.36 0-.07-.38-.27-.84-.44-1-.38-1.64-1.1-1.47-1.66.2-.69 1.25-1.6 2.56-2.26.7-.35 1.41-.64 1.57-.64.15 0 .23-.04.18-.1-.16-.16-5.38.79-7.67 1.4-7.99 2.12-14.11 5.62-18.03 10.32-1.45 1.74-1.52 1.75-.39.06 3.2-4.78 8.3-8.47 14.24-10.31l2.42-.76c.15-.05-.19-.2-.75-.31-1.24-.27-1.76-.54-2.14-1.12-.26-.4-.26-.5 0-1.15.17-.4.7-1.11 1.17-1.6.48-.48.79-.87.69-.87-.1 0-.8.22-1.57.48ZM22.98 7.15c-.15.69-.82 1.25-1.81 1.51-.8.22-1.63.91-1.63 1.37 0 .22.2.29.79.29 1.23 0 2.2-.35 2.9-1.04.57-.57.62-.72.53-1.4a2.23 2.23 0 0 0-.38-1.03c-.24-.25-.29-.21-.4.3Zm45.4-.19a7 7 0 0 0-4.3 3.86c-.35.75-.42 1.22-.42 2.93 0 1.94.03 2.11.6 3.28a6.87 6.87 0 0 0 3.54 3.33 8 8 0 0 0 5.43-.06 8.53 8.53 0 0 0 1.71-1.06l.68-.6-.56-.91-.57-.92-1.02.73c-3.97 2.84-8.62-.65-7.23-5.42a4.33 4.33 0 0 1 5.82-2.91c.53.22 1.06.53 1.18.67.12.14.28.26.36.26.14 0 1.3-1.7 1.3-1.9 0-.25-1.6-1.1-2.55-1.35a6.96 6.96 0 0 0-3.97.07Zm60.76-.1a6.96 6.96 0 0 0-5.2 6.98c0 2.94 1.66 5.5 4.24 6.52.81.32 1.42.41 2.72.4 1.79 0 2.81-.29 4.46-1.25l.84-.5v-6.09h-5.95v2.04h3.53v2.77l-.79.4a4.69 4.69 0 0 1-4.2-.12c-3.14-1.7-3.25-6.73-.17-8.5a4.76 4.76 0 0 1 5.07.17c.59.35 1.08.64 1.1.64.03 0 .32-.38.65-.84.59-.82.6-.86.28-1.21a6.7 6.7 0 0 0-1.5-.94 5.53 5.53 0 0 0-2.7-.64 8.52 8.52 0 0 0-2.38.18Zm38.63 1.08c0 1.07.01 1.08.53 1.08.86 0 2.77 1.06 3.29 1.82.62.91.58 1.24-.07.6-1.3-1.3-3.61-1.2-5.14.2-2.18 2-2.23 6.1-.08 8.03a4.99 4.99 0 0 0 4.69.95 4.5 4.5 0 0 0 2.77-2.48c.53-1.08.61-1.43.67-3.1.17-4.57-1.78-7.33-5.68-8.02l-.98-.17v1.09Zm8.35-.8c-.3.25-.43.55-.43 1.02 0 .91.5 1.42 1.4 1.42.92 0 1.46-.51 1.46-1.4 0-1.23-1.43-1.85-2.43-1.03Zm25.72-.08c-.2.54.03 12.6.26 13.13.2.48.29.51 1.36.51 1 0 1.12-.03 1-.32-.32-.8-.45-3.13-.46-8.16V6.8h-1.03c-.72 0-1.06.08-1.13.26Zm-176.55.69a5.39 5.39 0 0 1-2.92 2.95c-.9.33-1.29.38-2.46.28l-2.63-.22c-1.6-.14-2.44.13-2.95.96-.63 1.03-1.01 1.2-2.68 1.2-1.58 0-2.47.33-2.86 1.06-.16.31-.13.34.34.28.34-.06.76.08 1.24.39.7.46.74.47 2.02.22l1.3-.25.78.76c.44.41.75.8.7.84a12.7 12.7 0 0 1-3.28 1.15c-.38 0-.53.07-.47.23l.6 1.5.52 1.28.27-.54c.75-1.46 2.62-2.38 3.89-1.9l.5.18-.57.34a5.54 5.54 0 0 0-1.94 2.39c-.26.79-.15.88.57.5a6.07 6.07 0 0 1 1.62-.42l1.05-.13.97-2.91.97-2.9-.4-.35c-.21-.2-.86-.7-1.42-1.1-.96-.71-1.1-.76-2.05-.69l-1.01.08 1.18-.56 1.17-.56 1.49 1.13 1.49 1.13.86-.47c.48-.25 1.5-.65 2.26-.88a6.4 6.4 0 0 0 1.83-.8 3.86 3.86 0 0 0 1.17-2.8c0-.94-.42-2.14-.75-2.14-.08 0-.26.35-.4.77Zm18.53 2.59c-2.26.4-5.32 1.37-7.33 2.32-1.17.56-4.69 2.76-4.69 2.94 0 .03.67-.22 1.5-.57a14.93 14.93 0 0 1 5.42-1.3c1.5-.1 4.77.1 6.83.4.47.08.57.06.36-.08-.5-.32-3.93-.94-5.91-1.07-1.13-.07-1.83-.19-1.73-.29.28-.28 4.1-1.56 6.25-2.1 3.09-.76 2.77-.87-.7-.25Zm46 .51c-.42.2-.97.63-1.2.96l-.44.59-.1-.8-.09-.82-1.07-.02-1.06-.02v9.99l1.06-.06L88 20.6l.1-3.15c.1-3.26.22-3.82.92-4.45.6-.54 1.9-.5 2.46.05.4.4.43.59.52 3.99l.09 3.56 1.04.05 1.05.06.08-3.11c.07-2.5.15-3.26.42-3.82.54-1.12 1.78-1.57 2.66-.96.78.55.87.97.97 4.44l.1 3.34 1.06.06 1.07.05v-3.4c0-4.83-.46-6.1-2.42-6.63a3.2 3.2 0 0 0-3.35.86l-.9.84-.27-.54c-.62-1.2-2.37-1.65-3.77-1Zm16 0c-.42.2-.94.59-1.16.88l-.4.54v-.8l-.02-.8-1.06.06-1.07.05v9.83l1.05.05 1.05.06.07-3.02c.06-2.66.12-3.12.47-3.79.65-1.21 2.23-1.7 3.16-.96.16.13.34-.07.67-.75l.45-.94-.47-.3a3 3 0 0 0-2.75-.11Zm36.2-.14c-.32.1-.84.46-1.15.81l-.57.64-.05-.69-.06-.69-1.07-.05-1.07-.06v10.05l1.07-.05 1.07-.06.1-3.06c.1-3.5.3-4.09 1.56-4.71.68-.33.79-.34 1.51-.08l.78.28.4-.8c.2-.45.39-.89.39-.98 0-.22-1.4-.76-1.91-.74-.23.01-.68.1-1 .19Zm6.12.06c-2.36.74-3.78 3.42-3.22 6.1a4.65 4.65 0 0 0 2.5 3.36c2 1.02 4.72.66 6.1-.79l.48-.5-.63-.74-.62-.73-.43.39c-1.14 1.04-2.65 1.28-3.86.6-.74-.42-1.3-1.2-1.3-1.82 0-.38.07-.39 3.43-.39h3.44V15c0-3.24-2.74-5.2-5.9-4.22Zm10.44-.18c-.1.04-.42.12-.7.18a4.35 4.35 0 0 0-2.1 1.8c-.28.54-.27.55.33.8 1.24.5 1.41.51 1.54.11.18-.57 1-1.12 1.69-1.12.72 0 1.5.61 1.66 1.3.1.48.1.49-1.5.7-.88.12-2.04.41-2.58.66-.8.37-1.05.6-1.4 1.32a3.12 3.12 0 0 0 5.15 3.42l.34-.54.32.71c.31.71.33.72 1.43.75.61.02 1.11.01 1.11-.02l-.27-.8c-.19-.5-.27-1.62-.29-3.6-.03-3.58-.28-4.35-1.69-5.18-.6-.36-2.58-.68-3.04-.5Zm23.98.19c-1.58.56-2.71 2.22-2.85 4.2-.22 2.97 1.55 5.15 4.19 5.16 1.1 0 1.97-.36 2.58-1.08l.41-.49.01 1.03c.01 2.2-1.39 3.5-3.18 2.97a2.57 2.57 0 0 1-1.58-1.2c-.15-.26-.25-.26-1.09.06-1.06.41-1.14.78-.37 1.79.76.99 1.98 1.47 3.72 1.46 2.23-.02 3.34-.7 4.22-2.59.4-.88.43-1.15.48-6.17l.06-5.25-1.08.06c-1.08.05-1.08.06-1.14.68l-.06.63-.59-.56a3.48 3.48 0 0 0-3.72-.7ZM194 10.7c-.74.22-1.84.9-2.3 1.4-.17.2-.47.73-.67 1.18-1.18 2.68-.3 5.7 2.02 6.94 2 1.08 4.83.6 6.22-1.05 2.08-2.45 1.3-6.77-1.46-8.1a6.84 6.84 0 0 0-3.8-.37Zm-118.5.14c-.17.11.2 1.32 1.57 5.05 1 2.69 1.8 5.16 1.8 5.49.01.91-.54 1.4-1.5 1.32l-.8-.06v.96c0 .96.01.97.67 1.1 1.36.25 2.5-.22 3.14-1.27.3-.5 4.2-11.85 4.25-12.37.02-.2-.22-.28-.93-.3a3.47 3.47 0 0 0-1.16.1c-.11.07-.68 1.64-1.26 3.5s-1.11 3.31-1.18 3.23c-.07-.08-.65-1.66-1.29-3.53l-1.16-3.38h-.96a3.5 3.5 0 0 0-1.18.16Zm34.45-.03c-.2.2-.14 5.65.07 6.75.1.54.34 1.28.52 1.64 1 1.92 3.88 2.2 5.47.54.43-.46.72-.64.76-.5.38 1.4.33 1.36 1.5 1.42l1.08.05-.14-.52c-.07-.28-.17-2.54-.22-5.02l-.1-4.5-1.08.05-1.08.04-.06 3.07c-.05 2.67-.11 3.14-.44 3.71-.48.83-1.55 1.38-2.39 1.22-1.4-.26-1.78-1.44-1.78-5.5v-2.58h-1c-.54 0-1.04.06-1.1.13Zm66.08.13a82.1 82.1 0 0 0-.03 4.94l.05 4.72h2.22v-9.83l-1.08-.02c-.66-.01-1.12.06-1.17.19Zm-27.5 1.78c-.45.18-1.18 1.05-1.18 1.42 0 .2.48.25 2.31.25h2.32l-.2-.57c-.37-1.05-2-1.6-3.24-1.1Zm20.54 0c-.87.24-1.28.56-1.66 1.3-.74 1.44-.26 3.74.9 4.34a3.4 3.4 0 0 0 2.53.08c1.31-.6 1.8-3.27.84-4.66a2.8 2.8 0 0 0-.74-.8 3.34 3.34 0 0 0-1.87-.25Zm13.78.48c-1.32 1.1-1.12 3.86.35 4.62 1.25.64 2.94.1 3.45-1.11.56-1.33.24-2.8-.78-3.6-.74-.59-2.27-.54-3.02.09Zm11.2-.13c-.75.46-1.19 1.43-1.19 2.62 0 1.88.97 2.96 2.67 2.96 1.59 0 2.53-1.1 2.53-2.95 0-1.25-.4-2.14-1.15-2.6a3.05 3.05 0 0 0-2.86-.03ZM4.4 13.64c-.4.07-1 .27-1.3.44l-.56.3.8.01c.9.01 1.97.5 2.62 1.2.4.42.47.44.67.17.2-.27.33-.24 1.4.27 2.14 1.02 4.12 1.02 4.84.02.22-.3.36-.6.3-.65-.04-.04-.52.01-1.05.13a7.07 7.07 0 0 1-4.03-.59c-.67-.28-.81-.42-.72-.71.06-.2.04-.4-.04-.44a8.91 8.91 0 0 0-2.93-.15Zm51.73.37c-1.26.4-2.62 1.1-3.7 1.88l-.82.6.5.36c.6.43.62.71.12 1.16-.47.43-.46.6.05 1.03.41.33.43.33 1-.22l.58-.56.55.6.56.59.3-.88a7 7 0 0 1 3.77-4.3c.55-.25 1-.49 1-.53 0-.23-3-.02-3.9.27Zm103.23 2.07c-1.58.26-2.3 1.1-1.83 2.13.37.82 2 .9 2.84.15.36-.32.71-1.35.72-2.06 0-.46-.18-.49-1.73-.22Zm-127.19 1c-2.07.57-4.43 2.33-5.36 4l-.43.75.9-.55c1.84-1.12 3.35-1.17 5.73-.2l1.3.54-.67-.62a5.96 5.96 0 0 0-3.05-1.32l-.74-.12.46-.38a8.97 8.97 0 0 1 3.46-1.46c1.91-.36 4.66.16 6.52 1.24 1 .57 1.18.57.5-.03a12.53 12.53 0 0 0-4.12-1.92 12.1 12.1 0 0 0-4.5.06Zm-28.04.8c0 .07.13.3.28.5.3.4.33.64.1 1-.13.2-.3.12-.76-.41-.51-.58-.7-.68-1.39-.68a2 2 0 0 0-1.28.39c-.62.48-.62.7-.02.58 1.04-.2 1.61 1.22.82 2.01-.29.3-.52.36-.89.27L.5 21.4l.45.48c.24.26.71.52 1.03.59.47.08.64.25.83.76.13.36.54.96.92 1.33.6.59.67.76.58 1.32-.06.36-.04.94.03 1.3.2.9.19 2.11-.03 2.68-.1.26-.13.47-.07.47.37 0 1.36-.83 1.66-1.4.31-.58.43-.65.88-.56 1.32.26 2.5 1.8 2.67 3.5.12 1.13-.17 1.88-1.11 2.87l-.58.6h.57c.3 0 .97-.2 1.47-.46.9-.46.9-.46 1.3-.1.64.61.82.47.82-.62 0-.68-.15-1.33-.47-2.02a8.96 8.96 0 0 1-.64-4.24l.1-.85-.98-.52a9.17 9.17 0 0 1-3.47-3.47c-.42-.87-.5-1.23-.46-2.5.03-1.71-.17-2.2-1.05-2.57-.72-.3-.83-.32-.82-.12Zm43.39.6a3.32 3.32 0 0 0-2.16 2.9c0 1.94 2.18 3.12 3.85 2.1.65-.39.74-.7.4-1.35-.3-.56-.27-.55-.71-.32-.56.3-1.12.07-1.12-.46 0-.47.53-.76 1.2-.67 1.03.15 1.74 1.76 1.37 3.1-.28 1-1.52 2.2-2.58 2.48-1.11.3-2.1.14-4.04-.67-2.34-.97-3.25-1.18-5.29-1.18-1.65 0-2.14.14-1.62.47.32.2.98 1.61 1.2 2.59l.22.92 1.42.24c2.63.44 4.57 1.5 5.9 3.26.74.98.7.99 2.92-.09 1.8-.87 3.62-2.46 4.36-3.83a8.72 8.72 0 0 0 .98-4.35c-.48-3.68-3.35-6.02-6.3-5.14Zm-32.03 3.87a4.87 4.87 0 0 0-2.67 2.31c-.44.86-.34 1.04.31.52a6.6 6.6 0 0 1 2.97-1c.7-.05.75-.1 1.06-.98.19-.5.34-.98.34-1.06 0-.24-1-.14-2.01.21Zm18.1 2.38c-.06.1.05.33.24.5a6.6 6.6 0 0 1 1.23 2.75c.11.63.18.7.7.7.95-.01 1.43-.2 1.43-.58 0-.67-.76-2.33-1.29-2.84-.57-.54-2.08-.89-2.3-.53Zm-3.18.42c-.07.1.09.46.34.79.46.6.75 1.46.96 2.78.12.77.17.79 1.48.45.83-.22.93-.3.88-.7a5.51 5.51 0 0 0-1.27-2.87c-.54-.53-.77-.63-1.46-.63-.45 0-.87.08-.93.18Zm-15.82.53c-1.18.4-2.25 1.2-2.5 1.85-.22.55-.14 3.33.1 3.72.1.16.29-.1.58-.82a4.54 4.54 0 0 1 2.33-2.6c.65-.33.89-.57.97-.98l.23-1.03c.1-.42.06-.48-.32-.48-.24 0-.87.16-1.4.34Zm53.67.85a6.61 6.61 0 0 0-4.69 5.7c-.42 3.34.88 6.02 3.61 7.45 1.06.55 1.23.58 3.16.58 1.93 0 2.1-.03 3.05-.56 1.43-.78 1.5-.97.77-2.02l-.6-.88-.4.38c-1.47 1.37-4.58 1.18-6-.37-1.24-1.33-1.58-4.04-.74-5.83 1.1-2.37 3.7-3.18 6.08-1.9.6.31 1.13.54 1.16.5.69-.88 1.05-1.46 1.05-1.66 0-.37-1.1-1.08-2.15-1.4a9.55 9.55 0 0 0-4.3.01Zm41.27.19c-.9.9-.27 2.51.98 2.5.6 0 .8-.11 1.22-.73.45-.65.4-1.07-.23-1.68-.67-.67-1.36-.7-1.97-.1Zm26.3-.17c0 .05.74 2.66 1.65 5.8l1.95 6.75.3 1.07h2.36l.7-2.55c1.4-5.18 2.01-7.28 2.15-7.28.08 0 .2.23.26.51.12.5 1.73 6.4 2.28 8.34l.27.98h2.3l.3-1.07c.15-.58.85-2.98 1.54-5.33a684.2 684.2 0 0 0 1.68-5.8l.43-1.54-1.24.06-1.23.05-.32 1.11-1.3 4.78a38.6 38.6 0 0 1-1.08 3.66c-.06 0-.33-.86-.61-1.9l-1.3-4.77-.8-2.88-1.2-.05-1.2-.06-1.2 4.32c-1.75 6.37-1.5 6-2.22 3.29-.5-1.96-1.76-6.62-1.98-7.36-.07-.23-2.5-.35-2.5-.13Zm27.67 6.06c0 3.7.08 6.45.2 6.86l.2.7h1.12c1.09 0 1.12-.02.98-.42-.09-.23-.18-3.32-.22-6.86l-.07-6.44h-2.2v6.16Zm-58.88-4.7-.84.3-.06 1.07-.05 1.06h-1.47v1.86h1.49v3.06c0 2.25.07 3.24.27 3.7.37.89 1.26 1.4 2.45 1.4 1.46 0 1.55-.08 1.55-1.23v-1l-.53.11c-.3.06-.72.02-.93-.1-.38-.2-.4-.34-.4-3.08V32.2h1.86v-1.86h-1.86v-1.39c0-1.58-.03-1.6-1.48-1.05Zm-89.65 1.36c-1.39 1.07-1.78 2-1.93 4.62-.1 1.85-.2 2.27-.6 2.97a5.85 5.85 0 0 0-.62 1.55c-.3 1.67-1.74 3.86-2.9 4.47-.76.38-1.3.21-2.12-.66-.98-1.07-1.89-1.29-2.92-.71-.4.21-.4.22.15.32.41.08.57.22.62.55.08.55-.39.94-1.13.94-.66 0-1.44.74-1.44 1.38 0 .48.25.63.46.29.17-.28.95-.23 1.2.08.34.41.16 1.27-.31 1.5-.23.12-.36.27-.3.33.2.2 1.15.15 1.53-.09.26-.16.55-.16 1.2 0 1.08.28 2.73.28 3.4 0a6.2 6.2 0 0 1 1.7-.17c.63.02 1.59-.1 2.11-.26 1.13-.33 2.07-.36 2.6-.08.96.51.5-.41-.98-2-1.45-1.56-1.68-2.83-.68-3.76a1.8 1.8 0 0 1 2.58.02c.2.2.4.35.43.32.27-.3.23-.93-.07-1.52l-.36-.7.68-.29a2.9 2.9 0 0 1 2.16.05c.3.12.34.07.26-.43-.07-.5 0-.62.62-.96a7.6 7.6 0 0 0 2.63-3.04c.27-.57.5-1.1.5-1.18 0-.08-1.08-.15-2.4-.15-2.37 0-2.4 0-3.2-.56a3.97 3.97 0 0 1-1.76-2.53c-.13-.82-.36-.88-1.11-.3Zm20.93.48c-.62.13-.65.16-.87 1.37-.13.68-.4 1.6-.6 2.06l-.36.82 1.08.1c2.17.2 4.15 1.53 5.55 3.74.73 1.16.73 1.16 1.76 1.27 1.34.13 2.71.89 3.76 2.05.67.74.82 1.04.78 1.5-.1.89-.8.86-1.98-.08a5.1 5.1 0 0 0-1.52-.86c-.6-.12-1.67.23-1.67.54 0 .1.05.14.12.08.06-.07.28-.03.47.07.25.13.34.35.3.69-.04.4-.2.53-.77.69-.78.22-1.42.84-1.42 1.4 0 .46.28.6.56.26.24-.3.88-.36 1.22-.13.12.07.31.33.44.56.18.35.17.51-.06.87l-.29.43 1.53.04c3.37.08 3.97.06 4.82-.18.71-.2.99-.2 1.44-.01.4.16 1.01.2 2.03.1 1.17-.1 1.59-.07 2.04.17.54.28.57.27.57-.05 0-.68-.85-1.62-2.32-2.58a14.38 14.38 0 0 1-2.08-1.61c-1.08-1.16-1.02-2.27.11-2.22 1.17.06.6-.69-1.14-1.5-1.37-.64-2.15-1.65-2.91-3.73-.31-.87-.7-1.81-.84-2.1-.46-.88-2.36-2.45-3.78-3.13-1.23-.59-1.51-.64-3.34-.7-1.1-.03-2.28 0-2.63.07Zm-3.38.63c-.67.17-.68.2-.8 1.32a9.84 9.84 0 0 1-.56 2.21c-.25.61-.35 1.07-.23 1.07.58 0 1.77-.8 2.12-1.44.42-.75.98-2.5.98-3.05 0-.37-.41-.4-1.51-.11Zm47.11.06c-.3.16-.74.51-.97.79l-.42.5v-1.39h-2.38v9.82h2.38v-2.73c0-3.23.15-3.89 1.05-4.68.57-.5.78-.58 1.44-.5.42.03.9.13 1.07.2.25.12.4-.02.7-.6.5-.98.49-1.07-.16-1.41a3.5 3.5 0 0 0-2.7 0Zm5.94.16c-3.03 1.4-3.8 5.69-1.47 8.25.98 1.09 2.24 1.56 3.97 1.47a4.86 4.86 0 0 0 3.36-1.26l.65-.54-.73-.75c-.73-.74-.74-.74-1.08-.38a3.3 3.3 0 0 1-3.17.91c-.97-.26-1.39-.62-1.82-1.56l-.34-.74 3.48-.1 3.47-.09.06-1.11c.08-1.52-.22-2.4-1.14-3.31a4.71 4.71 0 0 0-5.24-.8Zm9.95-.15a3.6 3.6 0 0 0-1.8 1.63c-.33.62-.25.72.91 1.1.78.26.88.26.88.02 0-.16.21-.48.46-.73.5-.5 1.66-.63 2.32-.28.32.17.84 1.28.68 1.44-.04.04-.83.18-1.76.32-1.86.28-3 .8-3.63 1.64-.55.74-.55 2.67 0 3.4.67.9 1.3 1.24 2.46 1.33 1.24.08 2.06-.24 2.57-1l.31-.49.35.67c.33.65.36.67 1.45.67.61 0 1.1-.02 1.1-.05l-.26-.79c-.19-.5-.28-1.6-.29-3.52-.02-3.72-.33-4.56-1.95-5.3a6.06 6.06 0 0 0-3.8-.06Zm30.13-.02a4.7 4.7 0 0 0-2.48 2.43c-.53 1.07-.57 1.3-.5 2.62.15 3.03 1.8 4.69 4.81 4.84 1.62.08 2.92-.35 3.8-1.27l.5-.53-.6-.76-.6-.77-.5.46c-.75.7-1.3.92-2.35.92-1.22 0-2.02-.47-2.5-1.45a5.2 5.2 0 0 1-.37-.89c0-.07 1.55-.13 3.43-.13h3.43l.12-.65a5.74 5.74 0 0 0-.38-2.87 4.7 4.7 0 0 0-2.04-1.87 6.11 6.11 0 0 0-3.77-.08Zm29.9.13c-.84.4-1.82 1.63-1.66 2.05.1.28 1.81.94 1.81.7 0-.09.22-.41.48-.73.4-.48.61-.57 1.31-.57.63 0 .94.1 1.28.46.66.66.6 1.17-.14 1.3-2.34.37-2.93.52-3.67.9-1.08.54-1.54 1.34-1.53 2.62.02 1.94 1 2.92 3.06 3.03 1.25.08 1.26.07 2-.67l.75-.75.26.64c.27.62.28.63 1.47.63h1.2l-.3-.6c-.23-.46-.32-1.29-.36-3.48-.04-1.58-.1-3.15-.16-3.49-.13-.82-1.24-2.02-2.1-2.25a6.05 6.05 0 0 0-3.7.2Zm14.3.08a4.83 4.83 0 0 0-2.36 2.68 7.9 7.9 0 0 0-.08 3.74 4.86 4.86 0 0 0 2.41 2.78c1.94.97 4.76.57 6.12-.87l.42-.45-.62-.73-.61-.73-.69.55c-1.7 1.37-3.97.94-4.74-.9a4.72 4.72 0 0 1-.25-.7 28 28 0 0 1 3.41-.1c3.38 0 3.42-.01 3.53-.42a4.5 4.5 0 0 0-2.53-5.05 5.44 5.44 0 0 0-4 .2Zm9.63-.28c-.75.3-1.66 1.3-1.78 1.95-.29 1.5.5 2.55 2.7 3.55.77.35 1.54.76 1.72.92.81.73-.05 1.66-1.37 1.48a2.4 2.4 0 0 1-1.44-.77l-.69-.66-.68.7c-.38.4-.7.8-.7.9 0 .32 1 1.15 1.87 1.54.85.38 2.2.49 3.34.26.82-.16 1.99-1.35 2.14-2.17.31-1.64-.4-2.58-2.89-3.83-1.91-.95-2.24-1.31-1.73-1.88.46-.5 1.67-.45 2.52.12.38.26.73.47.8.47.2 0 1-1.02 1.01-1.3 0-.3-.9-.98-1.72-1.29a6.62 6.62 0 0 0-3.1.01Zm-70.03 4.9v4.9h2.23v-9.82h-2.23v4.92Zm4.92-.99 1.9 4.88.38.93 1.18.05 1.18.05.45-1.16a323.16 323.16 0 0 1 3.36-8.6c0-.05-.55-.07-1.22-.04l-1.23.06-1.22 3.29a31.1 31.1 0 0 1-1.33 3.28c-.06 0-.65-1.48-1.32-3.29l-1.22-3.28-1.23-.06-1.23-.05 1.55 3.94Zm-85.25-2.94-1.28.4-.23 1.12c-.13.6-.4 1.55-.6 2.08l-.38.97h.58c.94 0 2.14-.69 2.53-1.45.67-1.32 1.19-3.58.8-3.54-.07.01-.71.2-1.42.42Zm-3.78.9c-.55.12-.78.27-.78.5 0 .17-.37 1.04-.82 1.93l-.8 1.61h.81c1.69 0 2.34-.77 2.82-3.38.19-.99.2-.98-1.23-.66Zm61.5-.09c-.56.1-1.54 1.1-1.54 1.55 0 .34.15.36 2.23.36 2.01 0 2.23-.03 2.23-.33 0-.52-.55-1.17-1.23-1.45-.62-.26-.9-.28-1.7-.13Zm39.56.15c-.52.22-1.35 1.22-1.35 1.62 0 .08 1.05.14 2.32.14 1.5 0 2.32-.07 2.32-.2 0-.5-.64-1.34-1.21-1.58a2.3 2.3 0 0 0-2.08.02Zm44.58-.01c-.52.23-1.34 1.23-1.35 1.63 0 .08 1.05.14 2.32.14 1.35 0 2.33-.07 2.33-.18 0-.39-.46-1.13-.86-1.39a2.89 2.89 0 0 0-2.44-.2ZM32.55 35.53c-.56.2-1.04.37-1.08.37-.18 0-.6 1.4-.6 2.02 0 .56.13.87.6 1.35.97 1.02 1.82 2.39 1.82 2.94 0 .75-.57 1.36-1.28 1.36-.44 0-.8-.2-1.38-.75-.99-.95-1.42-1.17-2.3-1.16-.57 0-.65.04-.38.2.17.1.32.38.32.63 0 .5-.47.83-1.17.83-.64 0-1.22.54-1.36 1.24-.11.6-.11.6.44.39.67-.25 1.04-.13 1.45.48.28.43.28.52 0 1.06-.16.33-.29.62-.29.66 0 .15.5.04.97-.2.43-.23.64-.23 1.57.02 1.16.3 2.23.22 3.36-.25.56-.24.8-.25 1.36-.06.42.14.94.17 1.31.09a10.3 10.3 0 0 1 1.6-.16c.54-.02.98-.08.98-.15 0-.16-1.9-1.82-2.07-1.82-.24 0-.86-1.2-.98-1.89-.18-.98.34-2.2.93-2.2.25 0 .61.17.81.37.78.78.7-.58-.1-1.52-.63-.75-.57-1.43.2-2.45l.66-.86-.89-.4a6.6 6.6 0 0 0-4.5-.14Zm65.29.04c-1.54.26-1.76.33-2.14.71-.53.53-.48 1.37.12 1.84 1.3 1.02 3.22-.23 3.22-2.12 0-.58-.1-.62-1.2-.43Zm59.92.06c-1.12.17-1.45.3-1.81.72-.56.64-.55 1.12.02 1.7 1.21 1.2 3.37-.08 3.22-1.93l-.05-.7-1.38.21Z" clip-rule="evenodd"/>
</svg>
