<svg xmlns="http://www.w3.org/2000/svg" fill="none" viewBox="0 0 144 38">
  <path fill="#000" fill-rule="evenodd" d="M17.57.1c-1.12.37-1.57 1.5-.98 2.5.19.34.38.5.79.67.6.26.97.24 1.51-.1 1.04-.63 1.02-2.32-.02-2.91a1.6 1.6 0 0 0-1.3-.17ZM58.33.04c-.8.25-1.23.85-1.23 1.69 0 1.29 1.26 2.1 2.38 1.52.7-.36.96-.82.91-1.6-.06-.95-.53-1.5-1.43-1.64-.2-.03-.48-.01-.63.03Zm12.92 0a1.7 1.7 0 0 0-1.22 1.69c0 .86.6 1.55 1.46 1.7.53.09 1.3-.27 1.62-.77.31-.48.32-1.35.02-1.84-.38-.62-1.24-.97-1.88-.77ZM43.08.3c-.04.08-.05.59-.03 1.13l.03.98.6.05c.37.03.64.11.7.2.05.1.1 2.7.1 6.4v6.24l.6.17c1.35.37 1.87.43 3.69.43 2.02 0 2.46-.07 3.48-.58 1.1-.55 1.87-1.57 2.32-3.05.24-.8.28-3.34.06-4.2-.37-1.49-1.21-2.68-2.23-3.16a4.47 4.47 0 0 0-4.5.37l-.27.2-.05-2c-.06-2.31-.13-2.54-.94-3-.42-.23-.59-.25-1.98-.29C43.4.16 43.12.18 43.08.3Zm19.04 0c-.04.08-.05.59-.03 1.13l.03.98.59.05c.32.03.64.1.7.15.06.07.1 2.24.13 5.87.03 4.18.07 5.87.16 6.14.16.47.67.98 1.15 1.15.58.2 1.83.14 2.52-.12l.6-.23v-1.83l-.47.17c-.43.16-.47.16-.65-.02-.17-.17-.18-.62-.23-6.28l-.05-6.1-.3-.4c-.46-.6-.83-.72-2.57-.77-1.26-.03-1.54-.01-1.58.11Zm16.74 1.3-1.48.37v2.65l-.85.03-.86.03v2.18l.86.03.85.03v3.19c0 3.5.06 3.98.6 4.74.18.27.5.53.9.73.58.3.67.31 1.86.31 1.27 0 1.98-.15 2.52-.52.2-.15.23-.25.23-1.16 0-.9-.02-.98-.19-.93l-.75.27c-1 .37-1.73.21-1.95-.42-.07-.21-.12-1.39-.12-3.27V6.9h2.49V4.63h-2.49V2.97c0-.9-.03-1.67-.07-1.7-.05-.02-.74.13-1.55.33ZM.5 2.45v1.14h1.34l.03 6.1.03 6.1 1.86.03a26.5 26.5 0 0 0 5.67-.39 5.64 5.64 0 0 0 4.28-4.32 16.6 16.6 0 0 0-.05-5.4 5.2 5.2 0 0 0-1.4-2.6c-1.47-1.47-3.06-1.8-8.55-1.8H.5v1.14Zm130.03 1.04c-.6.1-.9.47-.97 1.17-.06.57-.07.6-.35.6-.28 0-.3.02-.3.4 0 .4.02.42.3.42h.32l.02 1.64.03 1.63h1.04l.03-1.63.02-1.63.5-.03c.48-.03.48-.04.51-.41l.04-.39-.5-.03c-.47-.03-.5-.05-.53-.36-.05-.48.22-.7.77-.62l.45.06v-.36c0-.29-.04-.37-.23-.4a2.7 2.7 0 0 0-1.15-.06Zm-11.97.4c0 .35.04.42.24.45.23.03.23.03.28 2.52l.05 2.5h1.04l.03-.92c.02-.8.05-.9.22-.9.13 0 .33.25.64.78.46.81.78 1.08 1.28 1.08.44 0 .67-.18.67-.51 0-.25-.05-.3-.28-.34-.23-.02-.37-.18-.73-.76l-.45-.74.52-.9.53-.9-.6.02-.59.03-.4.7c-.27.48-.47.7-.6.7-.18 0-.2-.1-.2-1.4 0-1.72-.05-1.81-1.03-1.81h-.62v.4ZM5.06 8.51v4.94h1.13c1.87 0 2.66-.25 3.4-1.1.63-.7.85-1.5.92-3.31.06-1.69-.07-2.75-.45-3.58-.6-1.32-1.41-1.72-3.74-1.84l-1.27-.06V8.5Zm95.57-4.54c-.04.04-.07.25-.07.47 0 .33.03.4.2.4.12 0 .21.03.21.08 0 .04-.3 1.02-.67 2.17a39.84 39.84 0 0 0-.67 2.2c0 .08.18.11.54.1l.54-.04.2-.55.2-.55.94.03.94.03.2.55.19.54h.55c.47 0 .56-.03.56-.18 0-.1-.42-1.32-.92-2.72l-.92-2.55-.97-.03c-.54-.01-1 0-1.05.05Zm41.11.08-.47.13-.03.53c-.03.52-.04.54-.33.54-.29 0-.3.03-.3.42s.01.41.3.41h.3l.03 1.36.03 1.36.34.3c.28.25.43.3.85.3.79 0 1.04-.15 1.04-.64 0-.37-.02-.4-.2-.3-.32.18-.71.13-.83-.09a4.9 4.9 0 0 1-.1-1.24V6.08h.92v-.4c0-.42 0-.42-.44-.45l-.44-.03-.03-.65c-.01-.36-.06-.64-.1-.64l-.54.14ZM25.9 4.52c-2.2.33-3.56 1.65-3.56 3.48a2.9 2.9 0 0 0 1.62 2.73c.34.17 1.24.5 2 .74.77.23 1.51.5 1.65.61.59.44.5 1.21-.18 1.54-.8.39-2.86.17-4.25-.44-.3-.14-.57-.23-.6-.22-.06.07-.2 2.2-.14 2.28.03.04.48.2.99.35 1.25.37 3.57.47 4.6.2 1.33-.35 2.07-.93 2.57-2 .22-.5.25-.67.2-1.47-.07-1.75-.8-2.44-3.39-3.27a16.6 16.6 0 0 1-1.62-.6c-.8-.37-.81-1.12-.03-1.58.52-.31 2.44-.3 3.41.02.37.13.7.23.75.23.04 0 .08-.49.08-1.09V4.95l-.54-.16c-.62-.18-2.12-.38-2.67-.36-.2.01-.6.05-.89.1Zm10.26.05c-2.17.35-3.47 1.42-4.09 3.38a10.64 10.64 0 0 0-.17 4.25c.55 2.6 2.04 3.83 4.5 3.73a3.7 3.7 0 0 0 2.52-.9c.35-.32.38-.33.44-.13.12.37.74.81 1.35.95a3.9 3.9 0 0 0 2.34-.33l.4-.2v-.9c0-.66-.03-.87-.13-.83l-.51.18c-.73.24-.7.4-.7-4.38V5.16l-.4-.1c-1-.28-1.81-.43-2.8-.53a8.27 8.27 0 0 0-2.75.04Zm-21.01.18c-.03.09-.04.6-.03 1.13l.03.98.59.05c.32.03.62.1.67.14.05.05.11 1.7.14 3.69.05 3.58.05 3.6.3 4.11.38.76.92 1.03 2.02 1.03a3.5 3.5 0 0 0 1.9-.42c.2-.13.23-.22.23-1.02v-.87l-.36.15c-.42.17-.57.18-.78.05-.13-.09-.16-.68-.2-3.97-.06-3.87-.06-3.87-.3-4.28-.42-.65-.93-.82-2.68-.87-1.21-.04-1.48-.02-1.53.1Zm40.8-.06c-.05.04-.08.56-.08 1.15V6.9h.55c.93 0 .9-.14.9 3.7 0 1.86.05 3.51.1 3.77.25 1.04.93 1.5 2.22 1.5.8.01 1.63-.2 2-.48.08-.07.13-.4.13-.97 0-.48-.02-.87-.04-.87s-.19.07-.38.17c-.24.12-.41.14-.6.07l-.28-.1-.05-3.83c-.05-3.83-.05-3.84-.3-4.28-.42-.72-.9-.9-2.65-.94a7.4 7.4 0 0 0-1.52.04Zm12.92 0c-.04.05-.07.56-.07 1.15V6.9h.56c.93 0 .9-.15.9 3.77 0 4.18.05 4.44 1.08 4.99.72.38 2.37.27 3.13-.2.2-.14.23-.23.23-1.03 0-.49-.02-.88-.04-.88l-.34.15c-.38.2-.6.2-.8 0-.14-.15-.16-.63-.16-3.76 0-2.43-.04-3.71-.13-3.99a1.93 1.93 0 0 0-1.42-1.22 12.2 12.2 0 0 0-2.94-.04Zm15.2.06c-.04.09-.05.6-.04 1.13l.03.98.57.05c.32.03.62.09.69.13.07.05.13 1.07.17 3 .07 3.24.14 3.64.72 4.52.66.99 1.87 1.44 3.63 1.37a3.2 3.2 0 0 0 1.72-.41l.73-.37v.75c0 1.27-.38 1.98-1.2 2.27-1.05.35-3.16.11-4.38-.5a4.65 4.65 0 0 0-.57-.27c-.03 0-.06.5-.06 1.13v1.13l.5.2c2.04.9 5 .97 6.62.18a3.95 3.95 0 0 0 2.09-3.1c.07-.47.1-2.82.08-6.5l-.03-5.76h-3l-.05 3.79c-.05 3.46-.07 3.82-.25 4.19-.43.87-1.64 1.24-2.54.77-.86-.45-.88-.5-.93-4.23-.06-3.73-.07-3.77-.94-4.26-.41-.23-.6-.25-1.98-.3-1.27-.03-1.54-.01-1.59.11Zm28.34.6c-.54.24-.85.67-1 1.4-.14.66.02 1.55.35 1.98.72.92 2.51.9 3.2-.05.49-.66.47-2.23-.03-2.86-.5-.63-1.7-.85-2.52-.48Zm5.05.05c-.3.25-.3.25-.47.05-.13-.15-.3-.2-.75-.2h-.58l.03.39c.03.31.08.4.27.42.22.03.23.07.26 1.66l.03 1.63.53.03.54.03.03-1.4c.03-1.3.05-1.41.28-1.66a.8.8 0 0 1 .55-.27c.27 0 .29-.02.29-.47 0-.46 0-.46-.35-.46-.23 0-.47.09-.66.25Zm8.14-.02c-.67.34-.94.9-.94 1.9 0 1 .28 1.55.94 1.89.51.26 1.34.31 1.84.12 1.59-.6 1.55-3.54-.05-4.02a2.42 2.42 0 0 0-1.78.11Zm8.62-.1c-.19.06-.48.26-.64.45-.82.94-.61 3.05.34 3.5.48.23 1.18.22 1.58-.02.3-.19.32-.19.55 0 .26.21.68.25 1.09.1.2-.09.27-.18.27-.42 0-.27-.05-.32-.26-.32h-.26v-3.2l-.53-.11a5.39 5.39 0 0 0-2.14.02Zm5.3-.04c-.11.05-.27.17-.35.26-.13.16-.15.15-.28-.04-.12-.17-.27-.2-.77-.2h-.62l.03.38c.02.3.08.4.24.43.11.02.24.09.28.15.04.07.08.81.08 1.66V9.4l.54-.03.55-.03.05-1.44c.05-1.35.06-1.44.3-1.63.13-.1.38-.2.54-.2.3 0 .3-.01.28-.44-.03-.4-.06-.44-.35-.46a1.4 1.4 0 0 0-.52.06ZM105.9 6.57l.72 2.09.27.75.42-.03.42-.03.33-.98.33-1 .34 1.03.33 1.01.43-.03.43-.03.65-1.97c.35-1.09.65-2 .65-2.05 0-.04-.21-.08-.46-.08h-.46l-.32 1.06-.4 1.3c-.05.17-.16-.1-.43-1.07l-.36-1.29h-.5c-.53 0-.58.07-.39.56.08.2.03.46-.2 1.12-.16.48-.3.84-.3.81L107 6.5l-.4-1.2-.58-.03-.58-.03.46 1.33Zm-4.2-.36-.29 1.04c-.04.16.03.18.59.18.34 0 .63-.04.63-.08 0-.13-.58-1.88-.64-1.94-.03-.03-.16.33-.29.8Zm33.1-.2c-.42.21-.63.75-.58 1.47.05.5.1.67.33.86.35.3.62.3.94-.02.23-.24.25-.33.25-1.29 0-.84-.03-1.04-.16-1.1a.89.89 0 0 0-.77.08Zm-22.02.23c-.4.52-.37 1.75.05 2.17.17.17.73.22.93.08.5-.33.5-2.1 0-2.43-.26-.18-.77-.08-.98.18Zm13.24.01c-.17.22-.21.42-.21 1.03 0 .6.04.8.21 1.02.24.3.75.37 1.07.14.41-.3.45-1.86.05-2.27a.78.78 0 0 0-1.12.08Zm-88.94.31c-.61.16-.92.3-1.2.53-.72.61-1.1 2.03-1 3.72.1 1.41.36 2.08 1.03 2.57.35.26 1.35.36 1.88.18a2 2 0 0 0 1.1-1.22 25 25 0 0 0 .1-3V6.73l-.25-.07a6.23 6.23 0 0 0-1.66-.1Zm11.59.4c-.45.2-.85.67-.98 1.15-.06.24-.1 1.47-.1 3.02l-.01 2.61.23.06c1.63.39 2.93-.07 3.45-1.21.34-.75.5-1.8.43-2.87-.1-1.54-.52-2.45-1.28-2.77a2.87 2.87 0 0 0-1.74 0ZM129 10.09c-.44.18-.71.65-.71 1.22 0 .32-.03.37-.28.4-.25.03-.3.08-.32.42-.03.37-.02.39.28.39h.32v3.32h1.14v-3.32h1.05l-.04-.4c-.03-.38-.03-.38-.52-.41-.46-.03-.5-.05-.5-.32 0-.5.22-.68.77-.6l.48.06v-.35c0-.2-.05-.39-.1-.42-.26-.16-1.2-.15-1.57 0Zm-3.71.34c0 .35.03.42.23.45.23.03.23.04.29 2.35.05 2.62.05 2.61.89 2.61.63 0 .76-.08.76-.46 0-.28-.04-.33-.23-.33l-.23.01-.03-2.3-.03-2.3-.27-.22c-.2-.16-.42-.21-.83-.21h-.55v.4Zm-23.9.06a2.6 2.6 0 0 0-1.52 1.35c-.2.42-.24.7-.24 1.4 0 .79.03.95.3 1.41.16.29.48.65.7.8.77.54 1.99.61 2.85.17l.4-.2-.28-.36a1.8 1.8 0 0 0-.32-.36c-.02 0-.19.07-.36.17-.4.2-1.14.14-1.45-.13-.54-.49-.78-1.8-.46-2.56s1.04-1.07 1.77-.76c.22.1.4.15.41.14l.25-.33c.29-.39.28-.44-.08-.63a3.17 3.17 0 0 0-1.97-.1Zm17.59-.05c-.72.21-1.36.76-1.72 1.46-.3.55-.27 2.08.03 2.65.31.6.86 1.05 1.5 1.23.67.2 1.04.2 1.7 0 .72-.2.83-.35.54-.73l-.25-.33-.39.13c-.8.34-1.49.08-1.9-.7a3.26 3.26 0 0 1 0-2.07c.3-.7 1.04-.97 1.78-.66.36.15.36.15.62-.22.14-.2.23-.42.2-.46a3.66 3.66 0 0 0-1.48-.4c-.2.01-.5.05-.63.1Zm-15.32 1.66c0 .34.04.4.24.44.22.03.23.06.26 1.67l.03 1.64.59-.03.59-.03v-1.37c.02-1.57.1-1.8.74-1.8.34 0 .35 0 .35-.47v-.46h-.4c-.25 0-.5.08-.67.21l-.27.21-.21-.21c-.16-.16-.35-.21-.73-.21h-.52v.4Zm3.99-.31a1.9 1.9 0 0 0-.49.38c-.87.93-.78 2.58.18 3.32.32.24.51.3 1.09.33 1.12.07 1.75-.23 1.75-.82 0-.35.03-.34-.45-.15-.2.09-.6.16-.9.16-.41 0-.57-.05-.77-.25-.14-.15-.26-.35-.26-.47 0-.2.08-.21 1.22-.24l1.21-.03v-.67c0-.79-.23-1.22-.81-1.5a3.25 3.25 0 0 0-1.77-.06Zm2.84.3c0 .35.04.42.23.45.23.03.24.08.3 1.28.02.71.1 1.34.17 1.47.31.55 1.4.76 2.08.42.31-.16.37-.16.57-.02.22.16.67.2 1.08.09.18-.05.23-.14.23-.42 0-.27-.04-.33-.17-.28-.3.11-.35-.2-.34-1.78l.01-1.56h-1.11l-.05 1.49c-.05 1.63-.12 1.78-.73 1.78-.5 0-.61-.3-.61-1.66a6.7 6.7 0 0 0-.08-1.3c-.15-.23-.54-.36-1.05-.36h-.53v.4Zm11.94-.26c-.6.27-1.07 1.16-1.07 2 0 .54.3 1.26.68 1.59.63.56 1.71.66 2.58.24.32-.15.36-.22.36-.57v-.4l-.34.18c-.2.1-.58.18-.94.19-.53 0-.63-.03-.85-.29-.46-.53-.38-.6.88-.6 1.3 0 1.45-.07 1.45-.7 0-.49-.37-1.24-.75-1.51-.37-.27-1.52-.34-2-.13Zm-14.42.81c-.11.13-.2.29-.2.36s-.04.2-.07.29c-.05.14.05.16.74.16h.8l-.07-.33c-.12-.65-.79-.92-1.2-.48Zm14.84.03a.9.9 0 0 0-.25.52c0 .26.02.26.72.26.71 0 .73 0 .73-.26 0-.32-.43-.78-.73-.78-.12 0-.33.12-.47.26ZM79.1 18.55a6.85 6.85 0 0 0-5.35 3.89c-.92 1.96-.95 5.49-.06 7.26a6.57 6.57 0 0 0 3.77 3.36c2.11.63 4.2.51 5.98-.34 1.21-.58 1.2-.5.4-1.51a35 35 0 0 0-.75-.97c-.04-.04-.33.06-.64.23-.76.41-1.3.54-2.27.54-1 0-1.59-.25-2.3-.97-1.28-1.27-1.8-3.9-1.23-6.03a4.41 4.41 0 0 1 1.06-2.1c.98-1.06 2.82-1.27 4.43-.5l.56.28.24-.3c.14-.17.46-.63.73-1.02l.49-.72-.3-.23a7.23 7.23 0 0 0-2.75-.87 5.48 5.48 0 0 0-2.01 0Zm-24.78.36-1.37.36-.4.1v2.7l-.85.03-.85.03-.03 1.07-.03 1.06h1.77v3.09c0 3.38.07 4.02.55 4.83.71 1.22 3.15 1.6 5.06.78l.5-.21V30.6l-.38.19c-.55.27-1.4.43-1.81.33a1.17 1.17 0 0 1-.55-.38c-.2-.27-.22-.44-.25-3.39l-.03-3.1 1.27-.03 1.28-.03v-2.08l-1.27-.03-1.27-.03v-1.7c0-1.99.15-1.83-1.34-1.45Zm-22.44.95.03 1.12.65.03c.36.02.65.06.65.1 0 .05-2.04 6.34-3.2 9.89l-.7 2.13 1.55.03c1.06.01 1.58-.01 1.63-.1.04-.05.24-.71.46-1.45l.39-1.34h5.13l.07.24.49 1.45.41 1.22h1.64c.9 0 1.65-.02 1.65-.05 0-.04-1.14-3.25-2.18-6.13a444.3 444.3 0 0 1-1.86-5.19l-.86-2.41-.22-.65h-5.75l.02 1.11ZM48.41 22a3 3 0 0 0-1.7 1.02c-.22.23-.4.4-.4.38l-.23-.44c-.35-.7-.7-.83-2.27-.83h-1.35l-.03 1.04-.03 1.05.62.07c.46.05.65.13.73.27.07.12.1 1.77.1 4.4v4.22h3.12v-3.42c0-3.2.01-3.46.21-4 .36-.95 1.06-1.36 2.18-1.28l.61.04V22l-.32-.06c-.41-.09-.54-.08-1.23.07Zm15.06-.03c-1.64.26-2.65.92-3.22 2.12-.2.42-.25.68-.24 1.3.01 1.83.86 2.67 3.45 3.43 1.68.5 2.23.83 2.23 1.37 0 .6-.55.98-1.54 1.08a9 9 0 0 1-3.3-.63 2.98 2.98 0 0 0-.6-.24c-.09.08-.25 2.2-.18 2.26a10.04 10.04 0 0 0 6.09.42 3.41 3.41 0 0 0 1.98-1.65c.3-.59.34-.75.34-1.51 0-.71-.04-.94-.27-1.4-.5-1-1.25-1.47-3.53-2.19-1.1-.34-1.4-.48-1.62-.74-.15-.18-.27-.4-.27-.5 0-.34.5-.83.97-.95.8-.22 2.72-.03 3.71.37.17.07.18-.02.18-1.02 0-.6-.04-1.12-.1-1.16-.44-.27-3.12-.5-4.08-.36Zm39.47.01c-.75.12-1.53.5-2.06.97a1.8 1.8 0 0 1-.45.35l-.18-.34c-.35-.68-.95-.88-2.56-.89h-1.06v2.15l.54.08c.3.03.6.12.67.18.1.08.13 1.05.13 4.4v4.3h3.1l.03-3.71c.03-3.53.04-3.74.25-4.2.3-.66.75-.95 1.53-1 .75-.04 1.25.19 1.56.72.2.33.2.57.24 4.27l.03 3.92h3.09v-3.71c0-4.13.02-4.25.71-4.83.56-.47 1.62-.52 2.18-.1.62.45.63.54.63 4.77v3.87h3.1v-4.05c0-2.53-.04-4.24-.11-4.59-.14-.7-.5-1.3-.99-1.74-1.41-1.25-4.25-1.17-5.7.15l-.43.38-.4-.4a3.37 3.37 0 0 0-2.04-.96 4.4 4.4 0 0 0-1.8.01Zm18.65 0a3.4 3.4 0 0 0-1.82 1.08l-.32.42-.24-.49c-.35-.71-.7-.85-2.33-.9l-1.32-.04v2.18l.53.05c.98.12.92-.18.92 4.66v4.24H120l.04-3.5c.03-3.09.06-3.56.22-3.92.41-.93 1.2-1.38 2.24-1.28l.52.05V22l-.32-.06c-.38-.08-.51-.07-1.1.04Zm-85.9.21c0 .16-.38 1.52-.84 3.03a133.7 133.7 0 0 0-.82 2.81c0 .04.81.06 1.8.06 1.17 0 1.82-.04 1.82-.1 0-.06-.4-1.29-.87-2.73a260.4 260.4 0 0 1-.97-2.98c-.1-.34-.1-.34-.12-.09Zm48.36.02c-.03.07-.04.55-.03 1.06l.03.93.57.09c.32.05.63.13.7.2.1.07.13.62.14 2.03 0 3 .12 4.23.43 4.91.56 1.24 1.59 1.84 3.3 1.93 1.08.06 1.85-.1 2.65-.55l.44-.24v.76c0 1.8-.64 2.44-2.48 2.44-1.1 0-2-.19-3-.63-.36-.17-.67-.3-.69-.3-.02 0-.04.51-.04 1.13v1.14l.8.3c1.33.51 1.83.6 3.44.59a5.4 5.4 0 0 0 2.16-.24c1.24-.43 1.91-1 2.4-2.02.49-1.01.53-1.75.5-7.96l-.04-5.66h-3l-.05 3.8c-.05 3.66-.06 3.8-.28 4.21-.33.62-.84.9-1.62.91-.76.01-1.25-.23-1.56-.77-.2-.34-.22-.58-.26-3.63-.05-2.84-.08-3.32-.23-3.6-.42-.76-1.06-.97-2.99-.97-.94 0-1.25.03-1.3.14Zm39.69.94v1.07l.54.06c.92.11.9.07.9 3.23 0 2.94.08 3.54.56 4.3.35.55.98 1.07 1.58 1.3a6.7 6.7 0 0 0 2.84.18 5.27 5.27 0 0 0 1.94-.87c.12-.14.18-.1.58.29.57.57 1.26.75 2.23.57 1.35-.24 1.55-.43 1.55-1.4 0-.4-.02-.77-.05-.8-.03-.03-.26.02-.51.11-.43.16-.47.15-.67-.03-.21-.19-.22-.28-.22-4.64v-4.46l-1.52.03-1.53.03-.05 3.84c-.05 3.64-.06 3.86-.26 4.2-.68 1.17-2.48 1.24-3.13.12l-.28-.48-.05-3.28c-.05-3.12-.07-3.3-.27-3.58-.53-.72-1-.86-2.92-.87h-1.26v1.08Z" clip-rule="evenodd"/>
</svg>
