<svg xmlns="http://www.w3.org/2000/svg" fill="none" viewBox="0 0 160 40">
  <path fill="#000" fill-rule="evenodd" d="M.05 19.95.1 39.9l79.95.05L160 40V0H0l.05 19.95Zm22.73 2.92c-1.3-3.92-2.37-7.2-2.38-7.29 0-.08.4-.13.88-.1l.9.06 1.93 6.24c1.07 3.43 2.01 6.31 2.1 6.4.09.1 1.1-2.73 2.26-6.28l2.11-6.45h1.6l-1.21 3.6-2.48 7.29L27.24 30h-2.09l-2.37-7.13Zm13.24-7.54a6.16 6.16 0 0 0-4 3.85 13.5 13.5 0 0 0-.4 5.73c.52 2.42 1.92 4.25 3.83 4.98 1.34.5 4.09.56 5.64.1l1.05-.32V28l-1.41.48a5.88 5.88 0 0 1-2.77.4c-2.87-.2-4.53-1.95-4.8-5.1l-.05-.7 5.1-.05 5.1-.06V22c0-1.33-.35-2.9-.9-3.98a5.33 5.33 0 0 0-6.39-2.68Zm-1.44 2.6c.31-.36.85-.8 1.2-.97.8-.4 2.7-.42 3.43-.04 1.24.66 2.34 2.68 2.34 4.3v.56h-8.34v-.49c0-.78.76-2.65 1.37-3.36ZM10.3 30.1V9.7H20v1.38l-3.93.05-3.93.06-.06 3.71-.05 3.71h7.58v1.58l-3.73.05-3.74.06-.05 4-.06 4 4.04.06 4.03.06.06.84.06.84h-9.93Zm39.37-14.83c-1.17.27-1.79.68-2.75 1.8l-.89 1.04v-2.66h-1.55V30.1h1.72l.07-5c.08-5.4.13-5.73 1.23-7.06a3.84 3.84 0 0 1 4-1.2c1.01.27 1.43.62 1.98 1.67.39.75.42 1.12.48 6.2L54 30.1h1.75l-.08-5.6c-.09-6.36-.14-6.67-1.5-8.1-.7-.73-1.08-.95-1.9-1.13a4.66 4.66 0 0 0-2.62 0Zm9.18-1.69c0-1.85 0-1.87.53-2.06 1.2-.45 1.21-.43 1.21 1.85v2.08h3.3v1.39h-3.3v5.05c0 5.43.11 6.15.99 6.63.27.15.83.2 1.47.13l1.04-.1v1.51l-.97.14c-2.12.3-3.6-.5-4.06-2.19-.13-.48-.21-2.82-.21-5.98v-5.2h-2.92v-1.38h2.92v-1.87ZM69.8 9.64c-1.36.3-2.4.8-3.13 1.5-2.02 1.9-1.82 5.15.44 7a38.2 38.2 0 0 0 2.98 1.96c2.86 1.74 3.42 2.2 3.89 3.18a3.58 3.58 0 0 1-2.2 4.96c-1.32.44-3.35.3-4.96-.37l-.06-.03c-.65-.26-.95-.4-1.12-.29-.16.1-.2.39-.27.94v.06c-.1.73-.1.74.8 1.02.5.16 1.17.36 1.49.43 1 .23 3.65.12 4.66-.2a5.27 5.27 0 0 0 3.84-5.2c0-2.3-.96-3.57-4.15-5.46-4.06-2.4-4.9-3.22-4.9-4.77 0-1.2.56-2.07 1.72-2.68.83-.43 1.2-.5 2.71-.48 1.12 0 2.06.13 2.6.34.48.19.89.3.92.28.03-.04.12-.43.19-.88l.12-.8L74 9.82c-1.28-.3-3.32-.38-4.2-.18Zm7.62 9.88a6.89 6.89 0 0 1 4.9-4.01c1.14-.27 3.12-.2 4.32.14.66.19.73.27.73.88 0 .37-.08.72-.18.79-.1.06-.68-.03-1.3-.19a5.6 5.6 0 0 0-3.55.01c-2.67.81-4.2 3.95-3.52 7.26a4.9 4.9 0 0 0 5.1 4.17c.78-.01 1.8-.15 2.27-.32s.93-.26 1.02-.2c.09.05.16.43.16.85 0 .75-.02.77-.92.97-4.28.99-7.39-.28-8.92-3.63-.5-1.09-.55-1.39-.55-3.47 0-1.95.06-2.42.44-3.25Zm14.63-4.17c-.58.17-1.34.48-1.69.7-2.23 1.4-3.5 4.86-3 8.16.42 2.74 1.6 4.56 3.6 5.52 1.01.5 1.4.57 2.91.57 1.52 0 1.9-.08 2.92-.57 2.58-1.25 4.02-4.23 3.72-7.71-.23-2.67-1.06-4.35-2.81-5.72a6.8 6.8 0 0 0-5.65-.95Zm-2.66 4.99a5.43 5.43 0 0 1 2.43-3.25 5.01 5.01 0 0 1 4-.09c.87.4 1.95 1.56 2.34 2.5 1.23 3.01.42 7.1-1.7 8.54-2.42 1.66-5.57.66-6.77-2.14-.6-1.4-.74-4.01-.3-5.56Zm13.32-6.65c0-1.88.06-2.01 1.07-2.34l.58-.2.05 2.15.06 2.15h3.29v1.39h-3.33l.06 5.19c.07 5.67.14 6.07 1.16 6.5.3.13.95.19 1.43.13l.87-.1v.76c0 .74-.01.76-.87.89-1.86.28-3.25-.31-3.85-1.66-.39-.86-.42-1.31-.49-6.32l-.07-5.4H99.8v-1.38h2.91v-1.76Zm6.02 5.42V30.1h1.75V8.12h-1.75V19.1Zm5.26-3.18a9.52 9.52 0 0 1 1.8-.6c2.29-.53 4.39-.06 5.6 1.24 1.08 1.16 1.19 1.83 1.27 7.93l.08 5.6h-1.59v-1.2a3.7 3.7 0 0 0-.1-1.19c-.05 0-.4.35-.78.78-2.2 2.48-6.72 2.27-8.04-.37a6 6 0 0 1-.19-3.71c.74-2.01 3.45-3.22 7.22-3.23h1.7v-.65c0-1.77-1.01-3.35-2.4-3.73a6.82 6.82 0 0 0-4.04.5l-1.13.47V17c0-.65.08-.8.6-1.08Zm2.77 6.85c-1.21.25-2.37.92-2.8 1.63-.31.5-.38.89-.33 1.8.07 1.05.15 1.24.77 1.82.9.84 2.04 1.04 3.5.6 1.91-.56 3.17-2.65 3.02-5l-.06-.96-1.65-.03c-.9-.02-2.01.05-2.45.14Zm12.5-7.51c-.4.1-.98.3-1.28.46-.6.31-1.97 1.77-1.97 2.1 0 .1-.09.19-.2.19-.1 0-.19-.56-.19-1.29v-1.28h-1.55V30.1h1.72l.06-4.9c.06-4.82.07-4.92.57-6.01 1.52-3.31 5.92-3.4 6.87-.13.23.79.3 2.13.3 6.03v5h1.77l-.07-5.68c-.05-4.96-.1-5.8-.4-6.49-.98-2.22-3.17-3.25-5.63-2.65Zm17.91 2.54V8.12h1.75V30.1h-1.55v-1.4c0-.76-.07-1.38-.15-1.38-.08 0-.38.36-.67.79A5.74 5.74 0 0 1 143 30.2c-2.74.35-5.08-1.5-6-4.74-.52-1.8-.35-5.2.32-6.68 1.34-2.93 3.92-4.26 6.7-3.45.9.27 1.34.55 2.16 1.4l1.02 1.07Zm-6.12-.9c-1.83.82-2.9 3.97-2.44 7.18.5 3.5 2.3 5.08 5.17 4.54.96-.19 2.27-1.45 2.84-2.74.39-.9.45-1.34.44-3.22-.03-3.1-.74-4.77-2.41-5.64a5.15 5.15 0 0 0-3.6-.12Zm8.7-8.65c.26.06.34.3.34.96 0 .48.09.88.2.88.1 0 .19-.4.19-.88 0-.67.08-.9.33-.96.2-.05-.05-.1-.53-.1-.48 0-.72.05-.53.1Zm1.75 1.94-.02-1.04c-.03-.8.03-1.04.25-1.04.16 0 .36.27.44.6.2.77.5.77.71 0 .3-1.02.7-.76.67.44l-.03 1.04-.12-.9-.12-.88-.27.84c-.25.8-.79 1.17-.79.55 0-.15-.1-.53-.23-.84l-.23-.55-.13.89-.13.89Z" clip-rule="evenodd"/>
</svg>
