<svg xmlns="http://www.w3.org/2000/svg" fill="none" viewBox="0 0 203 44">
  <path fill="#000" d="m38.8 33-4.78-2.75v-5.5L38.8 22v11Zm0-11-4.78-2.75v-5.5L38.81 11v11Zm-9.57 16.5-4.79-2.75v-5.5l4.8-2.75 4.78 2.75v5.5l-4.79 2.75Zm0-11-4.79-2.75v-5.5l4.8-2.75 4.78 2.75v5.5l-4.79 2.75Zm0-11-4.79-2.75v-5.5l4.8-2.75 4.78 2.75v5.5l-4.79 2.75ZM19.65 22l-4.78-2.75v-5.5L19.65 11l4.8 2.75v5.5L19.64 22Zm0-11-4.78-2.75v-5.5L19.65 0l4.8 2.75v5.5L19.64 11Z"/>
  <path fill="#000" d="M195.73 22.11v-.47c0-1.94.55-2.66 2.02-2.66.8 0 1.37.33 1.59.93.17.42.2.62.2 2.2h-3.81Zm5.72 3.1c-.48 1.86-1.74 2.97-3.39 2.97-.88 0-1.58-.38-1.98-1.07-.3-.52-.35-1.02-.35-3.57v-.68h6.77v-.12c-.2-2.79-2.04-4.59-4.7-4.59-2.68 0-5.03 2.55-5.03 5.44 0 2.84 2.43 5.42 5.08 5.42 2.24 0 4.03-1.5 4.46-3.75l.02-.14h-.86l-.02.1Zm-10 .12c-.63 1.87-1.8 2.85-3.36 2.85-.74 0-1.35-.25-1.74-.7-.42-.51-.55-1.24-.55-3.14 0-4.62.72-5.36 2.44-5.36.84 0 1.69.4 1.69.68 0 .03 0 .03-.08.1-.35.43-.55.89-.55 1.24 0 .8.53 1.37 1.3 1.37.81 0 1.34-.58 1.34-1.48 0-1.43-1.76-2.74-3.7-2.74-3 0-5.45 2.47-5.45 5.5 0 2.85 2.4 5.36 5.11 5.36 2.09 0 3.5-1.15 4.42-3.6l.06-.16h-.9l-.03.08Zm-12.2-10.47a1.6 1.6 0 0 0 1.59-1.55 1.6 1.6 0 0 0-1.63-1.59c-.9 0-1.56.67-1.56 1.59 0 .87.7 1.55 1.6 1.55Zm1.35 3.55h-4.34v.75h1.75V28h-1.75v.75h6.07V28h-1.73v-9.59Zm-4.84-4.19c.6 0 1.16-.6 1.16-1.27 0-1.02-1.09-1.84-2.42-1.84a3.7 3.7 0 0 0-2.83 1.4c-.84 1.02-1.13 2.01-1.13 3.93v1.97h-1.75v.75h1.75V28h-1.75v.75h6.48V28h-2.14v-8.84h2.38v-.75h-2.38v-4.64c0-.5.08-.98.2-1.21.21-.45.61-.7 1.1-.7.2 0 .38.02.53.09-.28.32-.42.67-.42 1.05 0 .7.52 1.22 1.22 1.22Zm-7.48 0c.61 0 1.16-.6 1.16-1.27 0-1.02-1.08-1.84-2.41-1.84-1.06 0-2.09.5-2.84 1.4-.84 1.02-1.12 2.01-1.12 3.93v1.97h-1.75v.75h1.75V28h-1.75v.75h6.48V28h-2.14v-8.84h2.38v-.75h-2.38v-4.64c0-.5.08-.98.2-1.21.21-.45.61-.7 1.09-.7.21 0 .39.02.54.09-.28.32-.42.67-.42 1.05 0 .7.52 1.22 1.21 1.22M156 26.34a3.73 3.73 0 0 1-3.36 1.84 3.8 3.8 0 0 1-3.12-1.4c-.78-.99-1.05-2.68-1.05-6.7 0-3.58.22-5.34.77-6.3a3.75 3.75 0 0 1 3.4-1.85c1.25 0 2.4.52 3.09 1.4.78.99 1.05 2.7 1.05 6.74 0 3.55-.22 5.3-.78 6.27Zm-3.36-15.23c-4.19 0-7.72 4.09-7.72 8.93 0 4.86 3.53 8.97 7.72 8.97 4.17 0 7.69-4.1 7.69-8.97 0-4.84-3.52-8.93-7.7-8.93Zm-19.6 7.87c.81 0 1.38.33 1.6.93.16.42.2.62.2 2.2h-3.82v-.47c0-1.94.55-2.66 2.03-2.66m4.75 3.88-.01-.12c-.19-2.79-2.03-4.59-4.7-4.59-2.67 0-5.02 2.55-5.02 5.44 0 2.84 2.42 5.42 5.08 5.42 2.24 0 4.03-1.5 4.45-3.75l.03-.14h-.86l-.02.1c-.48 1.85-1.75 2.96-3.39 2.96a2.2 2.2 0 0 1-1.99-1.07c-.3-.52-.35-1.02-.35-3.57v-.68h6.78Zm-9.2-4.45h-3.95v.75h1.93l-2.54 6.48-2.57-6.48h1.82v-.75h-5.77v.75h1.13l4 9.85h1.08l3.81-9.85h1.05v-.75Zm-11.97 0h-4.34v.75h1.75V28h-1.75v.75h6.06V28h-1.72v-9.59Zm-1.35-3.55a1.6 1.6 0 0 0 1.58-1.55 1.6 1.6 0 0 0-1.63-1.59c-.9 0-1.55.67-1.55 1.59 0 .87.7 1.55 1.6 1.55Zm-3.9 11.82c-.17.89-.56 1.3-1.24 1.3-.77 0-1.14-.25-1.14-1.64v-7.18h2.62v-.75H109v-3.93h-.61l-.03.07a6.93 6.93 0 0 1-3.47 4.03l-.07.03v.55h1.6v6.39c0 1.58.04 1.9.55 2.49.5.63 1.3.97 2.3.97 1.64 0 2.62-.8 2.87-2.29l.02-.13h-.76l-.02.1Zm-7.94-8.27H99.1v.75h1.75v3.48c0 2.74-.11 3.55-.58 4.34a2.6 2.6 0 0 1-2.23 1.2c-.5 0-.95-.14-1.17-.37-.33-.33-.38-.79-.38-3.29v-6.1h-4.34v.74h1.75v5.36c0 2.2.16 2.85.85 3.53.65.62 1.66.96 2.85.96 1.4 0 2.52-.5 3.25-1.42v1.16h4.31V28h-1.72v-9.59Zm-12.15 6.92c-.63 1.87-1.79 2.85-3.36 2.85-.73 0-1.35-.25-1.73-.7-.42-.51-.55-1.24-.55-3.14 0-4.62.72-5.36 2.44-5.36.84 0 1.68.4 1.68.68 0 .03 0 .03-.08.1a2.2 2.2 0 0 0-.54 1.24c0 .8.53 1.37 1.29 1.37.82 0 1.35-.58 1.35-1.48 0-1.43-1.77-2.74-3.7-2.74-3 0-5.45 2.47-5.45 5.5 0 2.85 2.39 5.36 5.1 5.36 2.1 0 3.5-1.15 4.43-3.6l.06-.16h-.9l-.04.08Zm-14.12-6.35c.8 0 1.37.33 1.59.93.17.42.2.62.2 2.2h-3.81v-.47c0-1.94.55-2.66 2.02-2.66m4.75 3.88v-.12c-.2-2.79-2.04-4.59-4.7-4.59-2.68 0-5.03 2.55-5.03 5.44 0 2.84 2.43 5.42 5.08 5.42 2.24 0 4.03-1.5 4.46-3.75l.02-.14h-.86l-.02.1c-.48 1.85-1.74 2.96-3.39 2.96-.88 0-1.58-.38-1.98-1.07-.3-.52-.35-1.02-.35-3.57v-.68h6.77Zm-14.04-.21 2.71-3.5h1.84v-.74h-4.5v.75h1.58l-2.08 2.74-1.92-2.74h1.46v-.75h-5.72v.75h1.23l3.34 4.82L62.74 28h-1.5v.75h4.42V28h-1.9l2.54-3.3 2.3 3.3h-.99v.75h5.15V28h-1.1l-3.79-5.35Zm-7.7.6c-.65 2.18-.83 2.68-1.4 3.5-.75 1.09-1.19 1.25-3.32 1.25h-3.2v-7.68h.72c2.31 0 2.66.4 2.86 3.28v.11h.58v-7.3h-.58v.1c-.05 2.15-.39 2.76-1.65 2.98-.3.05-.58.08-1.93.1v-7.48h1.9c1.3 0 1.6 0 1.94.05.98.15 1.67.52 2.17 1.17.53.67.84 1.43 1.18 2.88l.02.1h.56l-.2-4.95H47.06v.75h2.17v15.9h-2.17v.74h13.19l.51-5.58h-.55l-.03.08ZM58.26 3.88c.03-.38.16-.69.39-.91a1.13 1.13 0 0 1 .83-.35 1 1 0 0 1 .63.19c.18.13.3.28.37.47.07.17.11.37.12.6h-2.34Zm3.1 1.45-.7-.14-.02.02c-.22.56-.6.83-1.15.83-.3 0-.59-.11-.86-.33-.26-.22-.4-.64-.4-1.27h3.19v-.03a2.7 2.7 0 0 0-.55-1.78 1.8 1.8 0 0 0-1.4-.6c-.6 0-1.1.22-1.48.65-.4.43-.6 1-.6 1.7 0 .67.2 1.23.57 1.65.38.42.88.63 1.48.63.47 0 .87-.12 1.21-.36.34-.25.58-.56.7-.94v-.03Zm-7.54-1.15c0-.46.11-.83.34-1.11.23-.27.52-.41.86-.41.18 0 .34.05.48.16.14.1.23.24.27.38.04.15.06.38.06.69v2.66h.75V3.89c0-.38-.02-.64-.06-.8a1.6 1.6 0 0 0-.23-.5 1.2 1.2 0 0 0-.47-.4c-.2-.1-.44-.15-.7-.15-.56 0-1 .27-1.3.81V.64h-.75v5.9h.75V4.18Zm-3.83 2.37h.8v-5.2h1.71V.63h-4.2v.7H50v5.2ZM.5 33V22l4.79 2.75v5.5L.5 33Zm0-11V11l4.79 2.75v5.5L.5 22Zm9.58 16.5-4.8-2.75v-5.5l4.8-2.75 4.79 2.75v5.5l-4.8 2.75Zm0-11-4.8-2.75v-5.5l4.8-2.75 4.79 2.75v5.5l-4.8 2.75Zm0-11-4.8-2.75v-5.5l4.8-2.75 4.79 2.75v5.5l-4.8 2.75ZM19.65 44l-4.78-2.75v-5.5L19.65 33l4.8 2.75v5.5L19.64 44Zm0-11-4.78-2.75v-5.5L19.65 22l4.8 2.75v5.5L19.64 33Z"/>
</svg>
