<svg xmlns="http://www.w3.org/2000/svg" fill="none" viewBox="0 0 150 18">
  <path fill="#000" d="M28.1.07v17.88h-2.62V.07h2.62Zm2.3 2.38h-1.46V0h1.47a4.92 4.92 0 0 1 3.47 1.32 4.67 4.67 0 0 1 1.45 3.33v.8a4.53 4.53 0 0 1-1.45 3.34 4.79 4.79 0 0 1-3.47 1.31h-1.47V7.72h1.47c.6-.01 1.19-.26 1.61-.68.43-.43.66-1 .66-1.59V4.7c0-.59-.25-1.15-.67-1.57-.43-.42-1-.66-1.6-.67ZM2.61.07H0v17.88h2.61V.07ZM3.46 0v2.45H9.9V0H3.46Zm0 7.72v2.4h5.06v-2.4H3.46Zm0 7.88V18H9.9v-2.4H3.46Zm11.72 2.35 1.95-5.08-1.29-3.1-3.46 8.18h2.8ZM15.37.07h-2.8l7.53 17.88h2.8L15.37.07Zm4.56.03-1.76 4.7 1.3 3.13L22.74.1h-2.8ZM40.8.07h-2.6v17.88h2.61V.07Zm.86-.07v2.45h6.44V0h-6.44Zm0 7.72v2.4h5.07v-2.4h-5.07Zm0 7.88V18h6.44v-2.4h-6.44ZM53.57.07v17.88h-2.62V.07h2.62Zm7.23 5.38a4.57 4.57 0 0 1-1.46 3.34 4.83 4.83 0 0 1-3.47 1.31h-1.45V7.72h1.45c.62-.01 1.2-.25 1.63-.67.44-.43.68-1 .68-1.6V4.7c0-.6-.25-1.16-.68-1.58a2.36 2.36 0 0 0-1.63-.66h-1.45V0h1.45a4.93 4.93 0 0 1 3.47 1.32 4.68 4.68 0 0 1 1.46 3.33v.8Zm.55 12.53h-2.92l-3.62-6.88h1.35c.48.01.96-.07 1.4-.23l3.8 7.11ZM63.66 0v2.45h9.9V0h-9.9Zm.07 18h9.84v-2.4h-9.84V18ZM69.9 3.29h-2.62v11.54h2.62V3.29Zm11.45 9.08L76.43 0h2.51l2.41 6.56L83.76 0h2.51l-4.92 12.37Zm-2.41-3.91V18h-2.5V2.25l2.5 6.21Zm7.33-6.26v15.75h-2.5V8.41l2.5-6.2ZM92.25.07h-2.61v17.88h2.61V.07ZM93.1 0v2.45h6.42V0H93.1Zm0 7.72v2.4h5.06v-2.4H93.1Zm0 7.88V18h6.42v-2.4H93.1ZM102.4.07h2.56l7.33 17.88h-2.56L102.4.07Zm0 17.91V2.25l2.56 6.25v9.48h-2.56Zm9.87-2.18-2.56-6.26V.07h2.56v15.72Zm2.41-13.35h9.84V0h-9.84v2.45Zm3.55.84V18h2.63V3.29h-2.63ZM129.94.07h2.55l-3.87 17.88h-2.57L129.94.07Zm3.42 14.13h-3.12l.48-2.39h2.06l.58 2.38Zm-1.16-9.01 1.12-5.12h.35l3.87 17.88h-2.57L132.2 5.2ZM142.67 0h-2.61v14.81h2.61V.01Zm-2.52 18h9.81l.04-2.4h-9.85V18Z"/>
</svg>
