<svg xmlns="http://www.w3.org/2000/svg" fill="none" viewBox="0 0 77 56">
  <path fill="#000" fill-rule="evenodd" d="M12.12.07C10.6.4 8.95 1.65 7.53 3.5c-2.41 3.2-3.97 7.95-4.42 13.53a63.97 63.97 0 0 0 .65 14.34c0 .04-.18.11-.5.2l-1.49.48C.4 32.5.05 32.72 0 33.16c-.05.49.53 1.04 1.51 1.44a3.5 3.5 0 0 0 2.27.21c.32-.06.6-.1.61-.08a60.44 60.44 0 0 0 .88 3.47 43.5 43.5 0 0 0 4.97 11.29c.86 1.29 1.64 2.13 1.99 2.13.46 0 .76-1.3.5-2.2-.06-.2-.29-.87-.52-1.5a79.88 79.88 0 0 1-3.66-13.9l-.03-.18 1.1-.25a395 395 0 0 0 3.48-.83c1.31-.32 2.4-.57 2.42-.56a60.03 60.03 0 0 0 1.16 11.06c.87 4.47 2.38 9.46 3.56 11.79.27.52.41.7.56.67.16-.03.46-.33.67-.66.35-.57.73-1.67.73-2.12 0-.1-.25-1.16-.54-2.35a80.12 80.12 0 0 1-2.49-15.28c-.1-1.41-.17-3.9-.13-3.94a97.47 97.47 0 0 0 6.06-1.62c.01 0-.12-.22-.3-.48a2.9 2.9 0 0 0-2.76-1.5c-.55 0-.73.01-1.78.2-.64.11-1.17.2-1.18.18a20 20 0 0 1 .15-1.99c.6-5.69 2.52-11.82 4.26-13.6.48-.5.88-.62 1.33-.4.88.4 1.56 1.87 2 4.25.2 1.16.35 2.42.54 4.69.1 1.3.17 1.8.24 1.93.06.11.24.09.6-.09.9-.44 2.3-1.62 2.54-2.15.08-.18.1-.26.09-.9a15.2 15.2 0 0 0-1.42-5.88c-1.2-2.52-2.9-3.89-5-4-.36-.03-.5-.02-.77.06-2.07.55-4.53 4.17-6.15 9.05a37.74 37.74 0 0 0-1.87 9.62l-1.01.18a150.93 150.93 0 0 0-6.58 1.34c-.06-.06-.34-3.12-.47-4.96-.44-6.7-.27-11.78.53-15.82.84-4.27 2.28-6.78 4.17-7.28.32-.08.94-.08 1.23 0 .95.25 1.74 1.1 2.5 2.66.53 1.08.9 2.12 1.56 4.4.72 2.47.97 3.04 1.32 3.04.17 0 .68-.24 1-.48a5.63 5.63 0 0 0 1.58-1.93 6.19 6.19 0 0 0-.23-2.66c-.92-3.6-3.16-6.2-6.01-6.97a6.6 6.6 0 0 0-1.92-.25c-.69-.02-.87 0-1.17.06Zm34.44 3.8c-.55.13-1.17.7-1.78 1.63-1.22 1.86-2.56 5.5-3.72 10.17a67.96 67.96 0 0 0-1.7 9.54 58.1 58.1 0 0 0-.25 10.73l.06.67-.3.87c-1.63 4.6-3.26 7.33-4.85 8.08-.53.26-1.13.28-1.47.07-.9-.57-1.47-2.87-1.6-6.5-.04-1.52.14-4.86.47-8.27.21-2.22.23-2.46.24-3.03 0-.79-.02-.82-.45-.6a8.11 8.11 0 0 0-2.33 2.18c-.16.24-.33.54-.39.68-.14.36-.57 2.59-.83 4.36-.48 3.24-.55 6.35-.17 8.43a7.52 7.52 0 0 0 1.55 3.63c.7.78 1.75 1.27 2.84 1.34 2.46.14 4.84-2 6.96-6.27a48.07 48.07 0 0 0 .99-2.1 26.14 26.14 0 0 0 1.54 4c.95 1.91 1.8 2.87 3.18 3.54a5.8 5.8 0 0 0 2.61.64c1.48 0 2.85-.59 4.07-1.78a10.9 10.9 0 0 0 1.85-2.43l.3-.52.03 1.4c.02 1.38.04 1.65.18 2 .05.15.09.19.22.22.64.18 2.67-.73 3.54-1.58.42-.4.42-.42.45-1.8.1-3.96.65-7.54 1.64-10.64.7-2.17 1.83-4.6 2.49-5.35.26-.3.48-.45.65-.45.14 0 .15.02.26.26.53 1.19 1.5 7.12 1.72 10.62a244.48 244.48 0 0 1 .3 6.98c.07 1 .13 1.25.35 1.25.31 0 1.2-.95 1.57-1.7.1-.2.12-.3.12-.5 0-.64.22-2.53.49-4.15a47.3 47.3 0 0 1 2.76-10.3c.36-.83.93-1.66 1.53-2.27.5-.49.82-.67 1.14-.65.6.06 1.28.63 1.68 1.45.85 1.7 1.03 5.05.53 9.6a88.79 88.79 0 0 1-1.06 6.8c-.1.53-.17.94-.15 1.02.06.3.32.36.67.15.26-.14.9-.81 1.14-1.18.1-.15.22-.41.28-.61.33-1.07.72-3.47.92-5.66.15-1.63.17-2.1.17-4.32 0-2.43-.03-2.94-.25-4.43-.34-2.19-1.02-4.04-1.75-4.71a4.23 4.23 0 0 0-3.56-.67c-.47.16-1.23.57-1.67.9-1.57 1.17-2.64 2.89-3.54 5.68l-.26.8-.12-1.03a23.28 23.28 0 0 0-1.14-5.55 5.16 5.16 0 0 0-1.21-1.99c-.5-.47-1-.67-1.63-.63-1.08.07-2.1.82-3 2.18a19.23 19.23 0 0 0-1.69 3.58 2.52 2.52 0 0 0-.7-.91 2.09 2.09 0 0 0-1.4-.47c-.86 0-1.56.44-1.93 1.23-.23.48-.32.85-.53 2.34-.88 6.1-2.05 10.85-3.32 13.49-.68 1.4-1.22 2-1.8 2-.57 0-1.23-.3-1.74-.82-.9-.9-1.54-2.39-1.96-4.6a32.18 32.18 0 0 1-.48-6.16c0-1.32 0-1.6.06-1.75.16-.44 1.83-6.7 2.47-9.21.7-2.78 1.18-5.21 1.88-9.42.3-1.85.5-3.25.66-4.5.18-1.4.2-1.66.2-2.37 0-1.09-.18-1.7-.6-2.16a1.46 1.46 0 0 0-1.43-.47Zm.22 3.62c-.28.33-.7 1.46-1.08 2.92-.82 3.16-1.84 9.07-2.78 16.16l-.23 1.77c.01.19 1.84-7.76 2.65-11.55 1.1-5.1 1.61-7.96 1.61-8.98 0-.42-.03-.49-.17-.32ZM32.73 9.12c-.8.28-1.47 1.1-1.73 2.1-.12.47-.11 1.3.02 1.72.33 1.06 1 1.65 1.9 1.66 1.07 0 2.02-.88 2.37-2.2a4 4 0 0 0 .03-1.61c-.3-1.13-1.03-1.78-2-1.77-.22 0-.4.03-.6.1Zm-5.07 42.93c-.83.2-1.3.92-1.3 2 0 .69.17 1.19.53 1.54.3.3.58.39 1.12.39.48 0 .78-.09 1.03-.29.1-.09.12-.13.12-.3 0-.1-.01-.2-.03-.21-.02-.02-.1 0-.19.06-.38.23-.52.27-.87.27-.39 0-.58-.08-.82-.34-.23-.26-.3-.53-.3-1.15 0-.6.05-.82.29-1.15.34-.47 1.08-.52 1.65-.11.18.12.25.08.25-.15 0-.22-.08-.33-.35-.44a1.8 1.8 0 0 0-1.13-.12Zm46.73.02c-.27.1-.41.2-.54.39-.3.45-.18 1.07.26 1.4.1.07.36.22.59.33.24.12.48.27.56.36.13.13.15.17.15.37 0 .43-.28.64-.81.61a1.23 1.23 0 0 1-.6-.15.92.92 0 0 0-.35-.12c-.04.01-.06.08-.06.2 0 .23.13.35.5.46a2 2 0 0 0 1.22-.03c.44-.2.7-.64.65-1.1-.04-.48-.25-.71-.97-1.07-.66-.32-.82-.5-.75-.85a.5.5 0 0 1 .15-.26c.1-.11.16-.13.41-.14.26-.02.32 0 .6.12.32.15.36.14.37-.1 0-.19-.07-.26-.3-.37a1.65 1.65 0 0 0-1.08-.05Zm-43.64.03c-.02.03.22.55.53 1.17l.56 1.1.02.79.02.78.22.01c.16.01.24 0 .27-.04.01-.03.03-.38.03-.78v-.73l.56-1.14c.63-1.25.62-1.24.25-1.21h-.2l-.26.54a24.72 24.72 0 0 0-.6 1.27c-.01.02-.19-.32-.4-.76-.5-1.11-.47-1.06-.75-1.06-.16 0-.24.02-.25.06Zm4.8-.02a.22.22 0 0 0-.12.14v3.72h.51l.02-1.68.02-1.68.62 1.64c.34.9.64 1.66.67 1.69.02.04.11.05.25.04l.21-.01.67-1.68.67-1.68.02 1.68.02 1.68h.51v-1.86c.01-1.5 0-1.87-.04-1.93-.07-.1-.42-.14-.62-.07-.2.06-.22.1-.85 1.67l-.56 1.36c-.02.04-.23-.45-.57-1.3-.67-1.72-.63-1.64-.8-1.71a1.1 1.1 0 0 0-.63-.02Zm6.47.04c-.08.08-.08.14-.08 1.91 0 1 .01 1.85.03 1.88.03.04.11.05.26.04l.23-.01.01-.86.01-.86.31.02c.5.02.59.12.96 1.05l.26.65.24.01c.19.01.24 0 .26-.05a7.34 7.34 0 0 0-.55-1.44 1.1 1.1 0 0 0-.22-.28l-.13-.11.18-.1c.4-.25.6-.66.5-1.1-.14-.62-.58-.83-1.7-.83-.43 0-.5 0-.57.08Zm4.6-.05a6.1 6.1 0 0 0-.03 1.51v1.47l.13.24c.13.27.33.47.6.6.17.08.28.1.68.1.42 0 .51-.02.7-.1.28-.14.56-.44.68-.75.1-.25.1-.3.12-1.62a6.8 6.8 0 0 0-.04-1.42c-.03-.03-.12-.06-.2-.06-.32 0-.3-.1-.3 1.37 0 1.4-.02 1.56-.2 1.84-.28.38-1.08.4-1.42.03-.22-.25-.24-.33-.26-1.83l-.02-1.4h-.19c-.1 0-.21 0-.24.02Zm7.57.02c-.03.05.09.52.48 1.91.3 1.02.55 1.88.57 1.9.03.04.15.06.33.06.23 0 .3-.01.33-.07l.38-1.47.37-1.42c.02-.02.2.58.4 1.33l.42 1.5c.06.13.06.13.35.13.19 0 .3-.02.33-.05a58.42 58.42 0 0 0 1.05-3.82c-.05-.06-.36-.07-.44-.02-.03.02-.23.73-.45 1.6l-.44 1.62c-.01.04-.2-.6-.46-1.54a32.1 32.1 0 0 0-.47-1.66c-.06-.07-.43-.07-.5 0-.03.04-.23.78-.45 1.65-.22.87-.41 1.57-.43 1.55l-.43-1.56a41 41 0 0 0-.45-1.62c-.04-.09-.41-.1-.49-.02Zm7.73 0a49.5 49.5 0 0 0-1.36 3.81c.03.08.42.08.48 0 .02-.02.1-.25.2-.5l.15-.45H63l.17.5.17.49.26.01c.17.01.25 0 .27-.04a72.8 72.8 0 0 0-1.35-3.81c-.06-.08-.5-.08-.6 0Zm3.9 0c-.04.04-.05.51-.05 1.87 0 1.67 0 1.83.08 1.91.07.1.1.1.99.08l.91-.01.03-.1a.52.52 0 0 0 0-.22l-.03-.1-.71-.01-.72-.02v-1.7c0-1.89.02-1.75-.3-1.75-.08 0-.17.02-.2.05Zm3.93.01-.09.07V54c0 1.6 0 1.84.07 1.9.05.05.2.06 1.04.06.93 0 .98 0 1.02-.08.06-.12.06-.24-.02-.32-.05-.05-.19-.06-.82-.06h-.75v-1.35h.64c.7 0 .74-.02.74-.22 0-.22-.07-.25-.75-.25h-.63V52.5h.77c.84 0 .82 0 .82-.25 0-.2-.03-.21-1.02-.21-.77 0-.94 0-1.02.06Zm-27.27 1.03v.64h.4c.33 0 .43-.02.56-.1.2-.1.3-.27.3-.53 0-.47-.23-.64-.87-.64h-.39v.63Zm19.66-.42c-.1.27-.6 1.73-.6 1.77a10.01 10.01 0 0 0 1.3.03l-.33-.95c-.28-.83-.33-.94-.37-.85Z" clip-rule="evenodd"/>
</svg>
