<svg xmlns="http://www.w3.org/2000/svg" fill="none" viewBox="0 0 130 24">
  <path fill="#000" fill-rule="evenodd" d="M37.23.69a603.14 603.14 0 0 1-2.47 1.62c-.02.03 1.03 1.85 1.1 1.9a129.7 129.7 0 0 1 2.22-1.43l.26-.17.14.1a195.85 195.85 0 0 1 2.02 1.31l.3.2.57-.93.56-.96-.5-.33L39.68.84c-.7-.46-1.3-.84-1.33-.84-.03 0-.53.3-1.1.69ZM.03 5.98C0 5.99 0 10.05 0 15v9h3.71v-6.58h7v-3.6h-7V9.55h9v-3.6H6.37c-3.48 0-6.34.01-6.35.03Zm14.25 9V24h3.67l.01-2.97.01-2.96 1.73-.01 1.72-.01.1.2a1137.3 1137.3 0 0 0 2.46 4.72l.54 1.03h2.02c1.1 0 2.02-.01 2.02-.02A2559.96 2559.96 0 0 0 25 17.29l.15-.08c.32-.15.9-.6 1.24-.95a5.62 5.62 0 0 0 1.45-2.98c.12-.66.12-1.86 0-2.53a5.51 5.51 0 0 0-4.75-4.7c-.33-.07-.81-.08-4.6-.09l-4.22-.01v9.02ZM36.23 6a9301.94 9301.94 0 0 0-6.62 17.96c0 .03.7.04 1.95.03l1.96-.01.73-2.05.73-2.04h3.36l3.35.02.73 2.04.73 2.05h1.96c1.08 0 1.96-.01 1.96-.02l-1.22-3.33a2249.22 2249.22 0 0 1-3.99-10.8L40.8 6.98l-.37-1.03h-2.1c-1.63 0-2.09.01-2.1.05Zm12.15 8.97V24h3.67l.01-5.61.01-5.6.33.42 6.32 8.45L60.47 24h3.31V5.95h-1.84l-1.85.02-.02 5.58-.02 5.59-1.48-1.98a35246.67 35246.67 0 0 1-6.8-9.1l-.07-.1-1.66-.01h-1.66v9.02Zm24.28-8.8A9674.46 9674.46 0 0 0 77.64 22l.63 2h3.56l.16-.53a1569.28 1569.28 0 0 1 1.55-5.2l1.55-5.18.2-.7c.04-.1.07-.13.13-.13.07 0 .1.09.34.87a652.76 652.76 0 0 0 1.84 6.16 1687.73 1687.73 0 0 1 1.24 4.16L89 24l1.78-.01 1.78-.01.68-2.13a9330.14 9330.14 0 0 0 4.97-15.86c0-.03-.53-.04-1.89-.04h-1.89l-.05.19a213.32 213.32 0 0 0-.95 3.18 2178.64 2178.64 0 0 0-2.42 8.2c-.16.56-.17.58-.25.56-.04 0-.15-.35-.4-1.19A8598.29 8598.29 0 0 0 87.5 7.2l-.37-1.23-1.72-.01-1.72-.01-.14.48a6478.78 6478.78 0 0 1-3.4 11.53c-.03.09-.06.13-.12.13-.04 0-.07-.01-.07-.02l-.16-.58a5048.5 5048.5 0 0 1-2.84-9.61l-.57-1.93h-3.8l.06.22Zm27.02 8.8V24h13.04v-3.6h-9.36v-3.88h8.13v-3.48h-8.13V9.55h9.14v-3.6H99.68v9.02Zm14.92 0V24h3.67v-5.6c0-3.08.01-5.6.03-5.6a6786.34 6786.34 0 0 0 8.31 11.09l.07.1H130V5.96h-3.67V17.2l-.22-.3A2035.08 2035.08 0 0 1 118 6.09l-.09-.13h-3.32v9.02Zm-96.64-2.96.01 2.46h1.87c2.29.02 2.59 0 3.12-.3.44-.23.87-.76 1.05-1.3.13-.39.16-1.02.07-1.45a2.32 2.32 0 0 0-1.5-1.74l-.3-.1-2.17-.02-2.16-.01.01 2.46Zm20.32-1.52-2.04 5.9 2.1.01h2.1c-.02-.11-2.06-5.93-2.1-5.94-.01 0-.04 0-.06.03Z" clip-rule="evenodd"/>
</svg>
