<svg xmlns="http://www.w3.org/2000/svg" fill="none" viewBox="0 0 50 58">
  <path fill="#000" d="M10.04 15.87V0l2.21.05 8.35 11.92.05-11.96h2.17l-.05 15.87-1.99.01-8.52-12.14-.04 12.12h-2.18Zm27.73 7.26v-2.06H50v2.06l-4.94.05-.04 13.75h-2.27v-13.8h-4.98Zm-35.3 27.2a4498.4 4498.4 0 0 1-2.39-7.9l-.08-.3 2.38.05 1.74 6.1 1.8 6.31c.05.17.08.2.13.09.04-.07.97-2.93 2.06-6.34l1.98-6.2h2.11l.23.69 2 6.2c1.63 5.05 1.85 5.75 1.9 5.74.02 0 .02-.05.04-.09l1.79-6.32 1.74-6.18 1.14-.03c.63-.01 1.14 0 1.14.05 0 .04-1.05 3.6-2.34 7.91l-2.34 7.84h-2.3l-2-6.2c-1.1-3.41-2.03-6.18-2.07-6.14-.03.03-.95 2.84-2.04 6.23L7.1 58l-2.33-.05-2.3-7.62ZM33.2 9.24c.78 0 1.41.62 1.41 1.39a1.4 1.4 0 0 1-1.4 1.39h-5.17a1.4 1.4 0 0 1-1.4-1.4c0-.76.63-1.38 1.4-1.38h5.17ZM9.79 21.2a1.4 1.4 0 0 1 2.8.01v5.1a1.4 1.4 0 0 1-1.4 1.4 1.4 1.4 0 0 1-1.4-1.4v-5.1Zm1.4 9.1c-.78 0-1.4.62-1.4 1.39v5.11c0 .77.62 1.39 1.4 1.39.78 0 1.4-.62 1.4-1.39v-5.1a1.4 1.4 0 0 0-1.4-1.4Zm23.42 17.08a1.4 1.4 0 0 0-1.4-1.4h-5.17a1.4 1.4 0 1 0 0 2.78h5.17c.77 0 1.4-.62 1.4-1.38ZM43.9 9.24c.77 0 1.4.62 1.4 1.39v5.1a1.4 1.4 0 0 1-1.4 1.4 1.4 1.4 0 0 1-1.4-1.4v-3.71h-3.77a1.4 1.4 0 0 1-1.4-1.4c0-.76.63-1.38 1.4-1.38h5.17Zm0 39.53c.77 0 1.4-.63 1.4-1.4v-5.1a1.4 1.4 0 0 0-1.4-1.4c-.78 0-1.4.63-1.4 1.4v3.72h-3.77c-.77 0-1.4.62-1.4 1.39 0 .76.63 1.39 1.4 1.39h5.17Z"/>
</svg>
