<svg xmlns="http://www.w3.org/2000/svg" fill="none" viewBox="0 0 201 28">
  <path fill="#000" d="M6.95 1.66A15.59 15.59 0 0 1 5.2.58C5.2.54 12.63.5 21.7.5c9.09 0 16.51.06 16.51.14 0 .08-.34.33-.76.56l-8.18 4.65a527.32 527.32 0 0 1-7.5 4.23c-.03 0-3-1.67-6.57-3.72l-8.25-4.7Zm43.46 11.58c0-6.88.06-12.56.13-12.63.07-.07.33-.1.58-.07l.46.05.04 12.58.05 12.58h-1.26v-12.5ZM58 4.37c-.19-1.35.83-2.69 2.42-3.18 1.25-.4 3.96.15 4.91 1 .34.29.3.45-.37 1.27-.33.4-.37.41-.68.13-1.52-1.33-4.78-.95-4.27.5.16.43.37.56 1.53.91 2.44.74 2.92.95 3.56 1.5.55.5.63.68.7 1.62.1 1.43-.38 2.3-1.64 2.92-1.6.77-4.37.52-5.77-.52-.74-.55-.76-.67-.17-1.42l.44-.57.9.58c1.03.68 2.35.93 3.32.62.69-.22.99-.6.99-1.3 0-.58-.47-.85-2.36-1.36-2.48-.67-3.32-1.32-3.5-2.7Zm58.83 1.54c.15-2.51 1.65-4.22 4.18-4.77a5.4 5.4 0 0 1 4.5 1.14c.43.38.79.77.79.85 0 .08-.33.31-.74.51l-.74.37-.47-.44c-.61-.57-1.3-.8-2.29-.8-.84 0-1.92.43-2.44.98a4.06 4.06 0 0 0-.52 4.2c1.24 2.36 4.5 2.58 5.68.37.14-.27.26-.57.26-.67 0-.12-.66-.18-1.8-.18h-1.78V5.9h5.79l-.12 1c-.15 1.27-1.03 3.04-1.8 3.6a5.5 5.5 0 0 1-3.4.97c-1.64 0-2.8-.5-3.84-1.64a4.79 4.79 0 0 1-1.26-3.92ZM93.86 2.9c-.26-.25-.28-.91-.03-1.37.13-.22.38-.33.77-.33.74 0 1.02.26 1.02.95s-.28.96-.99.96c-.3 0-.65-.1-.77-.2Zm10.91 8.4V1.2h1.62v1.74c0 .96.02 1.74.04 1.74l.93-.44c1-.49 1.97-.55 2.88-.18 1.03.42 1.17.9 1.17 4.28v2.98l-.85-.06-.86-.05-.09-2.75c-.1-3.06-.1-3.08-1.35-3.08-.67 0-1.43.33-1.74.77-.07.1-.13 1.3-.13 2.67v2.48h-1.61ZM83.96 3.98V2.07h1.8v1.91h1.43v1.4h-1.44v2.15c0 2.35.12 2.66.95 2.45.38-.09.47-.02.64.43.16.47.14.57-.2.8-.62.42-2 .34-2.59-.16l-.5-.42L83.99 8l-.06-2.62h-.61c-.6 0-.62-.02-.62-.7 0-.68.02-.7.63-.7h.63Zm5.2 0V2.07h1.8v1.91h1.43v1.4h-1.43v2.15c0 2.35.12 2.66.94 2.45.39-.09.48-.02.65.47.27.75-.06 1.02-1.28 1.02-1.8 0-2.1-.57-2.1-3.82V5.38h-.64c-.6 0-.62-.02-.62-.7 0-.68.01-.7.62-.7h.63Zm108.36 0V2.07h1.8v1.91h1.43v1.4h-1.44v2.15c0 2.35.13 2.66.95 2.45.38-.09.48-.02.65.47.27.75-.06 1.02-1.28 1.02-1.82 0-2.1-.51-2.1-3.73V5.38h-.64c-.61 0-.63-.02-.63-.7 0-.68.02-.7.63-.7h.63ZM0 22.97v-9.75c0-5.37.06-9.76.14-9.76.08 0 .22.07.32.16s3.72 2.25 8.06 4.8c4.34 2.54 7.91 4.69 7.93 4.76.04.1-14.59 8.84-16.01 9.57l-.44.22ZM33.41 9.5c3.38-1.98 7.04-4.15 8.12-4.8a31.66 31.66 0 0 1 2.1-1.22c.08-.01.14 4.38.14 9.75v9.76l-.87-.5a884.61 884.61 0 0 1-15.62-9.28c0-.05 2.75-1.72 6.13-3.7ZM67.5 5.68a3.56 3.56 0 0 1 2.02-1.66c1.27-.44 2.96-.15 3.73.63l.49.49-.53.49-.53.49-.48-.37c-.34-.26-.74-.37-1.34-.37-.75 0-.92.07-1.4.6a2.4 2.4 0 0 0-.65 2.23c.38 1.7 2.24 2.4 3.45 1.3l.4-.37.57.54c.5.48.53.59.32.84-1.06 1.24-3.99 1.26-5.35.03a4.1 4.1 0 0 1-.7-4.87Zm30.01 1.59c-.88-1.02-.46-2.54.86-3.12 1.27-.56 3.35-.34 4.24.44.32.27.32.32.04.8-.36.6-.4.6-1.15.16-.8-.47-2.12-.47-2.55 0-.48.5-.23.83.92 1.13 2.65.71 3.29 1.19 3.28 2.47 0 1.5-1.11 2.32-3.17 2.32a4.2 4.2 0 0 1-2.17-.45c-.51-.25-.93-.54-.93-.66 0-.17.2-.52.63-1.12.02-.02.33.12.7.33 1.35.77 2.99.76 3.25-.03.15-.48-.19-.82-1.06-1.05-1.96-.52-2.46-.73-2.89-1.22Zm57.31-2.94c0 .44 0 .44 1-.09 1.27-.65 1.52-.6 1.52.35 0 .67-.06.79-.36.79-.58 0-1.8.54-1.98.88-.1.17-.18 1.37-.18 2.67v2.37h-1.61V3.98h.8c.7 0 .81.05.81.35Zm5.86.09a5 5 0 0 1 .94-.45c.78-.25 2.3-.08 2.73.29.75.64.88 1.29.88 4.24v2.8h-1.8V8.72c0-3.05-.1-3.34-1.3-3.34-.44 0-1 .14-1.34.34l-.57.34-.05 2.58-.05 2.57-.86.05-.85.06V3.98h.9c.8 0 .9.05.9.37 0 .36 0 .36.47.07Zm8.14-.09c0 .44-.02.44.92-.08 1.22-.68 2.52-.56 3.22.3.28.34.3.34 1.06-.15.64-.41.97-.5 1.84-.5.97 0 1.1.04 1.58.56l.53.57v6.27h-1.61l-.01-2.48c0-2.98-.13-3.33-1.18-3.4-.52-.05-.85.04-1.2.3-.48.37-.48.39-.53 2.93l-.05 2.56-.85.05-.85.06V8.73c0-3.02-.13-3.35-1.24-3.35-.48 0-.83.13-1.16.42-.47.43-.47.45-.47 2.96v2.54h-1.61V3.98h.8c.69 0 .8.05.8.35Zm21.87.19c.28-.2.7-.43.94-.53.73-.28 2-.2 2.6.16.97.57 1.05.85 1.05 4.1v2.96l-.85.05-.86.06V8.69c0-2.39-.03-2.65-.35-2.97-.55-.52-1.8-.47-2.5.1l-.55.46v5.02h-1.61V3.98h.8c.75 0 .8.04.8.45v.45l.53-.36ZM93.83 11.3V3.98h1.61v7.32h-1.61Zm43.67-3.66c-.84-1.96-1.51-3.59-1.51-3.62a4 4 0 0 1 .93 0l.94.05.99 2.47a36.26 36.26 0 0 0 1.1 2.57c.06.05.57-1.08 1.14-2.52l1.04-2.6h.88c.48 0 .87.05.87.12 0 .07-.67 1.72-1.48 3.66l-1.48 3.54-.96-.05-.96-.05-1.5-3.57Zm-68.37 8.52c-1.03.79-2.25-.47-1.38-1.41.4-.42 1.05-.4 1.5.03.49.48.45.95-.12 1.38Zm19.67 3.58c0-2.62.05-4.88.11-5.03.08-.2.35-.28.9-.28h.79v3.68l.5-.33c1.13-.77 2.23-.9 3.37-.4 1.07.47 1.17.83 1.11 4.28l-.05 2.96-.76.05-.76.06v-2.6c0-2.37-.04-2.64-.38-3.06-.48-.6-1.47-.62-2.33-.06l-.61.4-.05 2.65-.05 2.65h-.61c-1.24 0-1.18.28-1.18-4.97Zm17.62-.36c-.03-2.46 0-4.59.04-4.72.07-.17.33-.23.87-.2l.76.06.05 4.16c.03 2.8.11 4.25.25 4.4.13.16.38.2.7.14.42-.09.5-.03.69.47.27.76-.07 1.02-1.36 1.02-.73 0-1.05-.1-1.44-.42l-.5-.42-.06-4.49Zm50.38 5.35v-10.3h1.61v1.74c0 .96.04 1.74.09 1.74.04 0 .43-.17.85-.39 1.02-.52 2.43-.53 3.13-.02.87.62.95.96.95 4.21v3.02l-.76-.06-.76-.05-.09-2.64c-.08-2.32-.13-2.68-.45-3.02-.3-.32-.5-.37-1.22-.3-.56.05-1 .21-1.3.47-.41.39-.43.5-.48 2.95l-.05 2.54-.76.05-.76.06Zm23.86-.88v-9.44l.76.05.76.06.1 4.18c.04 2.3.15 4.28.23 4.4.09.13.4.2.7.18.47-.05.58.02.73.45.24.69-.18.98-1.44.98-.78 0-1.04-.08-1.4-.43l-.44-.43Zm-70.37-6.6c.58-.05.58-.06.58-1v-.95h1.61v1.9l.77.05c.76.05.76.06.76.75 0 .7 0 .7-.76.75l-.77.05v1.98c0 2.25.18 2.64 1.1 2.44.46-.1.5-.06.62.53.16.8-.05.95-1.36.95-1.74 0-1.97-.42-1.97-3.54V18.8l-.58-.06c-.55-.05-.59-.09-.59-.75s.04-.7.59-.75ZM5.28 25.66l8.17-4.64a398.5 398.5 0 0 1 8.3-4.66c.08 0 1.7.87 3.6 1.96l8.2 4.66 4.75 2.68-8.3.05c-4.56.02-11.99.02-16.5 0l-8.22-.05Zm119.23-4.76c-1.43-1.02-1-2.98.8-3.6.4-.13.97-.25 1.27-.25.69 0 2.2.43 2.67.78.35.26.35.28.03.85l-.32.59-.75-.42c-1.32-.73-2.92-.46-2.78.47.05.37.24.47 1.5.79.8.2 1.61.45 1.8.55 1.53.8 1.47 2.92-.12 3.7-1.32.66-4.19.34-4.95-.55-.16-.2-.14-.36.15-.8l.35-.54.83.45c1.13.61 2.45.65 2.93.08.59-.7.25-.98-1.88-1.5a5.67 5.67 0 0 1-1.53-.6Zm12.82-3.09c.25-.16.76-.4 1.13-.53a3.5 3.5 0 0 1 2.61.2c.78.49.9 1.04.98 4.07.07 3.17.08 3.15-1.09 3.15h-.67v-2.53c0-2.45-.11-3.1-.6-3.43-.42-.26-1.5-.12-2.1.27l-.62.4-.05 2.66-.05 2.65-.75-.05-.76-.05-.05-3.7-.05-3.7h.81c.75 0 .81.03.81.44 0 .43.01.43.45.15Zm-69.65 3.33a40.3 40.3 0 0 1 .04-3.71c.06-.16.34-.22.85-.18l.77.05.05 3.61.05 3.61-.44.1c-.24.07-.62.09-.85.06l-.43-.06-.04-3.48Zm97.37.62v-1.58h3.79l-.06.74-.05.74-1.84.05-1.84.05Z"/>
  <path fill="#000" fill-rule="evenodd" d="M76.4 4.3a2.8 2.8 0 0 0-1.46 1.43c-.46.84-.51 1.1-.46 2.2.06 1.06.15 1.37.6 2 .3.4.9.92 1.35 1.15.68.35 1 .4 2.07.36 1.65-.08 2.52-.6 3.2-1.9a3.86 3.86 0 0 0-5.3-5.25Zm-.12 3.08c.08-.87.17-1.09.66-1.51.44-.38.74-.5 1.35-.5 1.4 0 2.2 1.02 2.04 2.63-.16 1.57-1.53 2.44-2.88 1.82-.9-.41-1.27-1.2-1.17-2.44Zm-3.12 9.84c-1.51.44-2.34 1.75-2.33 3.7 0 1.44.21 2.1.9 2.8.71.73 1.33.99 2.42.99.73 0 1.13-.1 1.62-.43.62-.41.66-.42.66-.1 0 .38.57.6 1.28.5l.42-.06V17.3h-.8c-.7 0-.81.06-.9.44-.08.32-.15.37-.26.2-.2-.33-1.54-.9-2.08-.88-.24 0-.66.08-.93.16Zm-.4 2.64c.17-.42.5-.85.77-.99a2.4 2.4 0 0 1 2.3.1l.6.37-.04 1.59-.05 1.59-.63.4c-1.84 1.22-3.86-.87-2.96-3.06Zm-14.55-5.23c-.05.13-.07 2.43-.04 5.11l.05 4.88H60l.05-1.88.05-1.88.84.05.83.05 1.03 1.66c.56.9 1.11 1.75 1.23 1.87.22.24 1.9.3 2.05.08.05-.08-.43-.92-1.06-1.88a20.41 20.41 0 0 1-1.16-1.85c0-.07.29-.26.64-.42 2.24-1.03 2.13-4.39-.2-5.6-.74-.4-5.95-.55-6.1-.19Zm1.89 4.68v-3.14h1.54c1.46 0 1.56.03 2.06.51.59.57.65 1.01.26 1.75-.33.63-1.08.88-2.63.88H60.1Zm21.75-2.06a3.85 3.85 0 0 0-2 2.18 5.85 5.85 0 0 0 0 2.88c.6 2.09 3.19 2.99 4.9 1.69l.47-.36v.72c0 .56-.12.83-.53 1.23-.46.45-.65.5-1.59.5-.83 0-1.2-.08-1.7-.42l-.65-.42-.4.62c-.32.5-.35.64-.14.78 1.81 1.22 4.77 1.11 6.03-.22.7-.74.77-1.26.77-5.3v-3.91h-.82c-.66 0-.85.06-.92.33-.09.33-.1.33-.67 0a3.96 3.96 0 0 0-2.75-.3Zm-.36 3.3c.07-.8.17-1.03.65-1.45.7-.6 1.63-.65 2.5-.14l.58.34v1.55c0 1.48-.03 1.57-.47 1.85a2.3 2.3 0 0 1-2.2.2c-.81-.42-1.16-1.18-1.06-2.34Zm17.95-3.32c-1.62.48-2.6 2.44-2.25 4.49.36 2.03 1.42 2.99 3.32 2.99.74 0 1.14-.1 1.62-.43l.65-.42.05.38c.06.41.6.57 1.34.39l.43-.1-.05-3.62-.05-3.6h-.8c-.7 0-.82.05-.87.39l-.06.39-.58-.44a3.47 3.47 0 0 0-2.75-.42Zm-.51 3.26c.13-.81.46-1.34 1.04-1.65a2.4 2.4 0 0 1 2.23.14l.61.36-.05 1.59-.05 1.59-.63.4c-1.6 1.06-3.49-.4-3.15-2.43Zm18.13-3.26c-1.34.38-2.23 1.85-2.24 3.7 0 2.4 1.18 3.78 3.28 3.78.73 0 1.13-.1 1.62-.43l.64-.42.05.38c.05.32.17.38.87.38h.8V17.3h-.8c-.69 0-.8.06-.9.41l-.1.41-.33-.36c-.58-.62-1.8-.84-2.89-.53Zm.17 5.54c-.97-.93-.92-2.8.1-3.68.67-.59 1.61-.64 2.47-.13l.58.34v1.64c0 1.59-.02 1.64-.5 1.96-.76.5-2.07.44-2.65-.13Zm13.28-18.75c-.9.3-1.64.95-2.06 1.8-.33.65-.38 1.01-.33 2.08.06 1.08.15 1.4.6 2.04a4 4 0 0 0 6.16.2c1.72-2.02.74-5.48-1.72-6.15a5.08 5.08 0 0 0-2.65.03Zm-.62 3.58c0-.86.07-1.07.55-1.6.5-.56.66-.62 1.46-.62.76 0 .97.07 1.4.52 1.24 1.3.65 3.7-1.01 4.11-.23.06-.7 0-1.06-.1-.9-.3-1.34-1.05-1.34-2.3Zm15.93 9.62c-1.48.43-2.33 1.74-2.34 3.61-.01 2.45 1.22 3.88 3.33 3.88.73 0 1.12-.1 1.62-.43.61-.41.65-.42.65-.1 0 .38.57.6 1.28.5l.43-.06V17.3h-.81c-.71 0-.81.05-.87.41-.06.41-.06.41-.45.07a3.08 3.08 0 0 0-2.84-.56Zm-.52 4.37a2.5 2.5 0 0 1 .75-2.53c.68-.56 1.6-.59 2.44-.08l.6.36-.05 1.59-.05 1.59-.63.4c-1.23.82-2.71.17-3.06-1.33ZM181.54 4.3a2.8 2.8 0 0 0-1.47 1.43c-.46.84-.51 1.1-.46 2.2.06 1.05.15 1.38.6 2 .75 1.05 1.81 1.54 3.32 1.54.87 0 1.39-.1 1.98-.4.9-.43 1.03-.73.56-1.31l-.32-.4-.67.38c-.54.3-.86.36-1.66.3-1.1-.09-1.75-.55-1.96-1.4l-.12-.48h5.6v-.83c-.02-2.76-2.83-4.34-5.4-3.04Zm-.16 2.45c0-.2.27-.63.6-.96.5-.48.75-.59 1.37-.59.62 0 .86.1 1.36.6.34.32.61.75.61.95 0 .35-.09.37-1.97.37-1.89 0-1.97-.02-1.97-.37Zm-8.08 8.02c-.6 1.11-3.92 9.68-3.8 9.8.1.09.56.13 1.04.1l.88-.05.36-.91.36-.92h4.77l.26.65c.46 1.12.52 1.18 1.42 1.23.47.03.93 0 1-.09.09-.07-.76-2.37-1.87-5.1l-2.01-4.96-1.1-.05c-.96-.05-1.13 0-1.3.3Zm-.4 6.19c-.05-.05.28-1.07.74-2.26.46-1.19.88-2.1.94-2.04.16.18 1.6 3.93 1.6 4.18 0 .15-.47.2-1.6.2-.86 0-1.62-.03-1.67-.08Zm12.1-1.44.05 5.1.76.05c.72.05.77.03.77-.39 0-.55 0-.55.82-.01.78.5 2.28.6 3.1.18.77-.38 1.6-1.4 1.76-2.14.39-1.8-.14-3.84-1.17-4.54-1.23-.84-2.82-.88-3.78-.1-.28.23-.56.42-.62.42-.06 0-.11-.82-.11-1.83v-1.83h-1.62l.04 5.1Zm1.58 1.53c0-1.4.15-1.8.85-2.17a2.13 2.13 0 0 1 3.1 1.31c.65 2.35-1.75 4.08-3.49 2.51-.41-.37-.46-.55-.46-1.65Zm9.29-3.83c-.83.24-1.53.84-1.94 1.66-.33.66-.38 1.02-.33 2.32.05 1.28.14 1.63.5 2.16.97 1.36 3.04 1.8 4.38.92.62-.41.66-.42.66-.1 0 .38.57.6 1.28.5l.42-.06V17.3h-.8c-.7 0-.81.06-.9.44-.08.32-.15.37-.26.2-.2-.33-1.54-.9-2.08-.88-.24 0-.66.08-.93.16Zm-.34 2.55c.21-.42.56-.85.78-.95.65-.3 1.57-.24 2.23.16l.6.36-.04 1.59-.05 1.59-.63.4c-1.9 1.25-3.96-1-2.89-3.15ZM146.57 4.09a4.19 4.19 0 0 0-2 1.88 4.33 4.33 0 0 0 .3 3.95c.76 1.06 1.82 1.55 3.3 1.55.88 0 1.4-.1 2-.4.9-.44 1.05-.76.57-1.33l-.32-.4-.68.4c-.54.3-.86.36-1.68.3-.85-.07-1.09-.17-1.52-.63-.28-.3-.5-.71-.5-.9 0-.33.12-.35 2.88-.35h2.9l-.13-.83a4.64 4.64 0 0 0-1.05-2.45 3.96 3.96 0 0 0-4.07-.8Zm-.53 2.72c0-.47.44-1.11.91-1.37a2.9 2.9 0 0 1 1.12-.23c.55 0 .81.11 1.3.58.34.33.61.76.61.96 0 .35-.09.37-1.97.37-1.77 0-1.98-.04-1.97-.3Z" clip-rule="evenodd"/>
</svg>
