<svg xmlns="http://www.w3.org/2000/svg" fill="none" viewBox="0 0 176 28">
  <path fill="#000" d="m14.31 8.23-2.66.38a5.29 5.29 0 0 0-4.27-2.5c-.79 0-2.3.3-2.3 1.25 0 1.21 2.05 1.41 2.97 1.55l1.65.32c1.47.1 2.9.57 4.13 1.36a4.35 4.35 0 0 1 1.68 3.48c0 3.87-3.78 5.82-7.39 5.82A9.63 9.63 0 0 1 3.91 19l-.35.67H1.32L0 14.43l2.66-.37c1.35 1.71 2.65 2.93 5 2.93.9 0 2.9-.37 2.9-1.55-.02-.26-.13-.5-.3-.69a1.3 1.3 0 0 0-.64-.4c-1-.27-2.02-.46-3.05-.55a11.5 11.5 0 0 1-4.14-1.09A4.39 4.39 0 0 1 .25 8.77a5.38 5.38 0 0 1 1.99-4.06A7.24 7.24 0 0 1 6.99 3.1c1.49.01 2.94.4 4.22 1.13l.43-.7h2.06l.61 4.7Zm8.29 6.2c0 1.1.1 2.23 1.26 2.23H24a7.44 7.44 0 0 0 3.55-1.45V9.67c0-1.86-.05-2.46-2.2-2.7h-.21V4.3L31 3.46h2.05V14.3c0 1.86.06 2.48 2.01 2.69h.29v2.65H28.2v-1.3a11.06 11.06 0 0 1-5.66 1.54 5.35 5.35 0 0 1-4.21-1.4c-1.2-1.23-1.22-2.87-1.22-4.48V9.67c0-1.86-.05-2.45-2.31-2.7h-.23V4.3l5.87-.84h2.18l-.03 10.96Zm25.3 2.75c1.4.01 2.78.42 3.96 1.16a3.84 3.84 0 0 1 1.53 3.2 5.46 5.46 0 0 1-.97 2.92A5.65 5.65 0 0 1 50 26.43a17.26 17.26 0 0 1-6.4 1.07c-2.84 0-8.5-.5-8.5-4.29a3.1 3.1 0 0 1 2.16-2.9 3.4 3.4 0 0 1-1.58-2.83 3.8 3.8 0 0 1 .83-2.48c.57-.7 1.36-1.2 2.26-1.4a5.32 5.32 0 0 1-2.17-4.3c0-4.05 3.5-6.2 7.28-6.2.97.02 1.92.12 2.87.3A5.68 5.68 0 0 1 51.5.5a2.43 2.43 0 0 1 1.75.57 2.33 2.33 0 0 1 .8 1.63c-.03.5-.26.96-.65 1.3a2 2 0 0 1-1.4.48c-.63 0-1.11-.42-1.75-.42a1.12 1.12 0 0 0-1.1.46 5.66 5.66 0 0 1 2.57 4.6c0 4.08-3.5 6.14-7.36 6.14-.92 0-1.84-.1-2.75-.3a2.74 2.74 0 0 0-.5-.04.67.67 0 0 0-.47.19.64.64 0 0 0-.2.46v.1c0 1.13 2.32 1.05 3.05 1.13l4.4.37Zm-8.04 4.3a1.8 1.8 0 0 0-1.12 1.55c0 1.54 3.75 1.8 4.82 1.8a14.4 14.4 0 0 0 3.73-.42c.53-.2 1.04-.5 1.04-1.1 0-1.05-1.45-1-2.2-1.15l-6.27-.69ZM41.8 9.41c0 1.61.33 3.1 2.28 3.1 1.95 0 2.38-1.55 2.38-3.1S46.14 6.04 44 6.04c-2 0-2.21 1.88-2.21 3.37Z"/>
  <path fill="#000" d="M71.02 18.24a6.3 6.3 0 0 1-4.2 1.7 4.8 4.8 0 0 1-3.72-1.7 9.22 9.22 0 0 1-5.3 1.7c-2.8 0-5.28-1.56-5.28-4.5 0-4.64 6.2-5.63 9.84-6V8.08c.04-.48-.06-.97-.28-1.4-.32-.5-1.31-.62-1.87-.62-.6-.04-1.19.11-1.68.44a.97.97 0 0 0-.32.96 2.9 2.9 0 0 1-.38 1.55 2.78 2.78 0 0 1-2.07 1.01c-.62.02-1.24-.2-1.7-.62a2.3 2.3 0 0 1-.75-1.6v-.14a4.07 4.07 0 0 1 2.3-3.47 10.37 10.37 0 0 1 5.08-1.07 10 10 0 0 1 4.95 1.07c1.9 1.09 2.06 2.7 2.06 4.65v6.44c0 .5 0 1.22.55 1.22.35-.1.66-.27.92-.52l1.85 2.26Zm-8.6-6.2c-1.5.28-4.27.78-4.27 2.69a1.52 1.52 0 0 0 .4 1.12 1.58 1.58 0 0 0 1.1.51 4.01 4.01 0 0 0 2.77-1.15v-3.17Z"/>
  <path fill="#000" d="M76.53 5a7.81 7.81 0 0 1 4.3-1.51 2.7 2.7 0 0 1 2.94 2.32v.25a2.36 2.36 0 0 1-.74 1.7 2.46 2.46 0 0 1-1.75.68h-.1c-1.5.03-1.96-.98-2.78-.98-.5 0-1.03.2-1.03.52v6.33c0 1.86.05 2.5 2.05 2.67h.3v2.66h-10.5V17c2.62-.17 2.62-.77 2.62-3.02V9.67c0-1.86-.05-2.46-2.3-2.7h-.24V4.3l5.86-.84h1.37V5Zm22.25 4.23c-.09.24-.29.39-.4.34-.65-.4-1.4-.6-2.18-.59-1.9 0-3.35 1.41-3.35 4.54 0 2.19.8 4.37 3.35 4.37.76 0 1.51-.18 2.19-.53.1 0 .24.05.4.34l.1.2c.1.24.15.44 0 .54-.92.48-1.95.73-3 .73-3.16 0-4.58-2.29-4.58-5.56 0-3.1 1.2-5.89 4.76-5.89 1-.01 2 .26 2.84.78.1.04.05.29 0 .53l-.13.2Zm7.24-1.32c2.38 0 4.28.64 4.28 3.17a3.24 3.24 0 0 1-2.38 3.21l.75 1.42a24.4 24.4 0 0 0 1.9 3.1c.1.1-.2.25-.65.25h-.3a.92.92 0 0 1-.85-.3 14.84 14.84 0 0 1-1.45-2.43l-.9-1.9h-1.66v4.39c0 .09-.24.19-.64.19h-.1c-.44 0-.7 0-.7-.2V7.92h2.7Zm-1.1 5.43h1.4c1.74 0 2.43-.93 2.43-2.2 0-1.85-1.44-2-2.49-2h-1.4l.06 4.2Zm16.35-5.43c.1 0 .15.2.15.54v.2c0 .33 0 .54-.15.54h-4.84v3.7h4.1c.1 0 .16.19.16.53v.24c0 .34 0 .53-.15.53h-4.1V18h4.89c.1 0 .15.2.15.53v.06c0 .34 0 .53-.15.53h-6.34V7.91h6.28Zm8.78 0c.45 0 .65 0 .7.2l3.97 10.76c0 .1-.26.2-.7.2h-.26c-.4 0-.69 0-.74-.2l-.95-2.77h-4.48l-.95 2.72c0 .1-.3.2-.7.2h-.2c-.44 0-.7 0-.64-.2l3.84-10.76c0-.1.2-.2.74-.2l.37.05Zm-1.99 7.02h3.74l-1.84-5.43-1.9 5.43Zm16.64-7.02c.1 0 .14.2.14.54v.2c0 .33 0 .54-.15.54h-2.93v9.74c0 .1-.26.19-.7.19h-.2c-.4 0-.65 0-.65-.2V9.19h-2.94c-.1 0-.14-.2-.14-.54V8.5c0-.35 0-.54.14-.54l7.42-.05Zm7.77 0c.1 0 .1.15.1.45v.19c0 .29 0 .43-.1.43h-1.1v8.97h1.1c.1 0 .1.15.1.43v.2c0 .3 0 .44-.1.44h-3.79c-.1 0-.1-.05-.1-.44v-.2c0-.38 0-.43.1-.43h1.1V9h-1.1c-.1 0-.1-.05-.1-.44v-.19c0-.4 0-.44.1-.44l3.8-.03Zm4.89 0c.26-.03.53.04.74.2l2.94 9.42 2.89-9.44c0-.1.25-.2.7-.2h.2c.45 0 .7.05.65.2l-3.54 10.76c0 .1-.35.2-.8.2h-.39c-.44 0-.7 0-.75-.2L156.4 8.1c0-.1.26-.2.7-.2h.26Zm18.44 0c.1 0 .14.2.14.54v.2c0 .33 0 .54-.15.54h-4.83v3.7h4.09c.1 0 .15.19.15.53v.24c0 .34 0 .53-.15.53h-4.09V18h4.89c.1 0 .15.2.15.53v.06c0 .34 0 .53-.15.53h-6.38V7.91h6.32Z"/>
</svg>
