<svg xmlns="http://www.w3.org/2000/svg" fill="none" viewBox="0 0 131 46">
  <path fill="#000" d="M4.85 28.77a5.54 5.54 0 0 1-2.64-.58 3.77 3.77 0 0 1-1.64-2.02A11.7 11.7 0 0 1 0 22.12V6.96h3.42v15.56c0 .81.06 1.45.18 1.89.13.44.3.75.5.9.22.16.49.24.8.24.3 0 .55-.08.75-.24.22-.15.37-.46.49-.9.13-.62.18-1.26.17-1.9V6.96h3.43v15.18c0 1.73-.2 3.09-.6 4.05a3.74 3.74 0 0 1-1.63 2.02c-.82.4-1.73.6-2.65.57v-.01Zm7.03-21.82h5.54l4.15 9.4c.4.98.77 1.98 1.12 2.98.5 1.43.97 2.85 1.44 4.27l-.77 1.63a193.73 193.73 0 0 1-.28-8.9V6.95h4.98v21.56H22.5l-3.97-8.85a78.46 78.46 0 0 1-3.02-8.16l1.07-.46c.2 2.87.29 5.75.26 8.63l.03 8.84h-4.99V6.95Zm25.14 19.5-.46-3.22h4.5c.4 0 .73-.05 1-.17.28-.11.49-.29.62-.5.16-.24.22-.52.22-.83 0-.29-.06-.57-.2-.82a1.26 1.26 0 0 0-.63-.53 2.58 2.58 0 0 0-1-.17h-4.5v-4.97h3.64c.33.01.67-.05.98-.17.26-.11.48-.3.64-.52a1.57 1.57 0 0 0 0-1.64 1.43 1.43 0 0 0-.64-.52 2.54 2.54 0 0 0-.98-.17h-3.64l.45-2.1v16.33ZM30.2 28.5V6.95h11.27c1.83 0 3.3.25 4.42.76 1 .4 1.86 1.1 2.45 2a5 5 0 0 1 .74 2.72 4.78 4.78 0 0 1-2.26 4.14 6.1 6.1 0 0 1-2.48.85l.25-.78a5.82 5.82 0 0 1 4.71 2.98c.43.78.66 1.64.66 2.52 0 1.3-.3 2.44-.88 3.38a5.83 5.83 0 0 1-2.73 2.22c-1.49.55-3.07.81-4.65.76H30.2Zm52.23 0 8.69-12.17v2.3L83.27 6.95h7.9l1.85 2.93c.78 1.24 1.52 2.5 2.2 3.79h-2.3l1.19-2.07c.32-.57.68-1.17 1.08-1.8l1.77-2.85h7.37l-7.54 11.2v-2.3l8.47 12.66h-8l-2.22-3.76a142.7 142.7 0 0 1-1.96-3.4h1.44a49.6 49.6 0 0 1-2.05 3.4L90 28.51h-7.57Zm26.17-8.59v-4.57h9.84v4.57h-9.84Zm-2.92 8.59V6.95h13.53v4.74h-8.3v12.08h8.29v4.74h-13.54.02Zm19.26-3.27a1.8 1.8 0 0 0 1.52-.72c.36-.48.6-1.25.76-2.33.15-1.07.23-2.55.23-4.45 0-1.88-.08-3.37-.23-4.45a5.09 5.09 0 0 0-.76-2.34 1.84 1.84 0 0 0-1.55-.73h-.58v15.02h.61Zm-4.05 3.27V6.95h3.64c1.64 0 2.94.34 3.87 1.05.93.7 1.6 1.84 2 3.38.4 1.56.6 3.67.6 6.36 0 2.7-.2 4.8-.6 6.35-.42 1.55-1.08 2.67-2.02 3.36a6.33 6.33 0 0 1-3.89 1.06h-3.6ZM32.46 46a2.3 2.3 0 0 1-1.2-.32 2.03 2.03 0 0 1-.79-.97c-.2-.54-.3-1.1-.27-1.68 0-.68.09-1.23.27-1.67.2-.44.46-.76.8-.96.38-.22.8-.32 1.24-.31.42 0 .77.08 1.06.23.3.16.56.41.72.73.19.32.3.75.36 1.26h-1.37a2.28 2.28 0 0 0-.16-.6.74.74 0 0 0-.26-.32.7.7 0 0 0-.37-.1.7.7 0 0 0-.46.16 1 1 0 0 0-.3.55c-.08.35-.12.69-.1 1.03-.02.35.02.7.1 1.04.08.26.17.45.31.55a.73.73 0 0 0 .83.07c.1-.07.2-.17.27-.32s.12-.36.15-.63h1.36a3.1 3.1 0 0 1-.36 1.27c-.18.32-.44.57-.76.74-.33.17-.7.25-1.07.25Zm2.81-.12V40.2h2.13c.48 0 .86.06 1.14.19.27.12.47.3.6.54.12.25.18.54.18.9 0 .3-.06.58-.18.8-.1.22-.28.39-.5.5-.27.13-.56.19-.86.19l-.02-.23c.37.02.66.07.86.17.2.1.36.24.46.42.08.19.15.45.16.77l.05.84c.02.2.06.4.12.59H38l-.07-.2a2.32 2.32 0 0 1-.03-.4l-.03-.62c0-.17-.03-.34-.08-.51a.41.41 0 0 0-.2-.23.84.84 0 0 0-.39-.08h-1.14v-1.07h1.22c.13 0 .26-.02.34-.07a.45.45 0 0 0 .2-.23c.05-.1.08-.25.08-.42a1 1 0 0 0-.08-.43.44.44 0 0 0-.2-.23.84.84 0 0 0-.35-.06h-1.2l.57-.57v5.12h-1.38Zm5.5-2.26v-1.21h2.6v1.22h-2.6Zm-.78 2.26V40.2h3.56v1.24h-2.18v3.2h2.18v1.24H40Zm5.18-.99v-1.14h2.3v1.15h-2.3Zm-1.28 1 1.5-5.7h1.77l1.6 5.68h-1.44l-.7-2.97c-.12-.46-.21-.92-.3-1.38l-.12-.64h.19l-.26 1.3-.15.7-.7 2.99h-1.4v.01Zm5.7 0v-5.07h1.37v5.06h-1.37Zm-1.3-4.45V40.2h3.99v1.24h-4 .01Zm4.53-1.24h1.37v5.68h-1.37V40.2Zm3.29 5.68-1.5-5.68h1.43l.58 2.62c.21.89.4 1.78.55 2.68h-.35c.16-.9.32-1.8.53-2.67l.55-2.63h1.38l-1.43 5.68H56.1Zm3.6-5.68h1.38v5.68H59.7V40.2Zm3.22 5.68v-5.06h1.38v5.06h-1.38Zm-1.3-4.44V40.2h3.98v1.24h-3.99Zm5.8 4.44v-2.67l.26 1.24-1.88-4.25h1.49l.6 1.53.3.97h-.13l.28-.97.57-1.53h1.46l-1.82 4.25.25-1.25v2.68h-1.38Zm4.67-5.68h1.38v5.68H72.1V40.2Zm2.2 5.68V40.2h1.45l1.1 2.47.3.8.37 1.12-.2.42-.02-.42a51.8 51.8 0 0 1-.05-1.92V40.2h1.31v5.68H77.1l-1.04-2.33c-.3-.7-.57-1.42-.8-2.15l.28-.13c.05.76.08 1.52.08 2.28v2.33H74.3Zm7.31 0v-5.06H83v5.06h-1.38Zm-1.3-4.44V40.2h4v1.24h-4Zm7.34 4.44V40.2h1.37v5.68h-1.37Zm-2.12-3.53h2.84v1.26h-2.85v-1.26Zm-.69 3.53v-5.7h1.39v5.7h-1.39Zm5.7-3.47h2.6v1.22h-2.6v-1.22Zm-.77 3.47V40.2h3.58v1.24h-2.2v3.2h2.2v1.24h-3.58Zm8.18.12c-.39 0-.77-.08-1.13-.23a1.6 1.6 0 0 1-.7-.71 2.62 2.62 0 0 1-.25-1.2V40.2h1.39v3.7c0 .19.02.36.08.49a.5.5 0 0 0 .22.28c.1.08.23.1.39.1s.3-.03.4-.1c.1-.06.18-.16.22-.28.05-.16.08-.32.07-.5v-3.7h1.39v3.68c0 .4-.07.82-.25 1.19-.17.32-.4.54-.7.7-.36.17-.75.25-1.13.23Zm5.77-.12-1.29-2.92v-.52l1.13-.13 1.7 3.57h-1.54Zm-1.85-1.04-.03-1.63.91-1.62.9-1.4h1.55l-1.85 2.77-.34.15-1.14 1.73Zm-1.1 1.04v-5.7h1.38v5.7h-1.38ZM67.8 22.28a1.1 1.1 0 0 1 1.03.73 2.63 2.63 0 0 1-2.06 0 1.1 1.1 0 0 1 1.03-.73Zm0-1.36a1.47 1.47 0 0 1 1.45 1.22c.04.23.03.46-.04.68l-.16.1a1.33 1.33 0 0 0-2.01-.65c-.23.16-.4.38-.49.64l-.15-.09a1.48 1.48 0 0 1 1.41-1.9h-.01Zm2.5 2.1a4.13 4.13 0 0 0-4.9-6.64 4.13 4.13 0 0 0-.1 6.63 4.8 4.8 0 0 1-.13-8 4.73 4.73 0 0 1 5.5.16 4.76 4.76 0 0 1-.38 7.84Zm-4.48-1.55a2 2 0 0 1 2.45-1.93 1.98 1.98 0 0 1 1.3 2.84 1.78 1.78 0 0 0-1.77-1.6 1.76 1.76 0 0 0-1.76 1.6c-.15-.28-.23-.6-.23-.91h.01Zm1.98-3.56a2.66 2.66 0 0 1 2.64 2.67c0 .47-.11.93-.34 1.33a2.36 2.36 0 0 0-2.3-2.79 2.33 2.33 0 0 0-2.3 2.79 2.68 2.68 0 0 1 2.31-4Zm0-1.74a3.55 3.55 0 0 1 3.53 3.96c-.07.67-.33 1.3-.75 1.83a3.12 3.12 0 0 0-2.78-4.5 3.1 3.1 0 0 0-3.1 2.97c-.02.53.09 1.05.32 1.53a3.58 3.58 0 0 1 2.78-5.78v-.01Zm0-2.7a5.47 5.47 0 0 0-5.48 5.51 5.52 5.52 0 0 0 5.48 5.5 5.48 5.48 0 0 0 5.49-5.5 5.51 5.51 0 0 0-5.49-5.5Z"/>
  <path fill="#000" d="M73.67 31.17a15.02 15.02 0 0 1-5.87 1.18 15.02 15.02 0 0 1-13.97-9.32 15.11 15.11 0 1 1 29.01-7.27 15.11 15.11 0 0 1-9.18 15.41h.01ZM80 5.05A17.17 17.17 0 0 0 67.79 0a17.12 17.12 0 0 0-12.2 5.05 17.11 17.11 0 0 0-5.06 12.2 17.18 17.18 0 0 0 10.65 15.94c2.1.87 4.34 1.31 6.6 1.3a17.1 17.1 0 0 0 12.2-5.04 17.11 17.11 0 0 0 5.06-12.2c0-4.61-1.8-8.94-5.06-12.2H80Z"/>
  <path fill="#000" d="M72.22 27.84a11.31 11.31 0 0 1-15.08-6.66 11.43 11.43 0 0 1 2.67-11.9 11.3 11.3 0 0 1 19.2 6.44 11.4 11.4 0 0 1-6.8 12.12ZM67.79 4.43c-3.43 0-6.72 1.36-9.15 3.79a13.02 13.02 0 0 0-3.8 9.16 12.93 12.93 0 1 0 25.9 0 13.02 13.02 0 0 0-3.81-9.16 12.93 12.93 0 0 0-9.14-3.8Z"/>
  <path fill="#000" d="M71.1 25.58a8.45 8.45 0 0 1-11.98-7.71 8.53 8.53 0 0 1 5.36-7.93 8.44 8.44 0 0 1 10.91 4.58 8.53 8.53 0 0 1-4.28 11.06ZM67.8 8.03a9.7 9.7 0 0 0-8.98 13.43 9.74 9.74 0 0 0 8.97 6 9.73 9.73 0 0 0 9.73-9.72 9.74 9.74 0 0 0-9.73-9.71Z"/>
  <path fill="#000" d="M67.8 24.65a6.32 6.32 0 0 1-6.34-6.36 6.37 6.37 0 0 1 6.33-6.36 6.32 6.32 0 0 1 6.34 6.36 6.37 6.37 0 0 1-6.34 6.36Zm0-13.66a7.28 7.28 0 0 0-7.3 7.29 7.34 7.34 0 0 0 7.3 7.1 7.3 7.3 0 0 0 7.3-7.1c0-4.02-3.28-7.3-7.31-7.3v.01Z"/>
</svg>
