<svg xmlns="http://www.w3.org/2000/svg" fill="none" viewBox="0 0 212 52">
  <path fill="#000" d="M35.02 7.44c3.15-2.86 7.64-4.72 15.12-6.27 4.45-.92 4.66-.85 1.05.37-3.77 1.27-8.11 3.11-10.15 4.3-4 2.34-4.9 3.85-5.18 8.75-.14 2.44-.3 3.43-.71 4.38-.87 2.02-3.74 4.43-6.18 5.18-.4.12.03-.4 1.33-1.7 2.88-2.83 2.91-2.95 2.72-9.36-.1-3.11.24-4.06 2-5.65Z"/>
  <path fill="#000" d="M48.03 6.15a13.5 13.5 0 0 1 4.69-4.6c.6-.32 1.19-.58 1.29-.59.1 0-.52.67-1.37 1.5-1.46 1.44-2.73 3.52-2.74 4.48 0 .22-.19.46-.42.53-.93.27-2.2.42-2.2.26 0-.09.34-.8.75-1.58Zm-7.52 5.66c1.78-1.72 6.3-3.4 10.6-3.95 2.16-.27 10.58-.14 11.4.18.48.18.16.26-1.66.4-7.85.59-12.1 1.7-16.3 4.24-2.04 1.23-2.6 2.15-2.96 4.81-.42 3.1-.9 4.3-2.35 5.86-2.26 2.44-5.55 3.62-8.54 3.06-.83-.16-1.5-.37-1.5-.47 0-.1.84-.23 1.87-.29a7.55 7.55 0 0 0 6.71-4.28c.4-.77.57-1.69.72-3.82.22-3.22.64-4.4 2.01-5.74Zm-12.44.07-.13-1.7c-.1-1.51-.08-1.66.22-1.25.19.26.59 1.27.9 2.25.3.98.64 1.99.74 2.23.16.4.12.41-.31.18-.45-.23-.53-.16-.87.85a10 10 0 0 0-.38 2.65c0 1.5-.01 1.53-.44 1.14-.43-.38-.46-.34-.84 1-.35 1.27-.36 1.57-.04 3.05.19.9.51 2.1.72 2.68.2.58.33 1.1.28 1.14-.2.2-2.14-2.2-2.58-3.2-.4-.89-.47-1.44-.38-3.08.1-1.88.19-2.16 1.6-4.96l1.5-2.98Z"/>
  <path fill="#000" d="M57.82 9.6c.39-.2 1.36-.5 2.16-.68 1.81-.4 2.37-.42 2.18-.12-.08.14-.3.24-.47.24-.68 0-2.5.95-3.42 1.78-1.22 1.1-1.76 2.26-1.93 4.17-.13 1.43-.16 1.5-.45 1a7.74 7.74 0 0 1-.43-3.71c.2-.79 1.45-2.2 2.36-2.68Zm-45.84.48c.9-.48 1.9-.95 2.22-1.05.65-.2 1.21-.1 2.19.4.79.4 1.15.91.52.72-1.71-.5-2.1-.44-4.19.66-2.27 1.2-3.19 1.33-4.46.65-1.02-.55-1.3-1.1-.37-.75 1.2.45 2.4.27 4.09-.63Zm87.66 12.05V9.49l.66.07.65.08.06 6.24.07 6.25h-1.44Zm61.7-6.06c-.04-3.27-.01-6.1.06-6.27.07-.18.39-.28.77-.24l.66.08.07 2.32.07 2.32.58-.38c1.23-.8 3.21-.27 3.7 1 .12.33.22 2.1.22 3.91v3.32h-1.4l-.07-3.35c-.07-3-.13-3.39-.54-3.69-.7-.51-1.47-.4-2.02.3-.44.55-.5.94-.5 3.7v3.07l-.76-.07-.78-.08-.06-5.94Zm-68.36 6.08V10.44l.77.07.77.08.07 5.05.06 5.04 1.84.07c1.79.07 1.84.09 1.84.67v.6l-2.68.06-2.67.07Zm82.92-.47c-3.76-1.7-3.87-8.76-.16-10.72a5.1 5.1 0 0 1 2.36-.48c1.91-.01 2.22.12 2.22.97 0 .64-.05.68-.65.51a4.4 4.4 0 0 0-3.38.4c-1.17.84-1.56 1.79-1.54 3.82.02 3.52 1.8 5.17 4.8 4.44.74-.19.77-.16.77.51 0 .43-.15.77-.37.86-.79.3-3.1.12-4.05-.31ZM157 12.75c0-.67.11-.85.65-1.05 1-.36 1.01-.35 1.01.8 0 1.06 0 1.06.84 1.06.73 0 .83.08.83.6s-.1.6-.83.6h-.84v2.71c0 1.5.07 2.89.15 3.1.09.22.43.37.85.37.6 0 .7.08.63.54-.07.45-.25.54-1.16.6-1.79.12-2-.3-2.1-4.14-.08-3.18-.08-3.19-.65-3.19-.45 0-.57-.12-.57-.6 0-.47.12-.59.6-.59.51 0 .59-.1.59-.8ZM19.02 20.46c2.28-3.08 2.8-4.23 2.8-6.26 0-1.74.29-1.93.7-.45.38 1.38.3 3.25-.23 4.57-.26.66-1.12 2.24-1.91 3.52-3.2 5.12-3.76 7.1-3.03 10.59l.34 1.6-.58-.53a7.7 7.7 0 0 1-1.89-4.1c-.24-2.39.82-4.9 3.8-8.94Zm171.6-6.36c.29-.27.75-.54 1-.6.27-.07.63-.08.8-.03.17.05.42.1.54.1.12 0 .44.22.71.5.5.48.5.49 1.01.02.7-.62 1.43-.77 2.43-.5 1.33.37 1.54 1.07 1.54 5.08v3.46h-1.43v-3.31c0-2.7-.07-3.39-.37-3.7-.53-.51-1.38-.46-1.91.13-.4.43-.47.96-.54 3.7l-.08 3.2-.63-.07-.63-.07-.12-3.4c-.13-3.6-.22-3.84-1.34-3.85-1.05-.01-1.26.62-1.33 4.05l-.07 3.2h-1.43l-.06-4.22-.07-4.23h.72c.58 0 .72.1.72.52v.52l.54-.5Zm-87.17 3.77a75.72 75.72 0 0 1-1.2-4.08c0-.34 1.44-.27 1.55.07.06.16.44 1.56.86 3.1s.82 2.74.9 2.66c.08-.08.48-1.45.88-3.04l.72-2.9.76-.07c.42-.04.77-.03.77.04 0 .06-.7 2.56-1.56 5.55-1.7 5.98-2 6.5-3.57 6.5-.76 0-.83-.06-.83-.71 0-.63.09-.72.7-.72.56 0 .74-.14.95-.75.4-1.16.34-1.53-.93-5.65Zm6.58.15c-.6-2.28-1.1-4.22-1.1-4.32 0-.09.34-.13.76-.1l.77.08.7 3.14c.4 1.73.78 3.1.87 3.04.08-.05.46-1.49.83-3.2l.67-3.1h1.78l.77 3.23c.44 1.82.85 3.1.95 2.92.15-.27 1.41-5.66 1.41-6.02 0-.07.32-.13.72-.13.41 0 .71.13.7.3 0 .16-.46 2.07-1.02 4.23L117.8 22l-.84.07-.84.08-.78-3.17a49.95 49.95 0 0 0-.91-3.39c-.07-.12-.46 1.27-.87 3.1l-.75 3.31-.84.07-.84.07-1.1-4.13Zm26.86 3.99-.07-4.22-.06-4.23h.72c.48 0 .72.12.72.36 0 .44.22.44.82 0 .25-.2.7-.36 1-.36.46 0 .56.13.56.72 0 .58-.1.71-.55.71-1.34 0-1.83 1.3-1.83 4.84v2.33l-.66-.07-.65-.08Zm45.57-4.09a67.8 67.8 0 0 1-1.19-4.1c0-.14.32-.26.7-.26.8 0 .78-.03 1.93 4.35a8 8 0 0 0 .65 1.98c.06-.06.45-1.48.87-3.16l.76-3.05.76-.07c.42-.04.76 0 .76.09s-.7 2.58-1.55 5.55c-1.72 5.92-2.01 6.45-3.58 6.45-.75 0-.82-.06-.82-.71 0-.63.08-.72.7-.72.55 0 .73-.14.94-.75.4-1.15.35-1.49-.93-5.6Zm18.21 4.09-.06-4.22-.07-4.23h.72c.48 0 .72.12.72.36 0 .44.23.44.82 0 .25-.2.7-.36 1.01-.36.45 0 .55.13.55.72 0 .6-.1.71-.58.71-.67 0-1.27.53-1.44 1.27-.07.28-.15 1.7-.18 3.13l-.06 2.62h-1.42Zm4.76-1.34-.08-3.55-.09-3.56h1.72v3.22c0 2.9.05 3.26.47 3.68.89.89 2 .47 2.37-.9.14-.48.25-2.03.25-3.44v-2.56h1.43v8.57h-.71c-.58 0-.72-.1-.72-.52v-.51l-.55.51c-.4.38-.85.52-1.62.52-.88 0-1.2-.13-1.77-.73l-.7-.73ZM42.6 15.87c-.04-.04.06-.43.22-.86l.3-.8 3.1.14c2.22.1 3.68.3 5.24.73 2.13.58 4.24 1.34 4.1 1.46-.04.04-.98-.14-2.09-.4-2.5-.57-8.85-.87-10.01-.46-.43.14-.81.23-.85.19Zm-39.94.3.56-.47c1.1-.92 2.72-.32 3.83 1.42.76 1.18.93 1.8.43 1.57-.39-.19-.04.05 3.72 2.52a38.36 38.36 0 0 1 3.52 2.5c.37.42.36.5-.2 1.45l-.6 1.01-1.08-1.2c-1.57-1.73-5.31-4.8-6.94-5.66-1.76-.94-4-1.06-4.79-.27-.6.6-.7.6-.54 0 .06-.27.45-.76.86-1.1.65-.56.88-.61 2.08-.5.74.06 1.84.34 2.45.6l1.1.5-1.25-1.17c-1.05-.98-1.4-1.17-2.2-1.19l-.95-.01ZM47.6 23.2c-1.1-2.99.05-5.12 3.24-5.98.6-.16 2-.3 3.1-.29h2.03l-1.45.32a8.9 8.9 0 0 0-4.8 2.58c-.9.98-1.18 1.6-1.62 3.6l-.16.72-.35-.95Z"/>
  <path fill="#000" d="M4.59 19.81a2.34 2.34 0 0 1-.62-.62c0-.25 1.16.3 2.55 1.18 1.57 1 3.62 3.01 5.72 5.6 1.44 1.78 1.48 1.88 1.48 3.21v1.38l-1.46-2.01a99.84 99.84 0 0 0-2.78-3.64l-1.32-1.63-.47.91a4.4 4.4 0 0 1-.84 1.2c-.4.3-1.93.43-1.93.16 0-.09.37-.52.83-.97.62-.6.83-1 .83-1.6 0-.84-.93-2.33-2-3.17Zm36.74 1.62c0-.23.07-.48.16-.57.25-.25.9-.19 2.01.2 1.07.38 3.3 1.77 3.3 2.07 0 .09-.61-.12-1.36-.46a9.21 9.21 0 0 0-2.74-.73c-1.1-.08-1.37-.19-1.37-.51Zm.07 3.6c.33-.31 1.01-.7 1.52-.89 1-.36 4.6-.47 4.6-.14 0 .12-.4.28-.9.36a9.28 9.28 0 0 0-6.05 4.37c-.4.69-.8 1.25-.9 1.25-.1 0-.9-.32-1.78-.72-.88-.4-2.8-1.04-4.26-1.42-2.28-.58-2.5-.68-1.58-.7 1.01 0 5.14.48 7 .83.7.13.85.1.85-.23 0-.6.83-2.09 1.5-2.71Zm-22.94 4.36c.5-1.1.95-1.53 2.28-2.22.95-.5 1.55-.64 1.55-.38 0 .07-.26.48-.59.9-1.38 1.81-1.68 3.83-.8 5.38l.5.9-1.3 1.7a22.64 22.64 0 0 0-2.44 4.37c-3.23 7.5-4.41 8.82-8.45 9.44-1.9.3-3.5 1.03-3.91 1.8l-.34.59c-.17.27-.51-.67-.51-1.45-.01-1.7 1.68-2.8 4.73-3.05 2.34-.2 3.6-.7 4.43-1.78.31-.41 1.26-2.57 2.1-4.79.85-2.22 1.82-4.67 2.16-5.44.52-1.19.58-1.53.38-2.26a5.53 5.53 0 0 1 .2-3.71Z"/>
  <path fill="#000" d="M26.82 31.85c.22-.82.19-1.34-.18-2.7-.13-.47-.12-.47.37-.03.28.25.74.93 1.02 1.5a3.76 3.76 0 0 1-2.85 5.48c-1 .13-1.02.16-3.91 4.4-3.46 5.06-4.06 6.06-3.9 6.46.06.17.56.44 1.1.6 1.36.4 1.92 1.02 1.92 2.12 0 .96-.46 1.8-1.2 2.2-.41.22-.43.18-.2-.46.56-1.62-.71-2.4-3.95-2.4h-2.28l1.68-1.59c2.6-2.44 4.98-6.2 6.9-10.9.74-1.8.97-2.15 1.45-2.2 2.19-.25 3.68-1.16 4.03-2.48Zm86.51 9.91-.07-6.24-.06-6.25h1.44l-.06 6.25-.06 6.24h-1.2Zm9.45-5.94c-.03-3.27 0-6.09.06-6.27.07-.18.4-.28.78-.24l.65.08.07 2.28.07 2.3.9-.45c1.1-.55 2.16-.4 2.93.43.52.55.56.81.63 4.05.05 2.1-.01 3.56-.16 3.7-.13.13-.51.17-.85.09l-.61-.16v-3.28c0-2.23-.1-3.37-.29-3.56-.38-.39-1.42-.36-1.99.05-.4.3-.47.73-.58 3.63l-.12 3.3h-1.42l-.07-5.95Zm12.53-3.06a5.05 5.05 0 0 1 3.18-2.56c.79-.2 2.92-.1 3.61.17.24.09.38.43.38.93v.8l-1.09-.38c-1.54-.52-2.82-.3-3.81.67-1.05 1.01-1.37 2.06-1.23 4.03.19 2.62 1.4 4.04 3.44 4.03 1.4 0 1.53-.18 1.45-2.04l-.07-1.65-.9-.07c-.75-.06-.88-.16-.88-.64 0-.63.53-.78 2.32-.63l1 .08v5.85l-1.05.26c-2.88.73-5.17-.14-6.38-2.44-.78-1.45-.76-4.8.03-6.4ZM93.2 36.4l-1.17-5.3-.2-.9.87.07.86.07.83 4.22c.46 2.33.9 4.23.97 4.23.08 0 .56-1.9 1.08-4.23l.94-4.22 1-.07c.78-.06 1 .01 1.1.35.07.24.52 2.23 1.01 4.42.5 2.2.93 3.96.97 3.92.04-.05.45-1.84.92-4 1.1-5.05.97-4.74 1.8-4.74.38 0 .7.08.7.17 0 .77-2.48 11.17-2.7 11.3-.15.1-.57.19-.92.19-.74 0-.63.3-1.62-4.28-1.33-6.1-1.1-6.02-2.27-.88-.56 2.45-1.08 4.62-1.15 4.81-.08.2-.44.35-.86.35-.94 0-.97-.08-2.16-5.47Zm114.97-3.93c0-.65.12-.89.53-1.05.86-.34.9-.3.9.82v1.07h.95c.85 0 .95.06.95.6 0 .53-.1.6-.95.6h-.95v2.71c0 2.93.26 3.65 1.21 3.34.57-.18.87.47.45.97s-1.73.43-2.47-.14c-.62-.5-.62-.52-.62-3.7V34.5h-.72c-.6 0-.71-.09-.71-.6 0-.5.11-.59.71-.59.66 0 .72-.06.72-.84ZM44.42 35.06c-.82-.7-2.14-2.38-2.14-2.75 0-.25.11-.19 2.07 1.18a15.84 15.84 0 0 0 5.75 2.57 9.9 9.9 0 0 1 1.58.4c.04.03.46 1.21.93 2.62.78 2.28 1.3 3.57 3.4 8.6.33.76.54 1.51.48 1.68-.08.2-1.24.38-3.53.56-4.01.31-4.84.55-5.35 1.54-.3.56-.42.65-.59.4-.43-.7-.23-1.78.44-2.41 1.1-1.02 1.75-1.24 4.1-1.37 2.11-.12 2.27-.17 2.34-.66.04-.29-.54-1.83-1.28-3.42a50.87 50.87 0 0 1-1.9-4.56l-.52-1.68-1.28-.4a14.63 14.63 0 0 1-4.5-2.3Zm71.88.62c0-1.08.71-2.04 1.74-2.35a3.92 3.92 0 0 1 1.44-.12 9 9 0 0 0 1.02.1c.2 0 .32.27.32.68 0 .67 0 .67-1.28.57-1.13-.1-1.32-.05-1.56.4-.4.76.06 1.38 1.53 2.03.7.31 1.39.78 1.53 1.05.33.6.33 2.07.01 2.66-.54 1.02-2.67 1.5-4.14.95-.46-.18-.6-.4-.6-.92v-.69l1.1.37c.97.32 1.18.32 1.72.02 1.2-.67.9-1.55-.79-2.4-1.54-.77-2.04-1.35-2.04-2.35Zm52.6-2.03c0 .26.19.23.88-.13 1.1-.56 1.38-.48 1.38.4 0 .58-.11.72-.63.78-1.25.14-1.5.75-1.63 4.05l-.12 3.01-.66.08-.65.07v-3.4c0-1.88-.07-3.81-.15-4.3l-.15-.9h.86c.58 0 .87.11.87.34Zm4.76.02c0 .3.15.28.89-.12 1.06-.57 1.26-.58 2.34-.13 1.26.53 1.53 1.43 1.53 5.1 0 1.92-.1 3.15-.25 3.25-.14.09-.52.09-.84.01-.58-.15-.58-.15-.58-3.34 0-3.4-.16-3.94-1.22-3.94-1.46 0-1.87 1.03-1.87 4.7v2.71l-.66-.07-.65-.08-.07-4.22-.06-4.23h.72c.48 0 .72.12.72.36Zm8.09-.02c0 .26.19.23.88-.12a4.9 4.9 0 0 1 1.1-.45c.4 0 1.83.77 1.83.98 0 .12.33-.02.73-.32 1.02-.75 2.44-.7 3.28.14.63.63.63.66.63 4.26v3.62H189l-.11-3.23c-.13-3.44-.31-4.03-1.3-4.03a2 2 0 0 0-.97.34c-.41.3-.48.73-.59 3.63l-.12 3.3h-1.19l-.11-3.24c-.13-3.44-.32-4.03-1.3-4.03-.28 0-.72.16-.98.34-.4.3-.48.73-.58 3.63l-.12 3.3-.64.07-.65.07-.07-4.3-.07-4.3h.78c.5 0 .77.12.77.34Zm19.28 0c0 .26.18.23.88-.12a4.28 4.28 0 0 1 1.2-.45c.63 0 1.93.68 2.18 1.15.16.28.26 1.96.26 4.08v3.6l-.65-.07-.66-.08-.12-3.23c-.12-3.4-.32-4.03-1.23-4.03-.64 0-1.3.38-1.52.89-.1.23-.25 1.76-.33 3.4l-.13 2.97h-1.2l-.06-4.22-.06-4.23h.72c.45 0 .72.13.72.34Z"/>
  <path fill="#000" d="M27.5 36.38c1.83.94 6.99-.06 12.78-2.46.78-.32 1.53-.59 1.68-.6.34 0 .64.73.4.95-.46.39-7.1 3.37-8.8 3.94-2.28.78-5.3 1-7.56.58a5.98 5.98 0 0 1-1.68-.47c-.06-.1.19-.5.54-.9.73-.82 2.04-1.34 2.63-1.04Zm127.28 5.28c-.14-.14-.81-2.08-1.5-4.31l-1.23-4.06.86.07.87.07.81 3.16c.45 1.74.9 3.08.98 2.98.1-.1.53-1.55.97-3.22l.8-3.04h.79c.92 0 .98-.47-.62 4.76-1.09 3.56-1.16 3.7-1.8 3.77-.37.04-.79-.04-.93-.18ZM42.76 37.95c0-.91.07-1.9.15-2.2.17-.65.6-.68 1.13-.1.37.42.36.63-.08 3.26-.7 4.15-1.9 5.6-4.85 5.92-1.63.18-2.23.44-2.94 1.28l-.52.62-.16-.66c-.4-1.56.78-2.51 3.4-2.77 1.68-.16 1.88-.24 2.6-1.01.93-1.03 1.27-2.16 1.27-4.34Z"/>
  <path fill="#000" d="M42.77 43.62c.95-1.08 1.68-2.64 2.39-5.07.5-1.76.57-1.86 1.03-1.62.27.14.53.28.57.32.04.03-.31 1.3-.79 2.82-.47 1.52-.8 2.87-.71 3 .08.13.36.24.62.24.61 0 1.64 1.03 1.64 1.65 0 .27-.3.82-.67 1.23l-.67.75.1-.83c.14-1.2-.53-1.61-2.65-1.61H42l.77-.88Zm-5.54-.42c-.5.17-.59-.58-.13-1.03.35-.36 1.67-.37 2.91-.03 1.18.33.76.64-1.1.82-.7.06-1.45.18-1.68.25Zm11.66 4.74c-.53.23-.56-.28-.05-1 .52-.74 2.05-.73 3.3.03l.92.56-1.88.12c-1.03.07-2.06.2-2.3.3Z"/>
  <path fill="#000" fill-rule="evenodd" d="M25.93 1.18A4 4 0 0 1 24.4 4.4c-.83.7-.91.7-5.12.22-1.4-.16-2.15.14-2.36.94-.12.51-.24.54-2.08.53-2.05-.02-3.5.38-3.5.97 0 .27.37 1 .87 1.71.04.05.5-.08 1.03-.3 1.29-.5 2.02-.48 3.08.11 1.17.66 1.59 1.32 1.17 1.83-.55.66-2.32 1.29-3.67 1.3-.7 0-1.29.1-1.29.2 0 .36 1.26 1.18 2.21 1.43 1.24.34 2.26.14 4.46-.84.98-.44 1.97-.86 2.2-.93.23-.07.42-.36.42-.63 0-1.17 1.5-2.9 3.05-3.55.73-.3.82-.28 1.45.33l.67.64.57-.9c.47-.77.56-1.23.56-2.82 0-1.39-.12-2.13-.44-2.74-.46-.85-1.32-1.9-1.56-1.9-.08 0-.16.53-.19 1.18ZM19.81 6.8c-.92.67-2.19.26-1.56-.5.35-.42.48-.43 1.35-.1.65.25.65.27.2.6Zm43.88-5.31c.37.55.87 1.4 1.1 1.9.36.76.46.82.7.5.24-.33.37-.2.91.88 1.33 2.67.78 4.64-3.28 11.75-1.36 2.4-2.72 4.83-3 5.42l-.52 1.07-3 .27c-1.66.15-4.24.57-5.75.95l-2.73.68 1.57.75c1.85.88 3.4 2.3 4.03 3.69.6 1.3.6 3.37 0 5.04-.45 1.29-.45 1.33.01 3.27.26 1.08 1.18 4.1 2.04 6.72l1.66 5.06c.04.16.44.3.92.3 1.65 0 2.69.7 2.53 1.72-.02.1.08.18.21.18.43 0 .72-1.14.46-1.83-.3-.8-.82-1.19-1.94-1.5-1.06-.3-1.56-1.07-2.42-3.7-1.6-4.9-1.97-7.41-1.44-9.47.5-1.88.5-4.54.02-5.7a9.04 9.04 0 0 0-1.47-2.05c-.6-.64-1-1.22-.9-1.28.33-.19 2.51-.61 3.84-.74 1.06-.1 1.25-.07 1.14.23-.68 1.76-.96 3.59-.97 6.4-.01 2.93.02 3.17.66 4.46a6.33 6.33 0 0 0 3.73 3.3c2.68 1.02 6.15.18 7.89-1.92 1.67-2 2.12-6.27.91-8.66-1.24-2.46-4.55-4.74-8.04-5.53l-1.67-.37.55-1.24c.3-.68 1.42-2.73 2.49-4.56 3.9-6.7 4.69-8.92 4.09-11.61a7.72 7.72 0 0 0-.9-2.2c-.4-.6-.5-.94-.33-1.05.34-.2-.44-.74-2.27-1.55-.74-.33-1.39-.6-1.43-.6-.05 0 .22.46.6 1.02Zm-4.7 31.35c-.1-1.93.2-4.36.8-6.38l.37-1.25.88.14c3.24.52 4.52 1.05 6.13 2.53a6.54 6.54 0 0 1 2.25 4.74c0 4-2.88 6.7-6.33 5.93-2.45-.55-3.9-2.58-4.1-5.71Zm74.69-20.94c0 1.33-.09 2.38-.18 2.33-1.44-.74-1.96-.87-2.69-.66-.42.12-.97.4-1.22.62-.53.48-1.15 2.45-1.15 3.66 0 1.4.66 3.25 1.34 3.8.84.65 2.43.65 3.27-.01l.63-.5v.5c0 .39.14.49.71.49h.72l-.06-6.25-.07-6.24-.65-.08-.66-.07v2.41Zm-3.6 6.01c0-1.62.27-2.6.83-2.97.15-.1.53-.18.86-.18 1.24 0 1.76.94 1.75 3.16-.02 2.03-.55 2.9-1.75 2.9-1.21 0-1.69-.82-1.7-2.91Zm-6.84-4.33a3.6 3.6 0 0 0-2.42 2.35c-.57 2.06-.1 4.43 1.11 5.49.7.6 1 .71 2.14.71 1.18 0 1.4-.09 2.1-.78 1.67-1.67 1.63-5.61-.07-7.15-.62-.57-1.85-.83-2.86-.62Zm-.78 6.23c-.4-1.05-.17-3.97.37-4.56.67-.74 1.91-.67 2.44.13.57.88.7 3.31.23 4.43-.6 1.46-2.47 1.47-3.04 0Zm21.33-6.31c-1.32.26-1.78.6-1.78 1.28 0 .38-.01.57.08.63.1.06.31-.05.78-.3 1.04-.54 2.37-.46 2.81.17.2.3.37.78.37 1.07 0 .47-.12.55-.92.55-1.53 0-2.39.26-3.13.95-.6.55-.7.85-.7 1.78 0 .9.12 1.23.69 1.8a2.7 2.7 0 0 0 3.4.23c.6-.47.6-.47.73 0 .08.32.33.47.74.47h.62v-3.27c0-2.12-.11-3.47-.3-3.85-.56-1.08-2.1-1.77-3.39-1.51Zm-.7 7.07c-.84-.85-.19-2.19 1.24-2.52.64-.14.84-.2 1.03-.16.1.02.18.05.31.1.74.28.2 2.46-.7 2.8-.68.26-1.5.16-1.88-.22Zm8.26-6.99c-1.02.21-1.48.62-2 1.77-.97 2.14-.3 5.63 1.24 6.43.78.4 2.9.47 3.57.1.61-.33.66-1.56.04-1.27-.23.1-.94.2-1.58.2-.97.01-1.23-.08-1.58-.58a4.21 4.21 0 0 1-.57-1.25l-.14-.66h4.76v-1.06c0-2.68-1.49-4.15-3.74-3.68Zm-.86 3.37c-.22-.37.47-1.84 1-2.1.8-.4 1.47-.13 1.85.76.59 1.41.5 1.52-1.2 1.52-.85 0-1.59-.08-1.65-.18Zm-3.57 16.36c-1.56.49-2.33 1.86-2.33 4.17 0 2.66 1.06 4.16 3.06 4.33 2.41.2 3.76-1.36 3.75-4.34-.01-1.84-.47-2.93-1.54-3.7a3.73 3.73 0 0 0-2.94-.46Zm-.02 6.82c-1.02-1.01-1.1-4.2-.12-5.17a1.9 1.9 0 0 1 1.3-.46c.68 0 .92.14 1.32.78.4.63.47 1.08.4 2.52-.06 1.57-.14 1.81-.73 2.32-.84.72-1.46.72-2.17.01Zm15.02-6.82c-1.5.47-2.29 1.93-2.3 4.24 0 1.71.37 2.77 1.3 3.62.55.51.86.6 2.28.6 1.21-.01 1.74-.11 2.04-.4.55-.56.25-1.26-.45-1.04-2.23.69-3.17.27-3.6-1.6l-.15-.64 2.44-.07 2.44-.07-.05-1.24c-.08-2.04-.97-3.25-2.58-3.5a3.6 3.6 0 0 0-1.37.1Zm-.7 3.44c-.25-.26.29-1.65.8-2.07.28-.23.66-.41.85-.41.61 0 1.5 1.12 1.5 1.89v.72h-1.5c-.83 0-1.57-.06-1.65-.13Zm32.91-3.41c-1.7.69-2.58 2.66-2.28 5.06.31 2.5 1.7 3.66 4.11 3.4 1.54-.15 1.74-.27 1.74-1.03 0-.52-.08-.59-.54-.45-1.7.5-2.28.45-3.02-.3-.44-.43-.73-.97-.73-1.33v-.62h4.76v-.89c0-1.37-.4-2.52-1.13-3.2-.75-.72-2.04-1-2.91-.64Zm-.72 3.06c0-.62.61-1.81 1-1.97.9-.37 1.79.13 2.07 1.17.14.49.19.97.12 1.08-.07.11-.81.2-1.66.2-1.38 0-1.53-.04-1.53-.48Zm-85.77-3.08c-1.6.49-2.38 1.96-2.34 4.45.04 2.83 1.5 4.3 4.01 4.04 1.6-.16 1.75-.27 1.75-1.14 0-.7 0-.7-.7-.34-1.54.8-3.14.11-3.46-1.48l-.16-.78h4.8v-1.06c0-2.7-1.74-4.34-3.9-3.69Zm-.77 2.8c.08-.43.42-1.02.76-1.32.33-.3.71-.53.85-.53.55 0 1.12.5 1.37 1.22.47 1.34.42 1.4-1.43 1.4h-1.7l.15-.78Z" clip-rule="evenodd"/>
</svg>
